<ttFont>
<head>
    <!-- Most of this table will be recalculated by the compiler -->
    <tableVersion value="1.0"/>
    <fontRevision value="2.538"/>
    <checkSumAdjustment value="0xce1209ed"/>
    <magicNumber value="0x5f0f3cf5"/>
    <flags value="00000000 00001111"/>
    <unitsPerEm value="1000"/>
    <created value="Thu May 18 16:20:55 2017"/>
    <modified value="Thu May 18 10:50:58 2017"/>
    <xMin value="-641"/>
    <yMin value="-675"/>
    <xMax value="1409"/>
    <yMax value="1040"/>
    <macStyle value="00000000 00000000"/>
    <lowestRecPPEM value="9"/>
    <fontDirectionHint value="2"/>
    <indexToLocFormat value="1"/>
    <glyphDataFormat value="0"/>
  </head>
    <TTGlyph name=".notdef" xMin="0" yMin="0" xMax="524" yMax="698">
      <contour>
        <pt x="0" y="698" on="1"/>
        <pt x="524" y="698" on="1"/>
        <pt x="524" y="0" on="1"/>
        <pt x="0" y="0" on="1"/>
      </contour>
      <contour>
        <pt x="401" y="630" on="1"/>
        <pt x="124" y="630" on="1"/>
        <pt x="262" y="424" on="1"/>
      </contour>
      <contour>
        <pt x="437" y="162" on="1"/>
        <pt x="437" y="536" on="1"/>
        <pt x="312" y="349" on="1"/>
      </contour>
      <contour>
        <pt x="401" y="68" on="1"/>
        <pt x="262" y="274" on="1"/>
        <pt x="124" y="68" on="1"/>
      </contour>
      <contour>
        <pt x="88" y="162" on="1"/>
        <pt x="213" y="349" on="1"/>
        <pt x="88" y="536" on="1"/>
      </contour>
    </TTGlyph>
    <TTGlyph name="A" xMin="16" yMin="0" xMax="634" yMax="630">
      <contour>
        <pt x="245" y="630" on="1"/>
        <pt x="407" y="630" on="1"/>
        <pt x="634" y="0" on="1"/>
        <pt x="473" y="0" on="1"/>
        <pt x="430" y="135" on="1"/>
        <pt x="218" y="135" on="1"/>
        <pt x="175" y="0" on="1"/>
        <pt x="16" y="0" on="1"/>
      </contour>
      <contour>
        <pt x="251" y="245" on="1"/>
        <pt x="395" y="245" on="1"/>
        <pt x="371" y="321" on="1"/>
        <pt x="359" y="358" on="0"/>
        <pt x="334" y="442" on="0"/>
        <pt x="325" y="477" on="1"/>
        <pt x="323" y="477" on="1"/>
        <pt x="313" y="442" on="0"/>
        <pt x="287" y="360" on="0"/>
        <pt x="275" y="321" on="1"/>
      </contour>
    </TTGlyph>
    <TTGlyph name="AE" xMin="16" yMin="0" xMax="813" yMax="630">
      <contour>
        <pt x="330" y="630" on="1"/>
        <pt x="810" y="630" on="1"/>
        <pt x="810" y="514" on="1"/>
        <pt x="572" y="514" on="1"/>
        <pt x="572" y="385" on="1"/>
        <pt x="784" y="385" on="1"/>
        <pt x="784" y="270" on="1"/>
        <pt x="572" y="270" on="1"/>
        <pt x="572" y="116" on="1"/>
        <pt x="813" y="116" on="1"/>
        <pt x="813" y="0" on="1"/>
        <pt x="420" y="0" on="1"/>
        <pt x="420" y="140" on="1"/>
        <pt x="253" y="140" on="1"/>
        <pt x="185" y="0" on="1"/>
        <pt x="16" y="0" on="1"/>
      </contour>
      <contour>
        <pt x="420" y="522" on="1"/>
        <pt x="301" y="255" on="1"/>
        <pt x="420" y="255" on="1"/>
      </contour>
    </TTGlyph>
    <TTGlyph name="AEacute" xMin="16" yMin="0" xMax="813" yMax="814">
      <contour>
        <pt x="330" y="630" on="1"/>
        <pt x="810" y="630" on="1"/>
        <pt x="810" y="514" on="1"/>
        <pt x="572" y="514" on="1"/>
        <pt x="572" y="385" on="1"/>
        <pt x="784" y="385" on="1"/>
        <pt x="784" y="270" on="1"/>
        <pt x="572" y="270" on="1"/>
        <pt x="572" y="116" on="1"/>
        <pt x="813" y="116" on="1"/>
        <pt x="813" y="0" on="1"/>
        <pt x="420" y="0" on="1"/>
        <pt x="420" y="140" on="1"/>
        <pt x="253" y="140" on="1"/>
        <pt x="185" y="0" on="1"/>
        <pt x="16" y="0" on="1"/>
      </contour>
      <contour>
        <pt x="420" y="522" on="1"/>
        <pt x="301" y="255" on="1"/>
        <pt x="420" y="255" on="1"/>
      </contour>
      <contour>
        <pt x="472" y="690" on="1"/>
        <pt x="350" y="690" on="1"/>
        <pt x="430" y="814" on="1"/>
        <pt x="588" y="814" on="1"/>
      </contour>
    </TTGlyph>
    <TTGlyph name="Aacute" xMin="16" yMin="0" xMax="634" yMax="814">
      <contour>
        <pt x="387" y="690" on="1"/>
        <pt x="265" y="690" on="1"/>
        <pt x="345" y="814" on="1"/>
        <pt x="503" y="814" on="1"/>
      </contour>
      <contour>
        <pt x="245" y="630" on="1"/>
        <pt x="407" y="630" on="1"/>
        <pt x="634" y="0" on="1"/>
        <pt x="473" y="0" on="1"/>
        <pt x="430" y="135" on="1"/>
        <pt x="218" y="135" on="1"/>
        <pt x="175" y="0" on="1"/>
        <pt x="16" y="0" on="1"/>
      </contour>
      <contour>
        <pt x="251" y="245" on="1"/>
        <pt x="395" y="245" on="1"/>
        <pt x="371" y="321" on="1"/>
        <pt x="359" y="358" on="0"/>
        <pt x="334" y="442" on="0"/>
        <pt x="325" y="477" on="1"/>
        <pt x="323" y="477" on="1"/>
        <pt x="313" y="442" on="0"/>
        <pt x="287" y="360" on="0"/>
        <pt x="275" y="321" on="1"/>
      </contour>
    </TTGlyph>
    <TTGlyph name="Abreve" xMin="16" yMin="0" xMax="634" yMax="814">
      <contour>
        <pt x="271" y="814" on="1"/>
        <pt x="272" y="791" on="0"/>
        <pt x="297" y="764" on="0"/>
        <pt x="324" y="764" on="1"/>
        <pt x="373" y="764" on="0"/>
        <pt x="375" y="814" on="1"/>
        <pt x="457" y="814" on="1"/>
        <pt x="457" y="753" on="0"/>
        <pt x="388" y="685" on="0"/>
        <pt x="323" y="685" on="1"/>
        <pt x="287" y="685" on="0"/>
        <pt x="236" y="706" on="0"/>
        <pt x="203" y="741" on="0"/>
        <pt x="188" y="788" on="0"/>
        <pt x="188" y="814" on="1"/>
      </contour>
      <contour>
        <pt x="245" y="630" on="1"/>
        <pt x="407" y="630" on="1"/>
        <pt x="634" y="0" on="1"/>
        <pt x="473" y="0" on="1"/>
        <pt x="430" y="135" on="1"/>
        <pt x="218" y="135" on="1"/>
        <pt x="175" y="0" on="1"/>
        <pt x="16" y="0" on="1"/>
      </contour>
      <contour>
        <pt x="251" y="245" on="1"/>
        <pt x="395" y="245" on="1"/>
        <pt x="371" y="321" on="1"/>
        <pt x="359" y="358" on="0"/>
        <pt x="334" y="442" on="0"/>
        <pt x="325" y="477" on="1"/>
        <pt x="323" y="477" on="1"/>
        <pt x="313" y="442" on="0"/>
        <pt x="287" y="360" on="0"/>
        <pt x="275" y="321" on="1"/>
      </contour>
    </TTGlyph>
    <TTGlyph name="Acircumflex" xMin="16" yMin="0" xMax="634" yMax="814">
      <contour>
        <pt x="269" y="814" on="1"/>
        <pt x="378" y="814" on="1"/>
        <pt x="493" y="690" on="1"/>
        <pt x="383" y="690" on="1"/>
        <pt x="323" y="754" on="1"/>
        <pt x="263" y="690" on="1"/>
        <pt x="157" y="690" on="1"/>
      </contour>
      <contour>
        <pt x="245" y="630" on="1"/>
        <pt x="407" y="630" on="1"/>
        <pt x="634" y="0" on="1"/>
        <pt x="473" y="0" on="1"/>
        <pt x="430" y="135" on="1"/>
        <pt x="218" y="135" on="1"/>
        <pt x="175" y="0" on="1"/>
        <pt x="16" y="0" on="1"/>
      </contour>
      <contour>
        <pt x="251" y="245" on="1"/>
        <pt x="395" y="245" on="1"/>
        <pt x="371" y="321" on="1"/>
        <pt x="359" y="358" on="0"/>
        <pt x="334" y="442" on="0"/>
        <pt x="325" y="477" on="1"/>
        <pt x="323" y="477" on="1"/>
        <pt x="313" y="442" on="0"/>
        <pt x="287" y="360" on="0"/>
        <pt x="275" y="321" on="1"/>
      </contour>
    </TTGlyph>
    <TTGlyph name="Addak.gm" xMin="-321" yMin="636" xMax="47" yMax="829">
      <contour>
        <pt x="-135" y="636" on="1"/>
        <pt x="-173" y="636" on="0"/>
        <pt x="-240" y="658" on="0"/>
        <pt x="-291" y="702" on="0"/>
        <pt x="-321" y="769" on="0"/>
        <pt x="-321" y="815" on="1"/>
        <pt x="-321" y="829" on="1"/>
        <pt x="-226" y="829" on="1"/>
        <pt x="-222" y="783" on="0"/>
        <pt x="-174" y="737" on="0"/>
        <pt x="-136" y="737" on="1"/>
        <pt x="-101" y="737" on="0"/>
        <pt x="-50" y="784" on="0"/>
        <pt x="-48" y="829" on="1"/>
        <pt x="47" y="829" on="1"/>
        <pt x="47" y="816" on="1"/>
        <pt x="47" y="770" on="0"/>
        <pt x="19" y="703" on="0"/>
        <pt x="-30" y="658" on="0"/>
        <pt x="-97" y="636" on="0"/>
      </contour>
    </TTGlyph>
    <TTGlyph name="Addak.gm.alt" xMin="-438" yMin="675" xMax="-142" yMax="826">
      <contour>
        <pt x="-289" y="675" on="1"/>
        <pt x="-361" y="675" on="0"/>
        <pt x="-438" y="750" on="0"/>
        <pt x="-438" y="811" on="1"/>
        <pt x="-438" y="822" on="1"/>
        <pt x="-351" y="826" on="1"/>
        <pt x="-351" y="751" on="0"/>
        <pt x="-290" y="751" on="1"/>
        <pt x="-258" y="751" on="0"/>
        <pt x="-228" y="791" on="0"/>
        <pt x="-228" y="826" on="1"/>
        <pt x="-142" y="822" on="1"/>
        <pt x="-142" y="809" on="1"/>
        <pt x="-142" y="750" on="0"/>
        <pt x="-217" y="675" on="0"/>
      </contour>
    </TTGlyph>
    <TTGlyph name="AddakBindi.gm" xMin="-331" yMin="636" xMax="57" yMax="897">
      <contour>
        <pt x="-200" y="834" on="1"/>
        <pt x="-200" y="860" on="0"/>
        <pt x="-164" y="897" on="0"/>
        <pt x="-136" y="897" on="1"/>
        <pt x="-108" y="897" on="0"/>
        <pt x="-72" y="860" on="0"/>
        <pt x="-72" y="834" on="1"/>
        <pt x="-72" y="808" on="0"/>
        <pt x="-108" y="773" on="0"/>
        <pt x="-136" y="773" on="1"/>
        <pt x="-164" y="773" on="0"/>
        <pt x="-200" y="808" on="0"/>
      </contour>
      <contour>
        <pt x="-135" y="636" on="1"/>
        <pt x="-175" y="636" on="0"/>
        <pt x="-246" y="658" on="0"/>
        <pt x="-300" y="702" on="0"/>
        <pt x="-331" y="769" on="0"/>
        <pt x="-331" y="815" on="1"/>
        <pt x="-331" y="829" on="1"/>
        <pt x="-236" y="829" on="1"/>
        <pt x="-231" y="785" on="0"/>
        <pt x="-181" y="737" on="0"/>
        <pt x="-136" y="737" on="1"/>
        <pt x="-94" y="737" on="0"/>
        <pt x="-40" y="787" on="0"/>
        <pt x="-38" y="829" on="1"/>
        <pt x="57" y="829" on="1"/>
        <pt x="57" y="816" on="1"/>
        <pt x="57" y="770" on="0"/>
        <pt x="27" y="703" on="0"/>
        <pt x="-24" y="658" on="0"/>
        <pt x="-95" y="636" on="0"/>
      </contour>
    </TTGlyph>
    <TTGlyph name="AddakBindi.gm.alt" xMin="-438" yMin="675" xMax="-142" yMax="865">
      <contour>
        <pt x="-336" y="815" on="1"/>
        <pt x="-336" y="836" on="0"/>
        <pt x="-310" y="865" on="0"/>
        <pt x="-289" y="865" on="1"/>
        <pt x="-268" y="865" on="0"/>
        <pt x="-242" y="836" on="0"/>
        <pt x="-242" y="815" on="1"/>
        <pt x="-242" y="794" on="0"/>
        <pt x="-268" y="765" on="0"/>
        <pt x="-289" y="765" on="1"/>
        <pt x="-310" y="765" on="0"/>
        <pt x="-336" y="794" on="0"/>
      </contour>
      <contour>
        <pt x="-289" y="675" on="1"/>
        <pt x="-361" y="675" on="0"/>
        <pt x="-438" y="750" on="0"/>
        <pt x="-438" y="811" on="1"/>
        <pt x="-438" y="822" on="1"/>
        <pt x="-361" y="826" on="1"/>
        <pt x="-361" y="782" on="0"/>
        <pt x="-319" y="741" on="0"/>
        <pt x="-290" y="741" on="1"/>
        <pt x="-258" y="741" on="0"/>
        <pt x="-218" y="784" on="0"/>
        <pt x="-218" y="826" on="1"/>
        <pt x="-142" y="822" on="1"/>
        <pt x="-142" y="809" on="1"/>
        <pt x="-142" y="750" on="0"/>
        <pt x="-217" y="675" on="0"/>
      </contour>
    </TTGlyph>
    <TTGlyph name="AddhaMa.gm" xMin="30" yMin="0" xMax="509" yMax="597">
      <contour>
        <pt x="30" y="317" on="1"/>
        <pt x="291" y="317" on="1"/>
        <pt x="291" y="597" on="1"/>
        <pt x="509" y="597" on="1"/>
        <pt x="509" y="494" on="1"/>
        <pt x="424" y="494" on="1"/>
        <pt x="424" y="0" on="1"/>
        <pt x="291" y="0" on="1"/>
        <pt x="291" y="213" on="1"/>
        <pt x="30" y="213" on="1"/>
      </contour>
    </TTGlyph>
    <TTGlyph name="AddhaTha.gm" xMin="-30" yMin="0" xMax="527" yMax="597">
      <contour>
        <pt x="-30" y="597" on="1"/>
        <pt x="527" y="597" on="1"/>
        <pt x="527" y="494" on="1"/>
        <pt x="442" y="494" on="1"/>
        <pt x="442" y="0" on="1"/>
        <pt x="309" y="0" on="1"/>
        <pt x="309" y="104" on="1"/>
        <pt x="286" y="93" on="0"/>
        <pt x="231" y="82" on="0"/>
        <pt x="194" y="82" on="1"/>
        <pt x="77" y="82" on="0"/>
        <pt x="2" y="137" on="1"/>
        <pt x="66" y="229" on="1"/>
        <pt x="122" y="187" on="0"/>
        <pt x="200" y="187" on="1"/>
        <pt x="232" y="187" on="0"/>
        <pt x="286" y="199" on="0"/>
        <pt x="309" y="213" on="1"/>
        <pt x="309" y="494" on="1"/>
        <pt x="-30" y="494" on="1"/>
      </contour>
    </TTGlyph>
    <TTGlyph name="AddhaYa.gm" xMin="-30" yMin="0" xMax="673" yMax="597">
      <contour>
        <pt x="-30" y="597" on="1"/>
        <pt x="673" y="597" on="1"/>
        <pt x="673" y="494" on="1"/>
        <pt x="588" y="494" on="1"/>
        <pt x="588" y="0" on="1"/>
        <pt x="455" y="0" on="1"/>
        <pt x="455" y="275" on="1"/>
        <pt x="347" y="275" on="1"/>
        <pt x="347" y="84" on="1"/>
        <pt x="326" y="78" on="0"/>
        <pt x="267" y="67" on="0"/>
        <pt x="222" y="67" on="1"/>
        <pt x="162" y="67" on="0"/>
        <pt x="41" y="100" on="0"/>
        <pt x="0" y="134" on="1"/>
        <pt x="62" y="221" on="1"/>
        <pt x="100" y="194" on="0"/>
        <pt x="178" y="173" on="0"/>
        <pt x="214" y="172" on="1"/>
        <pt x="214" y="379" on="1"/>
        <pt x="455" y="379" on="1"/>
        <pt x="455" y="494" on="1"/>
        <pt x="-30" y="494" on="1"/>
      </contour>
    </TTGlyph>
    <TTGlyph name="Adieresis" xMin="16" yMin="0" xMax="634" yMax="814">
      <contour>
        <pt x="154" y="748" on="1"/>
        <pt x="154" y="776" on="0"/>
        <pt x="193" y="814" on="0"/>
        <pt x="222" y="814" on="1"/>
        <pt x="251" y="814" on="0"/>
        <pt x="289" y="776" on="0"/>
        <pt x="289" y="748" on="1"/>
        <pt x="289" y="719" on="0"/>
        <pt x="251" y="679" on="0"/>
        <pt x="222" y="679" on="1"/>
        <pt x="193" y="679" on="0"/>
        <pt x="154" y="719" on="0"/>
      </contour>
      <contour>
        <pt x="359" y="748" on="1"/>
        <pt x="359" y="776" on="0"/>
        <pt x="398" y="814" on="0"/>
        <pt x="427" y="814" on="1"/>
        <pt x="456" y="814" on="0"/>
        <pt x="494" y="776" on="0"/>
        <pt x="494" y="748" on="1"/>
        <pt x="494" y="719" on="0"/>
        <pt x="456" y="679" on="0"/>
        <pt x="427" y="679" on="1"/>
        <pt x="398" y="679" on="0"/>
        <pt x="359" y="719" on="0"/>
      </contour>
      <contour>
        <pt x="245" y="630" on="1"/>
        <pt x="407" y="630" on="1"/>
        <pt x="634" y="0" on="1"/>
        <pt x="473" y="0" on="1"/>
        <pt x="430" y="135" on="1"/>
        <pt x="218" y="135" on="1"/>
        <pt x="175" y="0" on="1"/>
        <pt x="16" y="0" on="1"/>
      </contour>
      <contour>
        <pt x="251" y="245" on="1"/>
        <pt x="395" y="245" on="1"/>
        <pt x="371" y="321" on="1"/>
        <pt x="359" y="358" on="0"/>
        <pt x="334" y="442" on="0"/>
        <pt x="325" y="477" on="1"/>
        <pt x="323" y="477" on="1"/>
        <pt x="313" y="442" on="0"/>
        <pt x="287" y="360" on="0"/>
        <pt x="275" y="321" on="1"/>
      </contour>
    </TTGlyph>
    <TTGlyph name="Agrave" xMin="16" yMin="0" xMax="634" yMax="814">
      <contour>
        <pt x="150" y="814" on="1"/>
        <pt x="308" y="814" on="1"/>
        <pt x="388" y="690" on="1"/>
        <pt x="266" y="690" on="1"/>
      </contour>
      <contour>
        <pt x="245" y="630" on="1"/>
        <pt x="407" y="630" on="1"/>
        <pt x="634" y="0" on="1"/>
        <pt x="473" y="0" on="1"/>
        <pt x="430" y="135" on="1"/>
        <pt x="218" y="135" on="1"/>
        <pt x="175" y="0" on="1"/>
        <pt x="16" y="0" on="1"/>
      </contour>
      <contour>
        <pt x="251" y="245" on="1"/>
        <pt x="395" y="245" on="1"/>
        <pt x="371" y="321" on="1"/>
        <pt x="359" y="358" on="0"/>
        <pt x="334" y="442" on="0"/>
        <pt x="325" y="477" on="1"/>
        <pt x="323" y="477" on="1"/>
        <pt x="313" y="442" on="0"/>
        <pt x="287" y="360" on="0"/>
        <pt x="275" y="321" on="1"/>
      </contour>
    </TTGlyph>
    <TTGlyph name="Amacron" xMin="16" yMin="0" xMax="634" yMax="772">
      <contour>
        <pt x="454" y="772" on="1"/>
        <pt x="454" y="690" on="1"/>
        <pt x="194" y="690" on="1"/>
        <pt x="194" y="772" on="1"/>
      </contour>
      <contour>
        <pt x="245" y="630" on="1"/>
        <pt x="407" y="630" on="1"/>
        <pt x="634" y="0" on="1"/>
        <pt x="473" y="0" on="1"/>
        <pt x="430" y="135" on="1"/>
        <pt x="218" y="135" on="1"/>
        <pt x="175" y="0" on="1"/>
        <pt x="16" y="0" on="1"/>
      </contour>
      <contour>
        <pt x="251" y="245" on="1"/>
        <pt x="395" y="245" on="1"/>
        <pt x="371" y="321" on="1"/>
        <pt x="359" y="358" on="0"/>
        <pt x="334" y="442" on="0"/>
        <pt x="325" y="477" on="1"/>
        <pt x="323" y="477" on="1"/>
        <pt x="313" y="442" on="0"/>
        <pt x="287" y="360" on="0"/>
        <pt x="275" y="321" on="1"/>
      </contour>
    </TTGlyph>
    <TTGlyph name="Aogonek" xMin="16" yMin="-206" xMax="634" yMax="630">
      <contour>
        <pt x="245" y="630" on="1"/>
        <pt x="407" y="630" on="1"/>
        <pt x="634" y="0" on="1"/>
        <pt x="568" y="0" on="1"/>
        <pt x="551" y="-17" on="0"/>
        <pt x="528" y="-55" on="0"/>
        <pt x="528" y="-75" on="1"/>
        <pt x="528" y="-94" on="0"/>
        <pt x="549" y="-116" on="0"/>
        <pt x="569" y="-116" on="1"/>
        <pt x="582" y="-116" on="0"/>
        <pt x="600" y="-111" on="0"/>
        <pt x="608" y="-108" on="1"/>
        <pt x="628" y="-184" on="1"/>
        <pt x="612" y="-194" on="0"/>
        <pt x="567" y="-206" on="0"/>
        <pt x="541" y="-206" on="1"/>
        <pt x="495" y="-206" on="0"/>
        <pt x="434" y="-151" on="0"/>
        <pt x="434" y="-104" on="1"/>
        <pt x="434" y="-66" on="0"/>
        <pt x="460" y="-17" on="0"/>
        <pt x="473" y="0" on="1"/>
        <pt x="430" y="135" on="1"/>
        <pt x="218" y="135" on="1"/>
        <pt x="175" y="0" on="1"/>
        <pt x="16" y="0" on="1"/>
      </contour>
      <contour>
        <pt x="251" y="245" on="1"/>
        <pt x="395" y="245" on="1"/>
        <pt x="371" y="321" on="1"/>
        <pt x="359" y="358" on="0"/>
        <pt x="334" y="442" on="0"/>
        <pt x="325" y="477" on="1"/>
        <pt x="323" y="477" on="1"/>
        <pt x="313" y="442" on="0"/>
        <pt x="287" y="360" on="0"/>
        <pt x="275" y="321" on="1"/>
      </contour>
    </TTGlyph>
    <TTGlyph name="Aring" xMin="16" yMin="0" xMax="634" yMax="856">
      <contour>
        <pt x="216" y="763" on="1"/>
        <pt x="216" y="809" on="0"/>
        <pt x="276" y="856" on="0"/>
        <pt x="323" y="856" on="1"/>
        <pt x="370" y="856" on="0"/>
        <pt x="430" y="809" on="0"/>
        <pt x="430" y="763" on="1"/>
        <pt x="430" y="740" on="0"/>
        <pt x="413" y="705" on="0"/>
        <pt x="384" y="682" on="0"/>
        <pt x="345" y="670" on="0"/>
        <pt x="323" y="670" on="1"/>
        <pt x="278" y="670" on="0"/>
        <pt x="216" y="718" on="0"/>
      </contour>
      <contour>
        <pt x="285" y="763" on="1"/>
        <pt x="285" y="742" on="0"/>
        <pt x="306" y="719" on="0"/>
        <pt x="323" y="719" on="1"/>
        <pt x="340" y="719" on="0"/>
        <pt x="361" y="742" on="0"/>
        <pt x="361" y="763" on="1"/>
        <pt x="361" y="784" on="0"/>
        <pt x="340" y="807" on="0"/>
        <pt x="323" y="807" on="1"/>
        <pt x="306" y="807" on="0"/>
        <pt x="285" y="784" on="0"/>
      </contour>
      <contour>
        <pt x="245" y="630" on="1"/>
        <pt x="407" y="630" on="1"/>
        <pt x="634" y="0" on="1"/>
        <pt x="473" y="0" on="1"/>
        <pt x="430" y="135" on="1"/>
        <pt x="218" y="135" on="1"/>
        <pt x="175" y="0" on="1"/>
        <pt x="16" y="0" on="1"/>
      </contour>
      <contour>
        <pt x="251" y="245" on="1"/>
        <pt x="395" y="245" on="1"/>
        <pt x="371" y="321" on="1"/>
        <pt x="359" y="358" on="0"/>
        <pt x="334" y="442" on="0"/>
        <pt x="325" y="477" on="1"/>
        <pt x="323" y="477" on="1"/>
        <pt x="313" y="442" on="0"/>
        <pt x="287" y="360" on="0"/>
        <pt x="275" y="321" on="1"/>
      </contour>
    </TTGlyph>
    <TTGlyph name="Asmall" xMin="16" yMin="0" xMax="516" yMax="480">
      <contour>
        <pt x="185" y="480" on="1"/>
        <pt x="348" y="480" on="1"/>
        <pt x="516" y="0" on="1"/>
        <pt x="368" y="0" on="1"/>
        <pt x="339" y="93" on="1"/>
        <pt x="191" y="93" on="1"/>
        <pt x="162" y="0" on="1"/>
        <pt x="16" y="0" on="1"/>
      </contour>
      <contour>
        <pt x="265" y="345" on="1"/>
        <pt x="260" y="325" on="0"/>
        <pt x="245" y="270" on="0"/>
        <pt x="238" y="249" on="1"/>
        <pt x="220" y="191" on="1"/>
        <pt x="310" y="191" on="1"/>
        <pt x="292" y="249" on="1"/>
        <pt x="285" y="271" on="0"/>
        <pt x="271" y="325" on="0"/>
        <pt x="267" y="345" on="1"/>
      </contour>
    </TTGlyph>
    <TTGlyph name="Atilde" xMin="16" yMin="0" xMax="634" yMax="814">
      <contour>
        <pt x="171" y="690" on="1"/>
        <pt x="171" y="715" on="0"/>
        <pt x="183" y="759" on="0"/>
        <pt x="207" y="792" on="0"/>
        <pt x="241" y="811" on="0"/>
        <pt x="263" y="811" on="1"/>
        <pt x="281" y="811" on="0"/>
        <pt x="310" y="801" on="0"/>
        <pt x="336" y="788" on="0"/>
        <pt x="360" y="778" on="0"/>
        <pt x="374" y="778" on="1"/>
        <pt x="388" y="778" on="0"/>
        <pt x="403" y="797" on="0"/>
        <pt x="404" y="814" on="1"/>
        <pt x="474" y="814" on="1"/>
        <pt x="474" y="759" on="0"/>
        <pt x="426" y="695" on="0"/>
        <pt x="386" y="695" on="1"/>
        <pt x="367" y="695" on="0"/>
        <pt x="334" y="705" on="0"/>
        <pt x="305" y="717" on="0"/>
        <pt x="280" y="727" on="0"/>
        <pt x="270" y="727" on="1"/>
        <pt x="254" y="727" on="0"/>
        <pt x="242" y="705" on="0"/>
        <pt x="241" y="690" on="1"/>
      </contour>
      <contour>
        <pt x="245" y="630" on="1"/>
        <pt x="407" y="630" on="1"/>
        <pt x="634" y="0" on="1"/>
        <pt x="473" y="0" on="1"/>
        <pt x="430" y="135" on="1"/>
        <pt x="218" y="135" on="1"/>
        <pt x="175" y="0" on="1"/>
        <pt x="16" y="0" on="1"/>
      </contour>
      <contour>
        <pt x="251" y="245" on="1"/>
        <pt x="395" y="245" on="1"/>
        <pt x="371" y="321" on="1"/>
        <pt x="359" y="358" on="0"/>
        <pt x="334" y="442" on="0"/>
        <pt x="325" y="477" on="1"/>
        <pt x="323" y="477" on="1"/>
        <pt x="313" y="442" on="0"/>
        <pt x="287" y="360" on="0"/>
        <pt x="275" y="321" on="1"/>
      </contour>
    </TTGlyph>
    <TTGlyph name="B" xMin="66" yMin="0" xMax="543" yMax="630">
      <contour>
        <pt x="303" y="630" on="1"/>
        <pt x="404" y="630" on="0"/>
        <pt x="524" y="542" on="0"/>
        <pt x="524" y="464" on="1"/>
        <pt x="524" y="435" on="0"/>
        <pt x="503" y="389" on="0"/>
        <pt x="469" y="356" on="0"/>
        <pt x="428" y="334" on="0"/>
        <pt x="408" y="330" on="1"/>
        <pt x="435" y="325" on="0"/>
        <pt x="484" y="302" on="0"/>
        <pt x="521" y="265" on="0"/>
        <pt x="543" y="213" on="0"/>
        <pt x="543" y="179" on="1"/>
        <pt x="543" y="140" on="0"/>
        <pt x="509" y="74" on="0"/>
        <pt x="445" y="27" on="0"/>
        <pt x="354" y="0" on="0"/>
        <pt x="298" y="0" on="1"/>
        <pt x="66" y="0" on="1"/>
        <pt x="66" y="630" on="1"/>
      </contour>
      <contour>
        <pt x="218" y="382" on="1"/>
        <pt x="279" y="382" on="1"/>
        <pt x="322" y="382" on="0"/>
        <pt x="368" y="421" on="0"/>
        <pt x="368" y="453" on="1"/>
        <pt x="368" y="483" on="0"/>
        <pt x="324" y="516" on="0"/>
        <pt x="280" y="516" on="1"/>
        <pt x="218" y="516" on="1"/>
      </contour>
      <contour>
        <pt x="218" y="114" on="1"/>
        <pt x="277" y="114" on="1"/>
        <pt x="326" y="114" on="0"/>
        <pt x="387" y="150" on="0"/>
        <pt x="387" y="193" on="1"/>
        <pt x="387" y="233" on="0"/>
        <pt x="327" y="269" on="0"/>
        <pt x="278" y="269" on="1"/>
        <pt x="218" y="269" on="1"/>
      </contour>
    </TTGlyph>
    <TTGlyph name="Ba.gm" xMin="-40" yMin="0" xMax="645" yMax="597">
      <contour>
        <pt x="427" y="83" on="1"/>
        <pt x="400" y="71" on="0"/>
        <pt x="335" y="59" on="0"/>
        <pt x="303" y="59" on="1"/>
        <pt x="214" y="59" on="0"/>
        <pt x="68" y="130" on="0"/>
        <pt x="30" y="194" on="1"/>
        <pt x="49" y="239" on="0"/>
        <pt x="118" y="314" on="0"/>
        <pt x="166" y="335" on="1"/>
        <pt x="116" y="362" on="0"/>
        <pt x="52" y="445" on="0"/>
        <pt x="40" y="494" on="1"/>
        <pt x="-40" y="494" on="1"/>
        <pt x="-40" y="597" on="1"/>
        <pt x="645" y="597" on="1"/>
        <pt x="645" y="494" on="1"/>
        <pt x="560" y="494" on="1"/>
        <pt x="560" y="0" on="1"/>
        <pt x="427" y="0" on="1"/>
      </contour>
      <contour>
        <pt x="427" y="286" on="1"/>
        <pt x="340" y="286" on="1"/>
        <pt x="274" y="286" on="0"/>
        <pt x="198" y="246" on="0"/>
        <pt x="180" y="212" on="1"/>
        <pt x="200" y="193" on="0"/>
        <pt x="268" y="164" on="0"/>
        <pt x="319" y="164" on="1"/>
        <pt x="346" y="164" on="0"/>
        <pt x="406" y="178" on="0"/>
        <pt x="427" y="191" on="1"/>
      </contour>
      <contour>
        <pt x="427" y="386" on="1"/>
        <pt x="427" y="494" on="1"/>
        <pt x="183" y="494" on="1"/>
        <pt x="188" y="475" on="0"/>
        <pt x="210" y="437" on="0"/>
        <pt x="243" y="407" on="0"/>
        <pt x="286" y="387" on="0"/>
        <pt x="312" y="386" on="1"/>
      </contour>
    </TTGlyph>
    <TTGlyph name="BaVirama.gm" xMin="-40" yMin="-325" xMax="737" yMax="597">
      <contour>
        <pt x="427" y="83" on="1"/>
        <pt x="400" y="71" on="0"/>
        <pt x="335" y="59" on="0"/>
        <pt x="303" y="59" on="1"/>
        <pt x="214" y="59" on="0"/>
        <pt x="68" y="130" on="0"/>
        <pt x="30" y="194" on="1"/>
        <pt x="49" y="239" on="0"/>
        <pt x="118" y="314" on="0"/>
        <pt x="166" y="335" on="1"/>
        <pt x="116" y="362" on="0"/>
        <pt x="52" y="445" on="0"/>
        <pt x="40" y="494" on="1"/>
        <pt x="-40" y="494" on="1"/>
        <pt x="-40" y="597" on="1"/>
        <pt x="645" y="597" on="1"/>
        <pt x="645" y="494" on="1"/>
        <pt x="560" y="494" on="1"/>
        <pt x="560" y="0" on="1"/>
        <pt x="427" y="0" on="1"/>
      </contour>
      <contour>
        <pt x="427" y="286" on="1"/>
        <pt x="340" y="286" on="1"/>
        <pt x="274" y="286" on="0"/>
        <pt x="198" y="246" on="0"/>
        <pt x="180" y="212" on="1"/>
        <pt x="200" y="193" on="0"/>
        <pt x="268" y="164" on="0"/>
        <pt x="319" y="164" on="1"/>
        <pt x="346" y="164" on="0"/>
        <pt x="406" y="178" on="0"/>
        <pt x="427" y="191" on="1"/>
      </contour>
      <contour>
        <pt x="427" y="386" on="1"/>
        <pt x="427" y="494" on="1"/>
        <pt x="183" y="494" on="1"/>
        <pt x="188" y="475" on="0"/>
        <pt x="210" y="437" on="0"/>
        <pt x="243" y="407" on="0"/>
        <pt x="286" y="387" on="0"/>
        <pt x="312" y="386" on="1"/>
      </contour>
      <contour>
        <pt x="737" y="-241" on="1"/>
        <pt x="665" y="-325" on="1"/>
        <pt x="421" y="-153" on="1"/>
        <pt x="503" y="-50" on="1"/>
      </contour>
    </TTGlyph>
    <TTGlyph name="Bha.gm" xMin="-20" yMin="-12" xMax="609" yMax="597">
      <contour>
        <pt x="-20" y="597" on="1"/>
        <pt x="609" y="597" on="1"/>
        <pt x="609" y="494" on="1"/>
        <pt x="540" y="494" on="1"/>
        <pt x="535" y="440" on="0"/>
        <pt x="502" y="351" on="0"/>
        <pt x="479" y="319" on="1"/>
        <pt x="506" y="293" on="0"/>
        <pt x="541" y="226" on="0"/>
        <pt x="541" y="188" on="1"/>
        <pt x="541" y="139" on="0"/>
        <pt x="495" y="65" on="0"/>
        <pt x="414" y="14" on="0"/>
        <pt x="305" y="-12" on="0"/>
        <pt x="243" y="-12" on="1"/>
        <pt x="176" y="-12" on="0"/>
        <pt x="64" y="14" on="0"/>
        <pt x="24" y="35" on="1"/>
        <pt x="64" y="132" on="1"/>
        <pt x="93" y="118" on="0"/>
        <pt x="182" y="92" on="0"/>
        <pt x="241" y="92" on="1"/>
        <pt x="316" y="92" on="0"/>
        <pt x="398" y="151" on="0"/>
        <pt x="398" y="196" on="1"/>
        <pt x="398" y="210" on="0"/>
        <pt x="393" y="230" on="0"/>
        <pt x="388" y="238" on="1"/>
        <pt x="359" y="212" on="0"/>
        <pt x="268" y="179" on="0"/>
        <pt x="218" y="179" on="1"/>
        <pt x="179" y="179" on="0"/>
        <pt x="113" y="197" on="0"/>
        <pt x="65" y="230" on="0"/>
        <pt x="39" y="278" on="0"/>
        <pt x="39" y="308" on="1"/>
        <pt x="39" y="336" on="0"/>
        <pt x="65" y="384" on="0"/>
        <pt x="112" y="420" on="0"/>
        <pt x="177" y="440" on="0"/>
        <pt x="217" y="440" on="1"/>
        <pt x="268" y="440" on="0"/>
        <pt x="349" y="410" on="0"/>
        <pt x="377" y="391" on="1"/>
        <pt x="402" y="439" on="0"/>
        <pt x="408" y="494" on="1"/>
        <pt x="-20" y="494" on="1"/>
      </contour>
      <contour>
        <pt x="227" y="272" on="1"/>
        <pt x="254" y="272" on="0"/>
        <pt x="305" y="291" on="0"/>
        <pt x="326" y="313" on="1"/>
        <pt x="306" y="327" on="0"/>
        <pt x="257" y="345" on="0"/>
        <pt x="231" y="345" on="1"/>
        <pt x="204" y="345" on="0"/>
        <pt x="169" y="326" on="0"/>
        <pt x="169" y="307" on="1"/>
        <pt x="169" y="290" on="0"/>
        <pt x="201" y="272" on="0"/>
      </contour>
    </TTGlyph>
    <TTGlyph name="BhaVirama.gm" xMin="-23" yMin="-325" xMax="606" yMax="597">
      <contour>
        <pt x="-23" y="597" on="1"/>
        <pt x="606" y="597" on="1"/>
        <pt x="606" y="494" on="1"/>
        <pt x="537" y="494" on="1"/>
        <pt x="532" y="440" on="0"/>
        <pt x="499" y="351" on="0"/>
        <pt x="476" y="319" on="1"/>
        <pt x="503" y="293" on="0"/>
        <pt x="538" y="226" on="0"/>
        <pt x="538" y="188" on="1"/>
        <pt x="538" y="139" on="0"/>
        <pt x="492" y="65" on="0"/>
        <pt x="411" y="14" on="0"/>
        <pt x="302" y="-12" on="0"/>
        <pt x="240" y="-12" on="1"/>
        <pt x="173" y="-12" on="0"/>
        <pt x="61" y="14" on="0"/>
        <pt x="21" y="35" on="1"/>
        <pt x="61" y="132" on="1"/>
        <pt x="90" y="118" on="0"/>
        <pt x="179" y="92" on="0"/>
        <pt x="238" y="92" on="1"/>
        <pt x="313" y="92" on="0"/>
        <pt x="395" y="151" on="0"/>
        <pt x="395" y="196" on="1"/>
        <pt x="395" y="210" on="0"/>
        <pt x="390" y="230" on="0"/>
        <pt x="385" y="238" on="1"/>
        <pt x="356" y="212" on="0"/>
        <pt x="265" y="179" on="0"/>
        <pt x="215" y="179" on="1"/>
        <pt x="176" y="179" on="0"/>
        <pt x="110" y="197" on="0"/>
        <pt x="62" y="230" on="0"/>
        <pt x="36" y="278" on="0"/>
        <pt x="36" y="308" on="1"/>
        <pt x="36" y="336" on="0"/>
        <pt x="62" y="384" on="0"/>
        <pt x="109" y="420" on="0"/>
        <pt x="174" y="440" on="0"/>
        <pt x="214" y="440" on="1"/>
        <pt x="265" y="440" on="0"/>
        <pt x="346" y="410" on="0"/>
        <pt x="374" y="391" on="1"/>
        <pt x="399" y="439" on="0"/>
        <pt x="405" y="494" on="1"/>
        <pt x="-23" y="494" on="1"/>
      </contour>
      <contour>
        <pt x="224" y="272" on="1"/>
        <pt x="251" y="272" on="0"/>
        <pt x="302" y="291" on="0"/>
        <pt x="323" y="313" on="1"/>
        <pt x="303" y="327" on="0"/>
        <pt x="254" y="345" on="0"/>
        <pt x="228" y="345" on="1"/>
        <pt x="201" y="345" on="0"/>
        <pt x="166" y="326" on="0"/>
        <pt x="166" y="307" on="1"/>
        <pt x="166" y="290" on="0"/>
        <pt x="198" y="272" on="0"/>
      </contour>
      <contour>
        <pt x="562" y="-241" on="1"/>
        <pt x="490" y="-325" on="1"/>
        <pt x="246" y="-153" on="1"/>
        <pt x="328" y="-50" on="1"/>
      </contour>
    </TTGlyph>
    <TTGlyph name="Bindi.gm" xMin="-218" yMin="670" xMax="-47" yMax="836">
      <contour>
        <pt x="-218" y="753" on="1"/>
        <pt x="-218" y="788" on="0"/>
        <pt x="-169" y="836" on="0"/>
        <pt x="-132" y="836" on="1"/>
        <pt x="-95" y="836" on="0"/>
        <pt x="-47" y="788" on="0"/>
        <pt x="-47" y="753" on="1"/>
        <pt x="-47" y="718" on="0"/>
        <pt x="-95" y="670" on="0"/>
        <pt x="-132" y="670" on="1"/>
        <pt x="-169" y="670" on="0"/>
        <pt x="-218" y="718" on="0"/>
      </contour>
    </TTGlyph>
    <TTGlyph name="Bindi.gm.alt" xMin="-222" yMin="691" xMax="-92" yMax="821">
      <contour>
        <pt x="-222" y="756" on="1"/>
        <pt x="-222" y="782" on="0"/>
        <pt x="-186" y="821" on="0"/>
        <pt x="-157" y="821" on="1"/>
        <pt x="-129" y="821" on="0"/>
        <pt x="-92" y="782" on="0"/>
        <pt x="-92" y="756" on="1"/>
        <pt x="-92" y="729" on="0"/>
        <pt x="-129" y="691" on="0"/>
        <pt x="-157" y="691" on="1"/>
        <pt x="-186" y="691" on="0"/>
        <pt x="-222" y="729" on="0"/>
      </contour>
    </TTGlyph>
    <TTGlyph name="Bsmall" xMin="58" yMin="0" xMax="470" yMax="480">
      <contour>
        <pt x="274" y="480" on="1"/>
        <pt x="363" y="480" on="0"/>
        <pt x="449" y="410" on="0"/>
        <pt x="449" y="353" on="1"/>
        <pt x="449" y="315" on="0"/>
        <pt x="405" y="265" on="0"/>
        <pt x="367" y="253" on="1"/>
        <pt x="417" y="242" on="0"/>
        <pt x="470" y="183" on="0"/>
        <pt x="470" y="139" on="1"/>
        <pt x="470" y="79" on="0"/>
        <pt x="372" y="0" on="0"/>
        <pt x="273" y="0" on="1"/>
        <pt x="58" y="0" on="1"/>
        <pt x="58" y="480" on="1"/>
      </contour>
      <contour>
        <pt x="206" y="298" on="1"/>
        <pt x="245" y="298" on="1"/>
        <pt x="267" y="298" on="0"/>
        <pt x="299" y="315" on="0"/>
        <pt x="299" y="335" on="1"/>
        <pt x="299" y="353" on="0"/>
        <pt x="273" y="372" on="0"/>
        <pt x="243" y="372" on="1"/>
        <pt x="206" y="372" on="1"/>
      </contour>
      <contour>
        <pt x="206" y="108" on="1"/>
        <pt x="249" y="108" on="1"/>
        <pt x="285" y="108" on="0"/>
        <pt x="318" y="128" on="0"/>
        <pt x="318" y="152" on="1"/>
        <pt x="318" y="169" on="0"/>
        <pt x="289" y="192" on="0"/>
        <pt x="253" y="192" on="1"/>
        <pt x="206" y="192" on="1"/>
      </contour>
    </TTGlyph>
    <TTGlyph name="C" xMin="38" yMin="-11" xMax="548" yMax="642">
      <contour>
        <pt x="389" y="105" on="1"/>
        <pt x="434" y="105" on="0"/>
        <pt x="496" y="121" on="0"/>
        <pt x="517" y="134" on="1"/>
        <pt x="547" y="25" on="1"/>
        <pt x="527" y="13" on="0"/>
        <pt x="438" y="-11" on="0"/>
        <pt x="373" y="-11" on="1"/>
        <pt x="299" y="-11" on="0"/>
        <pt x="175" y="35" on="0"/>
        <pt x="87" y="120" on="0"/>
        <pt x="38" y="241" on="0"/>
        <pt x="38" y="316" on="1"/>
        <pt x="38" y="389" on="0"/>
        <pt x="85" y="510" on="0"/>
        <pt x="172" y="595" on="0"/>
        <pt x="297" y="642" on="0"/>
        <pt x="375" y="642" on="1"/>
        <pt x="441" y="642" on="0"/>
        <pt x="524" y="617" on="0"/>
        <pt x="548" y="604" on="1"/>
        <pt x="514" y="493" on="1"/>
        <pt x="491" y="506" on="0"/>
        <pt x="428" y="526" on="0"/>
        <pt x="390" y="526" on="1"/>
        <pt x="350" y="526" on="0"/>
        <pt x="280" y="503" on="0"/>
        <pt x="228" y="453" on="0"/>
        <pt x="198" y="374" on="0"/>
        <pt x="198" y="317" on="1"/>
        <pt x="198" y="264" on="0"/>
        <pt x="227" y="184" on="0"/>
        <pt x="279" y="131" on="0"/>
        <pt x="348" y="105" on="0"/>
      </contour>
    </TTGlyph>
    <TTGlyph name="Ca.gm" xMin="-20" yMin="-12" xMax="654" yMax="597">
      <contour>
        <pt x="-20" y="597" on="1"/>
        <pt x="654" y="597" on="1"/>
        <pt x="654" y="494" on="1"/>
        <pt x="566" y="494" on="1"/>
        <pt x="566" y="307" on="1"/>
        <pt x="579" y="281" on="0"/>
        <pt x="602" y="220" on="0"/>
        <pt x="602" y="186" on="1"/>
        <pt x="602" y="138" on="0"/>
        <pt x="566" y="64" on="0"/>
        <pt x="503" y="14" on="0"/>
        <pt x="417" y="-12" on="0"/>
        <pt x="367" y="-12" on="1"/>
        <pt x="313" y="-12" on="0"/>
        <pt x="215" y="19" on="0"/>
        <pt x="139" y="84" on="0"/>
        <pt x="91" y="184" on="0"/>
        <pt x="87" y="253" on="1"/>
        <pt x="61" y="258" on="0"/>
        <pt x="18" y="295" on="0"/>
        <pt x="18" y="333" on="1"/>
        <pt x="18" y="356" on="0"/>
        <pt x="38" y="397" on="0"/>
        <pt x="74" y="427" on="0"/>
        <pt x="123" y="445" on="0"/>
        <pt x="151" y="445" on="1"/>
        <pt x="195" y="445" on="0"/>
        <pt x="218" y="425" on="1"/>
        <pt x="218" y="362" on="1"/>
        <pt x="434" y="362" on="1"/>
        <pt x="434" y="494" on="1"/>
        <pt x="-20" y="494" on="1"/>
      </contour>
      <contour>
        <pt x="469" y="186" on="1"/>
        <pt x="469" y="209" on="0"/>
        <pt x="458" y="244" on="0"/>
        <pt x="450" y="259" on="1"/>
        <pt x="218" y="259" on="1"/>
        <pt x="219" y="220" on="0"/>
        <pt x="243" y="158" on="0"/>
        <pt x="283" y="115" on="0"/>
        <pt x="336" y="92" on="0"/>
        <pt x="366" y="92" on="1"/>
        <pt x="415" y="92" on="0"/>
        <pt x="469" y="144" on="0"/>
      </contour>
    </TTGlyph>
    <TTGlyph name="CaVirama.gm" xMin="-20" yMin="-325" xMax="654" yMax="597">
      <contour>
        <pt x="-20" y="597" on="1"/>
        <pt x="654" y="597" on="1"/>
        <pt x="654" y="494" on="1"/>
        <pt x="566" y="494" on="1"/>
        <pt x="566" y="307" on="1"/>
        <pt x="579" y="281" on="0"/>
        <pt x="602" y="220" on="0"/>
        <pt x="602" y="186" on="1"/>
        <pt x="602" y="138" on="0"/>
        <pt x="566" y="64" on="0"/>
        <pt x="503" y="14" on="0"/>
        <pt x="417" y="-12" on="0"/>
        <pt x="367" y="-12" on="1"/>
        <pt x="313" y="-12" on="0"/>
        <pt x="215" y="19" on="0"/>
        <pt x="139" y="84" on="0"/>
        <pt x="91" y="184" on="0"/>
        <pt x="87" y="253" on="1"/>
        <pt x="61" y="258" on="0"/>
        <pt x="18" y="295" on="0"/>
        <pt x="18" y="333" on="1"/>
        <pt x="18" y="356" on="0"/>
        <pt x="38" y="397" on="0"/>
        <pt x="74" y="427" on="0"/>
        <pt x="123" y="445" on="0"/>
        <pt x="151" y="445" on="1"/>
        <pt x="195" y="445" on="0"/>
        <pt x="218" y="425" on="1"/>
        <pt x="218" y="362" on="1"/>
        <pt x="434" y="362" on="1"/>
        <pt x="434" y="494" on="1"/>
        <pt x="-20" y="494" on="1"/>
      </contour>
      <contour>
        <pt x="469" y="186" on="1"/>
        <pt x="469" y="209" on="0"/>
        <pt x="458" y="244" on="0"/>
        <pt x="450" y="259" on="1"/>
        <pt x="218" y="259" on="1"/>
        <pt x="219" y="220" on="0"/>
        <pt x="243" y="158" on="0"/>
        <pt x="283" y="115" on="0"/>
        <pt x="336" y="92" on="0"/>
        <pt x="366" y="92" on="1"/>
        <pt x="415" y="92" on="0"/>
        <pt x="469" y="144" on="0"/>
      </contour>
      <contour>
        <pt x="589" y="-241" on="1"/>
        <pt x="517" y="-325" on="1"/>
        <pt x="273" y="-153" on="1"/>
        <pt x="355" y="-50" on="1"/>
      </contour>
    </TTGlyph>
    <TTGlyph name="Cacute" xMin="38" yMin="-11" xMax="548" yMax="814">
      <contour>
        <pt x="389" y="105" on="1"/>
        <pt x="434" y="105" on="0"/>
        <pt x="496" y="121" on="0"/>
        <pt x="517" y="134" on="1"/>
        <pt x="547" y="25" on="1"/>
        <pt x="527" y="13" on="0"/>
        <pt x="438" y="-11" on="0"/>
        <pt x="373" y="-11" on="1"/>
        <pt x="299" y="-11" on="0"/>
        <pt x="175" y="35" on="0"/>
        <pt x="87" y="120" on="0"/>
        <pt x="38" y="241" on="0"/>
        <pt x="38" y="316" on="1"/>
        <pt x="38" y="389" on="0"/>
        <pt x="85" y="510" on="0"/>
        <pt x="172" y="595" on="0"/>
        <pt x="297" y="642" on="0"/>
        <pt x="375" y="642" on="1"/>
        <pt x="441" y="642" on="0"/>
        <pt x="524" y="617" on="0"/>
        <pt x="548" y="604" on="1"/>
        <pt x="514" y="493" on="1"/>
        <pt x="491" y="506" on="0"/>
        <pt x="428" y="526" on="0"/>
        <pt x="390" y="526" on="1"/>
        <pt x="350" y="526" on="0"/>
        <pt x="280" y="503" on="0"/>
        <pt x="228" y="453" on="0"/>
        <pt x="198" y="374" on="0"/>
        <pt x="198" y="317" on="1"/>
        <pt x="198" y="264" on="0"/>
        <pt x="227" y="184" on="0"/>
        <pt x="279" y="131" on="0"/>
        <pt x="348" y="105" on="0"/>
      </contour>
      <contour>
        <pt x="364" y="690" on="1"/>
        <pt x="242" y="690" on="1"/>
        <pt x="322" y="814" on="1"/>
        <pt x="480" y="814" on="1"/>
      </contour>
    </TTGlyph>
    <TTGlyph name="Ccaron" xMin="38" yMin="-11" xMax="548" yMax="814">
      <contour>
        <pt x="389" y="105" on="1"/>
        <pt x="434" y="105" on="0"/>
        <pt x="496" y="121" on="0"/>
        <pt x="517" y="134" on="1"/>
        <pt x="547" y="25" on="1"/>
        <pt x="527" y="13" on="0"/>
        <pt x="438" y="-11" on="0"/>
        <pt x="373" y="-11" on="1"/>
        <pt x="299" y="-11" on="0"/>
        <pt x="175" y="35" on="0"/>
        <pt x="87" y="120" on="0"/>
        <pt x="38" y="241" on="0"/>
        <pt x="38" y="316" on="1"/>
        <pt x="38" y="389" on="0"/>
        <pt x="85" y="510" on="0"/>
        <pt x="172" y="595" on="0"/>
        <pt x="297" y="642" on="0"/>
        <pt x="375" y="642" on="1"/>
        <pt x="441" y="642" on="0"/>
        <pt x="524" y="617" on="0"/>
        <pt x="548" y="604" on="1"/>
        <pt x="514" y="493" on="1"/>
        <pt x="491" y="506" on="0"/>
        <pt x="428" y="526" on="0"/>
        <pt x="390" y="526" on="1"/>
        <pt x="350" y="526" on="0"/>
        <pt x="280" y="503" on="0"/>
        <pt x="228" y="453" on="0"/>
        <pt x="198" y="374" on="0"/>
        <pt x="198" y="317" on="1"/>
        <pt x="198" y="264" on="0"/>
        <pt x="227" y="184" on="0"/>
        <pt x="279" y="131" on="0"/>
        <pt x="348" y="105" on="0"/>
      </contour>
      <contour>
        <pt x="177" y="814" on="1"/>
        <pt x="287" y="814" on="1"/>
        <pt x="347" y="750" on="1"/>
        <pt x="407" y="814" on="1"/>
        <pt x="513" y="814" on="1"/>
        <pt x="401" y="690" on="1"/>
        <pt x="292" y="690" on="1"/>
      </contour>
    </TTGlyph>
    <TTGlyph name="Ccedilla" xMin="38" yMin="-215" xMax="548" yMax="642">
      <contour>
        <pt x="389" y="105" on="1"/>
        <pt x="434" y="105" on="0"/>
        <pt x="496" y="121" on="0"/>
        <pt x="517" y="134" on="1"/>
        <pt x="547" y="25" on="1"/>
        <pt x="527" y="14" on="0"/>
        <pt x="445" y="-9" on="0"/>
        <pt x="385" y="-11" on="1"/>
        <pt x="374" y="-47" on="1"/>
        <pt x="407" y="-50" on="0"/>
        <pt x="450" y="-93" on="0"/>
        <pt x="450" y="-122" on="1"/>
        <pt x="450" y="-169" on="0"/>
        <pt x="383" y="-215" on="0"/>
        <pt x="332" y="-215" on="1"/>
        <pt x="306" y="-215" on="0"/>
        <pt x="262" y="-206" on="0"/>
        <pt x="248" y="-200" on="1"/>
        <pt x="266" y="-141" on="1"/>
        <pt x="278" y="-146" on="0"/>
        <pt x="299" y="-150" on="0"/>
        <pt x="315" y="-150" on="1"/>
        <pt x="333" y="-150" on="0"/>
        <pt x="355" y="-133" on="0"/>
        <pt x="355" y="-114" on="1"/>
        <pt x="355" y="-99" on="0"/>
        <pt x="325" y="-78" on="0"/>
        <pt x="284" y="-78" on="1"/>
        <pt x="308" y="-6" on="1"/>
        <pt x="247" y="3" on="0"/>
        <pt x="147" y="57" on="0"/>
        <pt x="77" y="139" on="0"/>
        <pt x="38" y="250" on="0"/>
        <pt x="38" y="316" on="1"/>
        <pt x="38" y="389" on="0"/>
        <pt x="85" y="510" on="0"/>
        <pt x="172" y="595" on="0"/>
        <pt x="297" y="642" on="0"/>
        <pt x="375" y="642" on="1"/>
        <pt x="441" y="642" on="0"/>
        <pt x="524" y="617" on="0"/>
        <pt x="548" y="604" on="1"/>
        <pt x="514" y="493" on="1"/>
        <pt x="491" y="506" on="0"/>
        <pt x="428" y="526" on="0"/>
        <pt x="390" y="526" on="1"/>
        <pt x="350" y="526" on="0"/>
        <pt x="280" y="503" on="0"/>
        <pt x="228" y="453" on="0"/>
        <pt x="198" y="374" on="0"/>
        <pt x="198" y="317" on="1"/>
        <pt x="198" y="264" on="0"/>
        <pt x="227" y="184" on="0"/>
        <pt x="279" y="131" on="0"/>
        <pt x="348" y="105" on="0"/>
      </contour>
    </TTGlyph>
    <TTGlyph name="Ccircumflex" xMin="38" yMin="-11" xMax="548" yMax="814">
      <contour>
        <pt x="389" y="105" on="1"/>
        <pt x="434" y="105" on="0"/>
        <pt x="496" y="121" on="0"/>
        <pt x="517" y="134" on="1"/>
        <pt x="547" y="25" on="1"/>
        <pt x="527" y="13" on="0"/>
        <pt x="438" y="-11" on="0"/>
        <pt x="373" y="-11" on="1"/>
        <pt x="299" y="-11" on="0"/>
        <pt x="175" y="35" on="0"/>
        <pt x="87" y="120" on="0"/>
        <pt x="38" y="241" on="0"/>
        <pt x="38" y="316" on="1"/>
        <pt x="38" y="389" on="0"/>
        <pt x="85" y="510" on="0"/>
        <pt x="172" y="595" on="0"/>
        <pt x="297" y="642" on="0"/>
        <pt x="375" y="642" on="1"/>
        <pt x="441" y="642" on="0"/>
        <pt x="524" y="617" on="0"/>
        <pt x="548" y="604" on="1"/>
        <pt x="514" y="493" on="1"/>
        <pt x="491" y="506" on="0"/>
        <pt x="428" y="526" on="0"/>
        <pt x="390" y="526" on="1"/>
        <pt x="350" y="526" on="0"/>
        <pt x="280" y="503" on="0"/>
        <pt x="228" y="453" on="0"/>
        <pt x="198" y="374" on="0"/>
        <pt x="198" y="317" on="1"/>
        <pt x="198" y="264" on="0"/>
        <pt x="227" y="184" on="0"/>
        <pt x="279" y="131" on="0"/>
        <pt x="348" y="105" on="0"/>
      </contour>
      <contour>
        <pt x="293" y="814" on="1"/>
        <pt x="402" y="814" on="1"/>
        <pt x="517" y="690" on="1"/>
        <pt x="407" y="690" on="1"/>
        <pt x="347" y="754" on="1"/>
        <pt x="287" y="690" on="1"/>
        <pt x="181" y="690" on="1"/>
      </contour>
    </TTGlyph>
    <TTGlyph name="Cdotaccent" xMin="38" yMin="-11" xMax="548" yMax="814">
      <contour>
        <pt x="389" y="105" on="1"/>
        <pt x="434" y="105" on="0"/>
        <pt x="496" y="121" on="0"/>
        <pt x="517" y="134" on="1"/>
        <pt x="547" y="25" on="1"/>
        <pt x="527" y="13" on="0"/>
        <pt x="438" y="-11" on="0"/>
        <pt x="373" y="-11" on="1"/>
        <pt x="299" y="-11" on="0"/>
        <pt x="175" y="35" on="0"/>
        <pt x="87" y="120" on="0"/>
        <pt x="38" y="241" on="0"/>
        <pt x="38" y="316" on="1"/>
        <pt x="38" y="389" on="0"/>
        <pt x="85" y="510" on="0"/>
        <pt x="172" y="595" on="0"/>
        <pt x="297" y="642" on="0"/>
        <pt x="375" y="642" on="1"/>
        <pt x="441" y="642" on="0"/>
        <pt x="524" y="617" on="0"/>
        <pt x="548" y="604" on="1"/>
        <pt x="514" y="493" on="1"/>
        <pt x="491" y="506" on="0"/>
        <pt x="428" y="526" on="0"/>
        <pt x="390" y="526" on="1"/>
        <pt x="350" y="526" on="0"/>
        <pt x="280" y="503" on="0"/>
        <pt x="228" y="453" on="0"/>
        <pt x="198" y="374" on="0"/>
        <pt x="198" y="317" on="1"/>
        <pt x="198" y="264" on="0"/>
        <pt x="227" y="184" on="0"/>
        <pt x="279" y="131" on="0"/>
        <pt x="348" y="105" on="0"/>
      </contour>
      <contour>
        <pt x="307" y="748" on="1"/>
        <pt x="307" y="776" on="0"/>
        <pt x="346" y="814" on="0"/>
        <pt x="375" y="814" on="1"/>
        <pt x="404" y="814" on="0"/>
        <pt x="442" y="776" on="0"/>
        <pt x="442" y="748" on="1"/>
        <pt x="442" y="719" on="0"/>
        <pt x="404" y="679" on="0"/>
        <pt x="375" y="679" on="1"/>
        <pt x="346" y="679" on="0"/>
        <pt x="307" y="719" on="0"/>
      </contour>
    </TTGlyph>
    <TTGlyph name="Cha.gm" xMin="-20" yMin="0" xMax="623" yMax="597">
      <contour>
        <pt x="-20" y="597" on="1"/>
        <pt x="623" y="597" on="1"/>
        <pt x="623" y="494" on="1"/>
        <pt x="531" y="494" on="1"/>
        <pt x="531" y="339" on="1"/>
        <pt x="208" y="339" on="1"/>
        <pt x="192" y="339" on="0"/>
        <pt x="173" y="323" on="0"/>
        <pt x="173" y="309" on="1"/>
        <pt x="173" y="298" on="0"/>
        <pt x="188" y="276" on="0"/>
        <pt x="212" y="274" on="1"/>
        <pt x="402" y="274" on="1"/>
        <pt x="491" y="274" on="0"/>
        <pt x="573" y="199" on="0"/>
        <pt x="573" y="140" on="1"/>
        <pt x="573" y="109" on="0"/>
        <pt x="554" y="58" on="0"/>
        <pt x="510" y="21" on="0"/>
        <pt x="438" y="0" on="0"/>
        <pt x="386" y="0" on="1"/>
        <pt x="237" y="0" on="1"/>
        <pt x="135" y="0" on="0"/>
        <pt x="42" y="74" on="0"/>
        <pt x="42" y="136" on="1"/>
        <pt x="42" y="165" on="0"/>
        <pt x="69" y="215" on="0"/>
        <pt x="93" y="229" on="1"/>
        <pt x="72" y="240" on="0"/>
        <pt x="40" y="286" on="0"/>
        <pt x="40" y="319" on="1"/>
        <pt x="40" y="373" on="0"/>
        <pt x="118" y="438" on="0"/>
        <pt x="184" y="438" on="1"/>
        <pt x="400" y="438" on="1"/>
        <pt x="400" y="494" on="1"/>
        <pt x="-20" y="494" on="1"/>
      </contour>
      <contour>
        <pt x="288" y="92" on="1"/>
        <pt x="281" y="137" on="0"/>
        <pt x="241" y="186" on="0"/>
        <pt x="212" y="186" on="1"/>
        <pt x="192" y="186" on="0"/>
        <pt x="167" y="162" on="0"/>
        <pt x="167" y="142" on="1"/>
        <pt x="167" y="119" on="0"/>
        <pt x="201" y="92" on="0"/>
        <pt x="233" y="92" on="1"/>
      </contour>
      <contour>
        <pt x="325" y="183" on="1"/>
        <pt x="341" y="175" on="0"/>
        <pt x="366" y="125" on="0"/>
        <pt x="370" y="93" on="1"/>
        <pt x="393" y="93" on="1"/>
        <pt x="421" y="93" on="0"/>
        <pt x="449" y="114" on="0"/>
        <pt x="449" y="138" on="1"/>
        <pt x="449" y="158" on="0"/>
        <pt x="417" y="183" on="0"/>
        <pt x="388" y="183" on="1"/>
      </contour>
    </TTGlyph>
    <TTGlyph name="ChaVirama.gm" xMin="-20" yMin="-325" xMax="623" yMax="597">
      <contour>
        <pt x="-20" y="597" on="1"/>
        <pt x="623" y="597" on="1"/>
        <pt x="623" y="494" on="1"/>
        <pt x="531" y="494" on="1"/>
        <pt x="531" y="339" on="1"/>
        <pt x="208" y="339" on="1"/>
        <pt x="192" y="339" on="0"/>
        <pt x="173" y="323" on="0"/>
        <pt x="173" y="309" on="1"/>
        <pt x="173" y="298" on="0"/>
        <pt x="188" y="276" on="0"/>
        <pt x="212" y="274" on="1"/>
        <pt x="402" y="274" on="1"/>
        <pt x="491" y="274" on="0"/>
        <pt x="573" y="199" on="0"/>
        <pt x="573" y="140" on="1"/>
        <pt x="573" y="109" on="0"/>
        <pt x="554" y="58" on="0"/>
        <pt x="510" y="21" on="0"/>
        <pt x="438" y="0" on="0"/>
        <pt x="386" y="0" on="1"/>
        <pt x="237" y="0" on="1"/>
        <pt x="135" y="0" on="0"/>
        <pt x="42" y="74" on="0"/>
        <pt x="42" y="136" on="1"/>
        <pt x="42" y="165" on="0"/>
        <pt x="69" y="215" on="0"/>
        <pt x="93" y="229" on="1"/>
        <pt x="72" y="240" on="0"/>
        <pt x="40" y="286" on="0"/>
        <pt x="40" y="319" on="1"/>
        <pt x="40" y="373" on="0"/>
        <pt x="118" y="438" on="0"/>
        <pt x="184" y="438" on="1"/>
        <pt x="400" y="438" on="1"/>
        <pt x="400" y="494" on="1"/>
        <pt x="-20" y="494" on="1"/>
      </contour>
      <contour>
        <pt x="288" y="92" on="1"/>
        <pt x="281" y="137" on="0"/>
        <pt x="241" y="186" on="0"/>
        <pt x="212" y="186" on="1"/>
        <pt x="192" y="186" on="0"/>
        <pt x="167" y="162" on="0"/>
        <pt x="167" y="142" on="1"/>
        <pt x="167" y="119" on="0"/>
        <pt x="201" y="92" on="0"/>
        <pt x="233" y="92" on="1"/>
      </contour>
      <contour>
        <pt x="325" y="183" on="1"/>
        <pt x="341" y="175" on="0"/>
        <pt x="366" y="125" on="0"/>
        <pt x="370" y="93" on="1"/>
        <pt x="393" y="93" on="1"/>
        <pt x="421" y="93" on="0"/>
        <pt x="449" y="114" on="0"/>
        <pt x="449" y="138" on="1"/>
        <pt x="449" y="158" on="0"/>
        <pt x="417" y="183" on="0"/>
        <pt x="388" y="183" on="1"/>
      </contour>
      <contour>
        <pt x="578" y="-241" on="1"/>
        <pt x="506" y="-325" on="1"/>
        <pt x="262" y="-153" on="1"/>
        <pt x="344" y="-50" on="1"/>
      </contour>
    </TTGlyph>
    <TTGlyph name="Csmall" xMin="39" yMin="-11" xMax="444" yMax="491">
      <contour>
        <pt x="323" y="97" on="1"/>
        <pt x="355" y="97" on="0"/>
        <pt x="404" y="114" on="0"/>
        <pt x="417" y="121" on="1"/>
        <pt x="444" y="21" on="1"/>
        <pt x="427" y="11" on="0"/>
        <pt x="347" y="-11" on="0"/>
        <pt x="299" y="-11" on="1"/>
        <pt x="243" y="-11" on="0"/>
        <pt x="148" y="21" on="0"/>
        <pt x="79" y="84" on="0"/>
        <pt x="39" y="177" on="0"/>
        <pt x="39" y="238" on="1"/>
        <pt x="39" y="294" on="0"/>
        <pt x="77" y="387" on="0"/>
        <pt x="147" y="454" on="0"/>
        <pt x="243" y="491" on="0"/>
        <pt x="302" y="491" on="1"/>
        <pt x="333" y="491" on="0"/>
        <pt x="406" y="477" on="0"/>
        <pt x="444" y="457" on="1"/>
        <pt x="413" y="356" on="1"/>
        <pt x="393" y="368" on="0"/>
        <pt x="344" y="384" on="0"/>
        <pt x="319" y="384" on="1"/>
        <pt x="261" y="384" on="0"/>
        <pt x="189" y="313" on="0"/>
        <pt x="189" y="242" on="1"/>
        <pt x="189" y="202" on="0"/>
        <pt x="213" y="147" on="0"/>
        <pt x="251" y="112" on="0"/>
        <pt x="299" y="97" on="0"/>
      </contour>
    </TTGlyph>
    <TTGlyph name="D" xMin="66" yMin="0" xMax="622" yMax="630">
      <contour>
        <pt x="291" y="630" on="1"/>
        <pt x="366" y="630" on="0"/>
        <pt x="488" y="592" on="0"/>
        <pt x="575" y="516" on="0"/>
        <pt x="622" y="403" on="0"/>
        <pt x="622" y="328" on="1"/>
        <pt x="622" y="244" on="0"/>
        <pt x="566" y="121" on="0"/>
        <pt x="469" y="40" on="0"/>
        <pt x="339" y="0" on="0"/>
        <pt x="266" y="0" on="1"/>
        <pt x="66" y="0" on="1"/>
        <pt x="66" y="630" on="1"/>
      </contour>
      <contour>
        <pt x="218" y="116" on="1"/>
        <pt x="257" y="116" on="1"/>
        <pt x="297" y="116" on="0"/>
        <pt x="372" y="136" on="0"/>
        <pt x="428" y="185" on="0"/>
        <pt x="462" y="267" on="0"/>
        <pt x="462" y="328" on="1"/>
        <pt x="462" y="419" on="0"/>
        <pt x="360" y="514" on="0"/>
        <pt x="273" y="514" on="1"/>
        <pt x="218" y="514" on="1"/>
      </contour>
    </TTGlyph>
    <TTGlyph name="Da.gm" xMin="-20" yMin="-12" xMax="623" yMax="597">
      <contour>
        <pt x="-20" y="597" on="1"/>
        <pt x="623" y="597" on="1"/>
        <pt x="623" y="494" on="1"/>
        <pt x="543" y="494" on="1"/>
        <pt x="543" y="247" on="1"/>
        <pt x="213" y="247" on="1"/>
        <pt x="216" y="167" on="0"/>
        <pt x="314" y="92" on="0"/>
        <pt x="389" y="92" on="1"/>
        <pt x="438" y="92" on="0"/>
        <pt x="507" y="117" on="0"/>
        <pt x="527" y="128" on="1"/>
        <pt x="574" y="40" on="1"/>
        <pt x="544" y="17" on="0"/>
        <pt x="449" y="-12" on="0"/>
        <pt x="383" y="-12" on="1"/>
        <pt x="321" y="-12" on="0"/>
        <pt x="217" y="18" on="0"/>
        <pt x="139" y="81" on="0"/>
        <pt x="90" y="175" on="0"/>
        <pt x="83" y="240" on="1"/>
        <pt x="55" y="245" on="0"/>
        <pt x="13" y="285" on="0"/>
        <pt x="13" y="320" on="1"/>
        <pt x="13" y="344" on="0"/>
        <pt x="33" y="386" on="0"/>
        <pt x="69" y="416" on="0"/>
        <pt x="118" y="433" on="0"/>
        <pt x="147" y="433" on="1"/>
        <pt x="170" y="433" on="0"/>
        <pt x="203" y="421" on="0"/>
        <pt x="213" y="413" on="1"/>
        <pt x="213" y="350" on="1"/>
        <pt x="411" y="350" on="1"/>
        <pt x="411" y="494" on="1"/>
        <pt x="-20" y="494" on="1"/>
      </contour>
    </TTGlyph>
    <TTGlyph name="DaVirama.gm" xMin="-20" yMin="-321" xMax="629" yMax="597">
      <contour>
        <pt x="-20" y="597" on="1"/>
        <pt x="623" y="597" on="1"/>
        <pt x="623" y="494" on="1"/>
        <pt x="543" y="494" on="1"/>
        <pt x="543" y="247" on="1"/>
        <pt x="213" y="247" on="1"/>
        <pt x="216" y="167" on="0"/>
        <pt x="314" y="92" on="0"/>
        <pt x="389" y="92" on="1"/>
        <pt x="438" y="92" on="0"/>
        <pt x="507" y="117" on="0"/>
        <pt x="527" y="128" on="1"/>
        <pt x="574" y="40" on="1"/>
        <pt x="544" y="17" on="0"/>
        <pt x="449" y="-12" on="0"/>
        <pt x="383" y="-12" on="1"/>
        <pt x="321" y="-12" on="0"/>
        <pt x="217" y="18" on="0"/>
        <pt x="139" y="81" on="0"/>
        <pt x="90" y="175" on="0"/>
        <pt x="83" y="240" on="1"/>
        <pt x="55" y="245" on="0"/>
        <pt x="13" y="285" on="0"/>
        <pt x="13" y="320" on="1"/>
        <pt x="13" y="344" on="0"/>
        <pt x="33" y="386" on="0"/>
        <pt x="69" y="416" on="0"/>
        <pt x="118" y="433" on="0"/>
        <pt x="147" y="433" on="1"/>
        <pt x="170" y="433" on="0"/>
        <pt x="203" y="421" on="0"/>
        <pt x="213" y="413" on="1"/>
        <pt x="213" y="350" on="1"/>
        <pt x="411" y="350" on="1"/>
        <pt x="411" y="494" on="1"/>
        <pt x="-20" y="494" on="1"/>
      </contour>
      <contour>
        <pt x="629" y="-237" on="1"/>
        <pt x="557" y="-321" on="1"/>
        <pt x="313" y="-149" on="1"/>
        <pt x="395" y="-46" on="1"/>
      </contour>
    </TTGlyph>
    <TTGlyph name="Danda.gm" xMin="100" yMin="0" xMax="234" yMax="602">
      <contour>
        <pt x="100" y="602" on="1"/>
        <pt x="234" y="602" on="1"/>
        <pt x="234" y="0" on="1"/>
        <pt x="100" y="0" on="1"/>
      </contour>
    </TTGlyph>
    <TTGlyph name="Dcaron" xMin="66" yMin="0" xMax="622" yMax="814">
      <contour>
        <pt x="291" y="630" on="1"/>
        <pt x="366" y="630" on="0"/>
        <pt x="488" y="592" on="0"/>
        <pt x="575" y="516" on="0"/>
        <pt x="622" y="403" on="0"/>
        <pt x="622" y="328" on="1"/>
        <pt x="622" y="244" on="0"/>
        <pt x="566" y="121" on="0"/>
        <pt x="469" y="40" on="0"/>
        <pt x="339" y="0" on="0"/>
        <pt x="266" y="0" on="1"/>
        <pt x="66" y="0" on="1"/>
        <pt x="66" y="630" on="1"/>
      </contour>
      <contour>
        <pt x="218" y="116" on="1"/>
        <pt x="257" y="116" on="1"/>
        <pt x="297" y="116" on="0"/>
        <pt x="372" y="136" on="0"/>
        <pt x="428" y="185" on="0"/>
        <pt x="462" y="267" on="0"/>
        <pt x="462" y="328" on="1"/>
        <pt x="462" y="419" on="0"/>
        <pt x="360" y="514" on="0"/>
        <pt x="273" y="514" on="1"/>
        <pt x="218" y="514" on="1"/>
      </contour>
      <contour>
        <pt x="125" y="814" on="1"/>
        <pt x="235" y="814" on="1"/>
        <pt x="295" y="750" on="1"/>
        <pt x="355" y="814" on="1"/>
        <pt x="461" y="814" on="1"/>
        <pt x="349" y="690" on="1"/>
        <pt x="240" y="690" on="1"/>
      </contour>
    </TTGlyph>
    <TTGlyph name="Dcroat" xMin="20" yMin="0" xMax="662" yMax="630">
      <contour>
        <pt x="331" y="630" on="1"/>
        <pt x="406" y="630" on="0"/>
        <pt x="528" y="592" on="0"/>
        <pt x="615" y="516" on="0"/>
        <pt x="662" y="403" on="0"/>
        <pt x="662" y="328" on="1"/>
        <pt x="662" y="244" on="0"/>
        <pt x="606" y="121" on="0"/>
        <pt x="509" y="40" on="0"/>
        <pt x="379" y="0" on="0"/>
        <pt x="306" y="0" on="1"/>
        <pt x="106" y="0" on="1"/>
        <pt x="106" y="268" on="1"/>
        <pt x="20" y="268" on="1"/>
        <pt x="20" y="370" on="1"/>
        <pt x="106" y="370" on="1"/>
        <pt x="106" y="630" on="1"/>
      </contour>
      <contour>
        <pt x="370" y="370" on="1"/>
        <pt x="370" y="268" on="1"/>
        <pt x="258" y="268" on="1"/>
        <pt x="258" y="116" on="1"/>
        <pt x="297" y="116" on="1"/>
        <pt x="337" y="116" on="0"/>
        <pt x="412" y="136" on="0"/>
        <pt x="468" y="185" on="0"/>
        <pt x="502" y="267" on="0"/>
        <pt x="502" y="328" on="1"/>
        <pt x="502" y="419" on="0"/>
        <pt x="400" y="514" on="0"/>
        <pt x="313" y="514" on="1"/>
        <pt x="258" y="514" on="1"/>
        <pt x="258" y="370" on="1"/>
      </contour>
    </TTGlyph>
    <TTGlyph name="Dda.gm" xMin="-20" yMin="-17" xMax="599" yMax="597">
      <contour>
        <pt x="-20" y="597" on="1"/>
        <pt x="599" y="597" on="1"/>
        <pt x="599" y="494" on="1"/>
        <pt x="526" y="494" on="1"/>
        <pt x="518" y="447" on="0"/>
        <pt x="475" y="371" on="0"/>
        <pt x="445" y="345" on="1"/>
        <pt x="486" y="320" on="0"/>
        <pt x="535" y="242" on="0"/>
        <pt x="535" y="191" on="1"/>
        <pt x="535" y="140" on="0"/>
        <pt x="490" y="62" on="0"/>
        <pt x="416" y="9" on="0"/>
        <pt x="319" y="-17" on="0"/>
        <pt x="267" y="-17" on="1"/>
        <pt x="215" y="-17" on="0"/>
        <pt x="127" y="4" on="0"/>
        <pt x="62" y="42" on="0"/>
        <pt x="26" y="97" on="0"/>
        <pt x="26" y="130" on="1"/>
        <pt x="26" y="183" on="0"/>
        <pt x="100" y="246" on="0"/>
        <pt x="163" y="246" on="1"/>
        <pt x="201" y="246" on="0"/>
        <pt x="267" y="227" on="0"/>
        <pt x="321" y="196" on="0"/>
        <pt x="365" y="156" on="0"/>
        <pt x="381" y="135" on="1"/>
        <pt x="402" y="162" on="0"/>
        <pt x="402" y="198" on="1"/>
        <pt x="402" y="236" on="0"/>
        <pt x="358" y="287" on="0"/>
        <pt x="332" y="297" on="1"/>
        <pt x="307" y="292" on="0"/>
        <pt x="243" y="286" on="0"/>
        <pt x="198" y="286" on="1"/>
        <pt x="124" y="286" on="0"/>
        <pt x="70" y="323" on="0"/>
        <pt x="70" y="354" on="1"/>
        <pt x="70" y="367" on="0"/>
        <pt x="80" y="391" on="0"/>
        <pt x="86" y="400" on="1"/>
        <pt x="332" y="400" on="1"/>
        <pt x="351" y="411" on="0"/>
        <pt x="381" y="465" on="0"/>
        <pt x="388" y="494" on="1"/>
        <pt x="-20" y="494" on="1"/>
      </contour>
      <contour>
        <pt x="252" y="83" on="1"/>
        <pt x="264" y="83" on="0"/>
        <pt x="288" y="85" on="0"/>
        <pt x="299" y="88" on="1"/>
        <pt x="273" y="122" on="0"/>
        <pt x="221" y="151" on="0"/>
        <pt x="193" y="151" on="1"/>
        <pt x="177" y="151" on="0"/>
        <pt x="158" y="138" on="0"/>
        <pt x="158" y="124" on="1"/>
        <pt x="158" y="107" on="0"/>
        <pt x="211" y="83" on="0"/>
      </contour>
    </TTGlyph>
    <TTGlyph name="DdaVirama.gm" xMin="-20" yMin="-325" xMax="599" yMax="597">
      <contour>
        <pt x="-20" y="597" on="1"/>
        <pt x="599" y="597" on="1"/>
        <pt x="599" y="494" on="1"/>
        <pt x="526" y="494" on="1"/>
        <pt x="518" y="447" on="0"/>
        <pt x="475" y="371" on="0"/>
        <pt x="445" y="345" on="1"/>
        <pt x="486" y="320" on="0"/>
        <pt x="535" y="242" on="0"/>
        <pt x="535" y="191" on="1"/>
        <pt x="535" y="140" on="0"/>
        <pt x="490" y="62" on="0"/>
        <pt x="416" y="9" on="0"/>
        <pt x="319" y="-17" on="0"/>
        <pt x="267" y="-17" on="1"/>
        <pt x="215" y="-17" on="0"/>
        <pt x="127" y="4" on="0"/>
        <pt x="62" y="42" on="0"/>
        <pt x="26" y="97" on="0"/>
        <pt x="26" y="130" on="1"/>
        <pt x="26" y="183" on="0"/>
        <pt x="100" y="246" on="0"/>
        <pt x="163" y="246" on="1"/>
        <pt x="201" y="246" on="0"/>
        <pt x="267" y="227" on="0"/>
        <pt x="321" y="196" on="0"/>
        <pt x="365" y="156" on="0"/>
        <pt x="381" y="135" on="1"/>
        <pt x="402" y="162" on="0"/>
        <pt x="402" y="198" on="1"/>
        <pt x="402" y="236" on="0"/>
        <pt x="358" y="287" on="0"/>
        <pt x="332" y="297" on="1"/>
        <pt x="307" y="292" on="0"/>
        <pt x="243" y="286" on="0"/>
        <pt x="198" y="286" on="1"/>
        <pt x="124" y="286" on="0"/>
        <pt x="70" y="323" on="0"/>
        <pt x="70" y="354" on="1"/>
        <pt x="70" y="367" on="0"/>
        <pt x="80" y="391" on="0"/>
        <pt x="86" y="400" on="1"/>
        <pt x="332" y="400" on="1"/>
        <pt x="351" y="411" on="0"/>
        <pt x="381" y="465" on="0"/>
        <pt x="388" y="494" on="1"/>
        <pt x="-20" y="494" on="1"/>
      </contour>
      <contour>
        <pt x="252" y="83" on="1"/>
        <pt x="264" y="83" on="0"/>
        <pt x="288" y="85" on="0"/>
        <pt x="299" y="88" on="1"/>
        <pt x="273" y="122" on="0"/>
        <pt x="221" y="151" on="0"/>
        <pt x="193" y="151" on="1"/>
        <pt x="177" y="151" on="0"/>
        <pt x="158" y="138" on="0"/>
        <pt x="158" y="124" on="1"/>
        <pt x="158" y="107" on="0"/>
        <pt x="211" y="83" on="0"/>
      </contour>
      <contour>
        <pt x="594" y="-241" on="1"/>
        <pt x="522" y="-325" on="1"/>
        <pt x="278" y="-153" on="1"/>
        <pt x="360" y="-50" on="1"/>
      </contour>
    </TTGlyph>
    <TTGlyph name="Ddha.gm" xMin="-20" yMin="-17" xMax="639" yMax="597">
      <contour>
        <pt x="-20" y="597" on="1"/>
        <pt x="639" y="597" on="1"/>
        <pt x="639" y="494" on="1"/>
        <pt x="554" y="494" on="1"/>
        <pt x="554" y="285" on="1"/>
        <pt x="197" y="285" on="1"/>
        <pt x="200" y="241" on="0"/>
        <pt x="226" y="176" on="0"/>
        <pt x="246" y="155" on="1"/>
        <pt x="281" y="193" on="0"/>
        <pt x="379" y="239" on="0"/>
        <pt x="432" y="239" on="1"/>
        <pt x="473" y="239" on="0"/>
        <pt x="531" y="219" on="0"/>
        <pt x="567" y="186" on="0"/>
        <pt x="583" y="142" on="0"/>
        <pt x="583" y="117" on="1"/>
        <pt x="583" y="58" on="0"/>
        <pt x="483" y="-17" on="0"/>
        <pt x="396" y="-17" on="1"/>
        <pt x="342" y="-17" on="0"/>
        <pt x="233" y="16" on="0"/>
        <pt x="143" y="88" on="0"/>
        <pt x="82" y="200" on="0"/>
        <pt x="75" y="279" on="1"/>
        <pt x="46" y="282" on="0"/>
        <pt x="12" y="317" on="0"/>
        <pt x="12" y="350" on="1"/>
        <pt x="12" y="372" on="0"/>
        <pt x="31" y="410" on="0"/>
        <pt x="64" y="438" on="0"/>
        <pt x="108" y="455" on="0"/>
        <pt x="134" y="455" on="1"/>
        <pt x="157" y="455" on="0"/>
        <pt x="187" y="447" on="0"/>
        <pt x="196" y="440" on="1"/>
        <pt x="196" y="389" on="1"/>
        <pt x="426" y="389" on="1"/>
        <pt x="426" y="494" on="1"/>
        <pt x="-20" y="494" on="1"/>
      </contour>
      <contour>
        <pt x="420" y="144" on="1"/>
        <pt x="396" y="144" on="0"/>
        <pt x="349" y="123" on="0"/>
        <pt x="324" y="98" on="1"/>
        <pt x="338" y="91" on="0"/>
        <pt x="372" y="82" on="0"/>
        <pt x="397" y="82" on="1"/>
        <pt x="429" y="82" on="0"/>
        <pt x="458" y="103" on="0"/>
        <pt x="458" y="117" on="1"/>
        <pt x="458" y="128" on="0"/>
        <pt x="440" y="144" on="0"/>
      </contour>
    </TTGlyph>
    <TTGlyph name="DdhaVirama.gm" xMin="-20" yMin="-325" xMax="641" yMax="597">
      <contour>
        <pt x="-20" y="597" on="1"/>
        <pt x="639" y="597" on="1"/>
        <pt x="639" y="494" on="1"/>
        <pt x="554" y="494" on="1"/>
        <pt x="554" y="285" on="1"/>
        <pt x="197" y="285" on="1"/>
        <pt x="200" y="241" on="0"/>
        <pt x="226" y="176" on="0"/>
        <pt x="246" y="155" on="1"/>
        <pt x="281" y="193" on="0"/>
        <pt x="379" y="239" on="0"/>
        <pt x="432" y="239" on="1"/>
        <pt x="473" y="239" on="0"/>
        <pt x="531" y="219" on="0"/>
        <pt x="567" y="186" on="0"/>
        <pt x="583" y="142" on="0"/>
        <pt x="583" y="117" on="1"/>
        <pt x="583" y="58" on="0"/>
        <pt x="483" y="-17" on="0"/>
        <pt x="396" y="-17" on="1"/>
        <pt x="342" y="-17" on="0"/>
        <pt x="233" y="16" on="0"/>
        <pt x="143" y="88" on="0"/>
        <pt x="82" y="200" on="0"/>
        <pt x="75" y="279" on="1"/>
        <pt x="46" y="282" on="0"/>
        <pt x="12" y="317" on="0"/>
        <pt x="12" y="350" on="1"/>
        <pt x="12" y="372" on="0"/>
        <pt x="31" y="410" on="0"/>
        <pt x="64" y="438" on="0"/>
        <pt x="108" y="455" on="0"/>
        <pt x="134" y="455" on="1"/>
        <pt x="157" y="455" on="0"/>
        <pt x="187" y="447" on="0"/>
        <pt x="196" y="440" on="1"/>
        <pt x="196" y="389" on="1"/>
        <pt x="426" y="389" on="1"/>
        <pt x="426" y="494" on="1"/>
        <pt x="-20" y="494" on="1"/>
      </contour>
      <contour>
        <pt x="420" y="144" on="1"/>
        <pt x="396" y="144" on="0"/>
        <pt x="349" y="123" on="0"/>
        <pt x="324" y="98" on="1"/>
        <pt x="338" y="91" on="0"/>
        <pt x="372" y="82" on="0"/>
        <pt x="397" y="82" on="1"/>
        <pt x="429" y="82" on="0"/>
        <pt x="458" y="103" on="0"/>
        <pt x="458" y="117" on="1"/>
        <pt x="458" y="128" on="0"/>
        <pt x="440" y="144" on="0"/>
      </contour>
      <contour>
        <pt x="641" y="-241" on="1"/>
        <pt x="569" y="-325" on="1"/>
        <pt x="325" y="-153" on="1"/>
        <pt x="407" y="-50" on="1"/>
      </contour>
    </TTGlyph>
    <TTGlyph name="Dha.gm" xMin="-30" yMin="0" xMax="623" yMax="597">
      <contour>
        <pt x="-30" y="597" on="1"/>
        <pt x="623" y="597" on="1"/>
        <pt x="623" y="494" on="1"/>
        <pt x="538" y="494" on="1"/>
        <pt x="538" y="0" on="1"/>
        <pt x="405" y="0" on="1"/>
        <pt x="405" y="112" on="1"/>
        <pt x="383" y="101" on="0"/>
        <pt x="326" y="87" on="0"/>
        <pt x="287" y="87" on="1"/>
        <pt x="206" y="87" on="0"/>
        <pt x="78" y="154" on="0"/>
        <pt x="37" y="229" on="1"/>
        <pt x="90" y="314" on="0"/>
        <pt x="90" y="403" on="1"/>
        <pt x="90" y="439" on="0"/>
        <pt x="83" y="480" on="0"/>
        <pt x="78" y="494" on="1"/>
        <pt x="-30" y="494" on="1"/>
      </contour>
      <contour>
        <pt x="293" y="192" on="1"/>
        <pt x="359" y="192" on="0"/>
        <pt x="405" y="226" on="1"/>
        <pt x="405" y="494" on="1"/>
        <pt x="210" y="494" on="1"/>
        <pt x="216" y="473" on="0"/>
        <pt x="223" y="426" on="0"/>
        <pt x="223" y="401" on="1"/>
        <pt x="223" y="357" on="0"/>
        <pt x="200" y="276" on="0"/>
        <pt x="179" y="239" on="1"/>
        <pt x="194" y="216" on="0"/>
        <pt x="255" y="192" on="0"/>
      </contour>
    </TTGlyph>
    <TTGlyph name="DhaVirama.gm" xMin="-30" yMin="-325" xMax="716" yMax="597">
      <contour>
        <pt x="-30" y="597" on="1"/>
        <pt x="623" y="597" on="1"/>
        <pt x="623" y="494" on="1"/>
        <pt x="538" y="494" on="1"/>
        <pt x="538" y="0" on="1"/>
        <pt x="405" y="0" on="1"/>
        <pt x="405" y="112" on="1"/>
        <pt x="383" y="101" on="0"/>
        <pt x="326" y="87" on="0"/>
        <pt x="287" y="87" on="1"/>
        <pt x="206" y="87" on="0"/>
        <pt x="78" y="154" on="0"/>
        <pt x="37" y="229" on="1"/>
        <pt x="90" y="314" on="0"/>
        <pt x="90" y="403" on="1"/>
        <pt x="90" y="439" on="0"/>
        <pt x="83" y="480" on="0"/>
        <pt x="78" y="494" on="1"/>
        <pt x="-30" y="494" on="1"/>
      </contour>
      <contour>
        <pt x="293" y="192" on="1"/>
        <pt x="359" y="192" on="0"/>
        <pt x="405" y="226" on="1"/>
        <pt x="405" y="494" on="1"/>
        <pt x="210" y="494" on="1"/>
        <pt x="216" y="473" on="0"/>
        <pt x="223" y="426" on="0"/>
        <pt x="223" y="401" on="1"/>
        <pt x="223" y="357" on="0"/>
        <pt x="200" y="276" on="0"/>
        <pt x="179" y="239" on="1"/>
        <pt x="194" y="216" on="0"/>
        <pt x="255" y="192" on="0"/>
      </contour>
      <contour>
        <pt x="716" y="-241" on="1"/>
        <pt x="644" y="-325" on="1"/>
        <pt x="400" y="-153" on="1"/>
        <pt x="482" y="-50" on="1"/>
      </contour>
    </TTGlyph>
    <TTGlyph name="Dottedcircle" xMin="10" yMin="-30" xMax="667" yMax="627">
      <contour>
        <pt x="310" y="-2" on="1"/>
        <pt x="310" y="10" on="0"/>
        <pt x="326" y="27" on="0"/>
        <pt x="338" y="27" on="1"/>
        <pt x="350" y="27" on="0"/>
        <pt x="367" y="10" on="0"/>
        <pt x="367" y="-2" on="1"/>
        <pt x="367" y="-14" on="0"/>
        <pt x="350" y="-30" on="0"/>
        <pt x="338" y="-30" on="1"/>
        <pt x="326" y="-30" on="0"/>
        <pt x="310" y="-14" on="0"/>
      </contour>
      <contour>
        <pt x="310" y="598" on="1"/>
        <pt x="310" y="610" on="0"/>
        <pt x="326" y="627" on="0"/>
        <pt x="338" y="627" on="1"/>
        <pt x="350" y="627" on="0"/>
        <pt x="367" y="610" on="0"/>
        <pt x="367" y="598" on="1"/>
        <pt x="367" y="586" on="0"/>
        <pt x="350" y="570" on="0"/>
        <pt x="338" y="570" on="1"/>
        <pt x="326" y="570" on="0"/>
        <pt x="310" y="586" on="0"/>
      </contour>
      <contour>
        <pt x="10" y="298" on="1"/>
        <pt x="10" y="310" on="0"/>
        <pt x="26" y="327" on="0"/>
        <pt x="38" y="327" on="1"/>
        <pt x="50" y="327" on="0"/>
        <pt x="67" y="310" on="0"/>
        <pt x="67" y="298" on="1"/>
        <pt x="67" y="286" on="0"/>
        <pt x="50" y="270" on="0"/>
        <pt x="38" y="270" on="1"/>
        <pt x="26" y="270" on="0"/>
        <pt x="10" y="286" on="0"/>
      </contour>
      <contour>
        <pt x="610" y="298" on="1"/>
        <pt x="610" y="310" on="0"/>
        <pt x="626" y="327" on="0"/>
        <pt x="638" y="327" on="1"/>
        <pt x="650" y="327" on="0"/>
        <pt x="667" y="310" on="0"/>
        <pt x="667" y="298" on="1"/>
        <pt x="667" y="286" on="0"/>
        <pt x="650" y="270" on="0"/>
        <pt x="638" y="270" on="1"/>
        <pt x="626" y="270" on="0"/>
        <pt x="610" y="286" on="0"/>
      </contour>
      <contour>
        <pt x="110" y="498" on="1"/>
        <pt x="110" y="510" on="0"/>
        <pt x="126" y="527" on="0"/>
        <pt x="138" y="527" on="1"/>
        <pt x="150" y="527" on="0"/>
        <pt x="167" y="510" on="0"/>
        <pt x="167" y="498" on="1"/>
        <pt x="167" y="486" on="0"/>
        <pt x="150" y="470" on="0"/>
        <pt x="138" y="470" on="1"/>
        <pt x="126" y="470" on="0"/>
        <pt x="110" y="486" on="0"/>
      </contour>
      <contour>
        <pt x="110" y="98" on="1"/>
        <pt x="110" y="110" on="0"/>
        <pt x="126" y="127" on="0"/>
        <pt x="138" y="127" on="1"/>
        <pt x="150" y="127" on="0"/>
        <pt x="167" y="110" on="0"/>
        <pt x="167" y="98" on="1"/>
        <pt x="167" y="86" on="0"/>
        <pt x="150" y="70" on="0"/>
        <pt x="138" y="70" on="1"/>
        <pt x="126" y="70" on="0"/>
        <pt x="110" y="86" on="0"/>
      </contour>
      <contour>
        <pt x="510" y="98" on="1"/>
        <pt x="510" y="110" on="0"/>
        <pt x="526" y="127" on="0"/>
        <pt x="538" y="127" on="1"/>
        <pt x="550" y="127" on="0"/>
        <pt x="567" y="110" on="0"/>
        <pt x="567" y="98" on="1"/>
        <pt x="567" y="86" on="0"/>
        <pt x="550" y="70" on="0"/>
        <pt x="538" y="70" on="1"/>
        <pt x="526" y="70" on="0"/>
        <pt x="510" y="86" on="0"/>
      </contour>
      <contour>
        <pt x="510" y="498" on="1"/>
        <pt x="510" y="510" on="0"/>
        <pt x="526" y="527" on="0"/>
        <pt x="538" y="527" on="1"/>
        <pt x="550" y="527" on="0"/>
        <pt x="567" y="510" on="0"/>
        <pt x="567" y="498" on="1"/>
        <pt x="567" y="486" on="0"/>
        <pt x="550" y="470" on="0"/>
        <pt x="538" y="470" on="1"/>
        <pt x="526" y="470" on="0"/>
        <pt x="510" y="486" on="0"/>
      </contour>
    </TTGlyph>
    <TTGlyph name="Doubledanda.gm" xMin="110" yMin="0" xMax="485" yMax="602">
      <contour>
        <pt x="110" y="602" on="1"/>
        <pt x="244" y="602" on="1"/>
        <pt x="244" y="0" on="1"/>
        <pt x="110" y="0" on="1"/>
      </contour>
      <contour>
        <pt x="351" y="602" on="1"/>
        <pt x="485" y="602" on="1"/>
        <pt x="485" y="0" on="1"/>
        <pt x="351" y="0" on="1"/>
      </contour>
    </TTGlyph>
    <TTGlyph name="Dsmall" xMin="58" yMin="0" xMax="518" yMax="480">
      <contour>
        <pt x="261" y="480" on="1"/>
        <pt x="314" y="480" on="0"/>
        <pt x="408" y="454" on="0"/>
        <pt x="478" y="398" on="0"/>
        <pt x="518" y="311" on="0"/>
        <pt x="518" y="250" on="1"/>
        <pt x="518" y="183" on="0"/>
        <pt x="476" y="88" on="0"/>
        <pt x="402" y="28" on="0"/>
        <pt x="303" y="0" on="0"/>
        <pt x="245" y="0" on="1"/>
        <pt x="58" y="0" on="1"/>
        <pt x="58" y="480" on="1"/>
      </contour>
      <contour>
        <pt x="206" y="109" on="1"/>
        <pt x="235" y="109" on="1"/>
        <pt x="256" y="109" on="0"/>
        <pt x="303" y="120" on="0"/>
        <pt x="342" y="150" on="0"/>
        <pt x="368" y="204" on="0"/>
        <pt x="368" y="247" on="1"/>
        <pt x="368" y="306" on="0"/>
        <pt x="303" y="371" on="0"/>
        <pt x="235" y="371" on="1"/>
        <pt x="206" y="371" on="1"/>
      </contour>
    </TTGlyph>
    <TTGlyph name="E" xMin="66" yMin="0" xMax="489" yMax="630">
      <contour>
        <pt x="66" y="630" on="1"/>
        <pt x="486" y="630" on="1"/>
        <pt x="486" y="514" on="1"/>
        <pt x="218" y="514" on="1"/>
        <pt x="218" y="385" on="1"/>
        <pt x="460" y="385" on="1"/>
        <pt x="460" y="270" on="1"/>
        <pt x="218" y="270" on="1"/>
        <pt x="218" y="116" on="1"/>
        <pt x="489" y="116" on="1"/>
        <pt x="489" y="0" on="1"/>
        <pt x="66" y="0" on="1"/>
      </contour>
    </TTGlyph>
    <TTGlyph name="Eacute" xMin="66" yMin="0" xMax="489" yMax="814">
      <contour>
        <pt x="66" y="630" on="1"/>
        <pt x="486" y="630" on="1"/>
        <pt x="486" y="514" on="1"/>
        <pt x="218" y="514" on="1"/>
        <pt x="218" y="385" on="1"/>
        <pt x="460" y="385" on="1"/>
        <pt x="460" y="270" on="1"/>
        <pt x="218" y="270" on="1"/>
        <pt x="218" y="116" on="1"/>
        <pt x="489" y="116" on="1"/>
        <pt x="489" y="0" on="1"/>
        <pt x="66" y="0" on="1"/>
      </contour>
      <contour>
        <pt x="282" y="690" on="1"/>
        <pt x="160" y="690" on="1"/>
        <pt x="240" y="814" on="1"/>
        <pt x="398" y="814" on="1"/>
      </contour>
    </TTGlyph>
    <TTGlyph name="Ebreve" xMin="66" yMin="0" xMax="489" yMax="814">
      <contour>
        <pt x="66" y="630" on="1"/>
        <pt x="486" y="630" on="1"/>
        <pt x="486" y="514" on="1"/>
        <pt x="218" y="514" on="1"/>
        <pt x="218" y="385" on="1"/>
        <pt x="460" y="385" on="1"/>
        <pt x="460" y="270" on="1"/>
        <pt x="218" y="270" on="1"/>
        <pt x="218" y="116" on="1"/>
        <pt x="489" y="116" on="1"/>
        <pt x="489" y="0" on="1"/>
        <pt x="66" y="0" on="1"/>
      </contour>
      <contour>
        <pt x="228" y="814" on="1"/>
        <pt x="229" y="791" on="0"/>
        <pt x="254" y="764" on="0"/>
        <pt x="281" y="764" on="1"/>
        <pt x="330" y="764" on="0"/>
        <pt x="332" y="814" on="1"/>
        <pt x="414" y="814" on="1"/>
        <pt x="414" y="753" on="0"/>
        <pt x="345" y="685" on="0"/>
        <pt x="280" y="685" on="1"/>
        <pt x="244" y="685" on="0"/>
        <pt x="193" y="706" on="0"/>
        <pt x="160" y="741" on="0"/>
        <pt x="145" y="788" on="0"/>
        <pt x="145" y="814" on="1"/>
      </contour>
    </TTGlyph>
    <TTGlyph name="Ecaron" xMin="66" yMin="0" xMax="489" yMax="814">
      <contour>
        <pt x="66" y="630" on="1"/>
        <pt x="486" y="630" on="1"/>
        <pt x="486" y="514" on="1"/>
        <pt x="218" y="514" on="1"/>
        <pt x="218" y="385" on="1"/>
        <pt x="460" y="385" on="1"/>
        <pt x="460" y="270" on="1"/>
        <pt x="218" y="270" on="1"/>
        <pt x="218" y="116" on="1"/>
        <pt x="489" y="116" on="1"/>
        <pt x="489" y="0" on="1"/>
        <pt x="66" y="0" on="1"/>
      </contour>
      <contour>
        <pt x="333" y="690" on="1"/>
        <pt x="224" y="690" on="1"/>
        <pt x="109" y="814" on="1"/>
        <pt x="219" y="814" on="1"/>
        <pt x="279" y="750" on="1"/>
        <pt x="339" y="814" on="1"/>
        <pt x="445" y="814" on="1"/>
      </contour>
    </TTGlyph>
    <TTGlyph name="Ecircumflex" xMin="66" yMin="0" xMax="489" yMax="814">
      <contour>
        <pt x="66" y="630" on="1"/>
        <pt x="486" y="630" on="1"/>
        <pt x="486" y="514" on="1"/>
        <pt x="218" y="514" on="1"/>
        <pt x="218" y="385" on="1"/>
        <pt x="460" y="385" on="1"/>
        <pt x="460" y="270" on="1"/>
        <pt x="218" y="270" on="1"/>
        <pt x="218" y="116" on="1"/>
        <pt x="489" y="116" on="1"/>
        <pt x="489" y="0" on="1"/>
        <pt x="66" y="0" on="1"/>
      </contour>
      <contour>
        <pt x="215" y="814" on="1"/>
        <pt x="324" y="814" on="1"/>
        <pt x="439" y="690" on="1"/>
        <pt x="329" y="690" on="1"/>
        <pt x="269" y="754" on="1"/>
        <pt x="209" y="690" on="1"/>
        <pt x="103" y="690" on="1"/>
      </contour>
    </TTGlyph>
    <TTGlyph name="Edieresis" xMin="66" yMin="0" xMax="489" yMax="814">
      <contour>
        <pt x="66" y="630" on="1"/>
        <pt x="486" y="630" on="1"/>
        <pt x="486" y="514" on="1"/>
        <pt x="218" y="514" on="1"/>
        <pt x="218" y="385" on="1"/>
        <pt x="460" y="385" on="1"/>
        <pt x="460" y="270" on="1"/>
        <pt x="218" y="270" on="1"/>
        <pt x="218" y="116" on="1"/>
        <pt x="489" y="116" on="1"/>
        <pt x="489" y="0" on="1"/>
        <pt x="66" y="0" on="1"/>
      </contour>
      <contour>
        <pt x="104" y="748" on="1"/>
        <pt x="104" y="776" on="0"/>
        <pt x="143" y="814" on="0"/>
        <pt x="172" y="814" on="1"/>
        <pt x="201" y="814" on="0"/>
        <pt x="239" y="776" on="0"/>
        <pt x="239" y="748" on="1"/>
        <pt x="239" y="719" on="0"/>
        <pt x="201" y="679" on="0"/>
        <pt x="172" y="679" on="1"/>
        <pt x="143" y="679" on="0"/>
        <pt x="104" y="719" on="0"/>
      </contour>
      <contour>
        <pt x="309" y="748" on="1"/>
        <pt x="309" y="776" on="0"/>
        <pt x="348" y="814" on="0"/>
        <pt x="377" y="814" on="1"/>
        <pt x="406" y="814" on="0"/>
        <pt x="444" y="776" on="0"/>
        <pt x="444" y="748" on="1"/>
        <pt x="444" y="719" on="0"/>
        <pt x="406" y="679" on="0"/>
        <pt x="377" y="679" on="1"/>
        <pt x="348" y="679" on="0"/>
        <pt x="309" y="719" on="0"/>
      </contour>
    </TTGlyph>
    <TTGlyph name="Edotaccent" xMin="66" yMin="0" xMax="489" yMax="814">
      <contour>
        <pt x="66" y="630" on="1"/>
        <pt x="486" y="630" on="1"/>
        <pt x="486" y="514" on="1"/>
        <pt x="218" y="514" on="1"/>
        <pt x="218" y="385" on="1"/>
        <pt x="460" y="385" on="1"/>
        <pt x="460" y="270" on="1"/>
        <pt x="218" y="270" on="1"/>
        <pt x="218" y="116" on="1"/>
        <pt x="489" y="116" on="1"/>
        <pt x="489" y="0" on="1"/>
        <pt x="66" y="0" on="1"/>
      </contour>
      <contour>
        <pt x="214" y="748" on="1"/>
        <pt x="214" y="776" on="0"/>
        <pt x="253" y="814" on="0"/>
        <pt x="282" y="814" on="1"/>
        <pt x="311" y="814" on="0"/>
        <pt x="349" y="776" on="0"/>
        <pt x="349" y="748" on="1"/>
        <pt x="349" y="719" on="0"/>
        <pt x="311" y="679" on="0"/>
        <pt x="282" y="679" on="1"/>
        <pt x="253" y="679" on="0"/>
        <pt x="214" y="719" on="0"/>
      </contour>
    </TTGlyph>
    <TTGlyph name="Egrave" xMin="66" yMin="0" xMax="489" yMax="814">
      <contour>
        <pt x="66" y="630" on="1"/>
        <pt x="486" y="630" on="1"/>
        <pt x="486" y="514" on="1"/>
        <pt x="218" y="514" on="1"/>
        <pt x="218" y="385" on="1"/>
        <pt x="460" y="385" on="1"/>
        <pt x="460" y="270" on="1"/>
        <pt x="218" y="270" on="1"/>
        <pt x="218" y="116" on="1"/>
        <pt x="489" y="116" on="1"/>
        <pt x="489" y="0" on="1"/>
        <pt x="66" y="0" on="1"/>
      </contour>
      <contour>
        <pt x="160" y="814" on="1"/>
        <pt x="318" y="814" on="1"/>
        <pt x="398" y="690" on="1"/>
        <pt x="276" y="690" on="1"/>
      </contour>
    </TTGlyph>
    <TTGlyph name="Eight.gm" xMin="20" yMin="-3" xMax="579" yMax="566">
      <contour>
        <pt x="579" y="44" on="1"/>
        <pt x="553" y="25" on="0"/>
        <pt x="476" y="-3" on="0"/>
        <pt x="408" y="-3" on="1"/>
        <pt x="327" y="-3" on="0"/>
        <pt x="207" y="48" on="0"/>
        <pt x="128" y="143" on="0"/>
        <pt x="89" y="275" on="0"/>
        <pt x="89" y="356" on="1"/>
        <pt x="89" y="374" on="1"/>
        <pt x="60" y="379" on="0"/>
        <pt x="20" y="418" on="0"/>
        <pt x="20" y="451" on="1"/>
        <pt x="20" y="477" on="0"/>
        <pt x="42" y="520" on="0"/>
        <pt x="78" y="550" on="0"/>
        <pt x="127" y="566" on="0"/>
        <pt x="154" y="566" on="1"/>
        <pt x="177" y="566" on="0"/>
        <pt x="214" y="554" on="0"/>
        <pt x="222" y="546" on="1"/>
        <pt x="222" y="482" on="1"/>
        <pt x="550" y="482" on="1"/>
        <pt x="550" y="376" on="1"/>
        <pt x="220" y="376" on="1"/>
        <pt x="220" y="351" on="1"/>
        <pt x="220" y="286" on="0"/>
        <pt x="250" y="193" on="0"/>
        <pt x="302" y="133" on="0"/>
        <pt x="373" y="105" on="0"/>
        <pt x="414" y="105" on="1"/>
        <pt x="455" y="105" on="0"/>
        <pt x="513" y="125" on="0"/>
        <pt x="528" y="134" on="1"/>
      </contour>
    </TTGlyph>
    <TTGlyph name="EkOnkar.gm" xMin="30" yMin="-11" xMax="1409" yMax="899">
      <contour>
        <pt x="960" y="640" on="1"/>
        <pt x="944" y="676" on="0"/>
        <pt x="881" y="721" on="0"/>
        <pt x="834" y="721" on="1"/>
        <pt x="804" y="721" on="0"/>
        <pt x="756" y="699" on="0"/>
        <pt x="721" y="663" on="0"/>
        <pt x="698" y="619" on="0"/>
        <pt x="693" y="597" on="1"/>
        <pt x="1170" y="597" on="1"/>
        <pt x="1170" y="494" on="1"/>
        <pt x="1100" y="494" on="1"/>
        <pt x="1096" y="430" on="0"/>
        <pt x="1026" y="330" on="0"/>
        <pt x="980" y="305" on="1"/>
        <pt x="994" y="299" on="0"/>
        <pt x="1023" y="278" on="0"/>
        <pt x="1046" y="243" on="0"/>
        <pt x="1061" y="196" on="0"/>
        <pt x="1061" y="165" on="1"/>
        <pt x="1061" y="123" on="0"/>
        <pt x="1027" y="58" on="0"/>
        <pt x="966" y="13" on="0"/>
        <pt x="883" y="-11" on="0"/>
        <pt x="835" y="-11" on="1"/>
        <pt x="776" y="-11" on="0"/>
        <pt x="670" y="29" on="0"/>
        <pt x="589" y="124" on="0"/>
        <pt x="541" y="282" on="0"/>
        <pt x="541" y="399" on="1"/>
        <pt x="541" y="515" on="0"/>
        <pt x="586" y="676" on="0"/>
        <pt x="664" y="777" on="0"/>
        <pt x="771" y="822" on="0"/>
        <pt x="834" y="822" on="1"/>
        <pt x="894" y="822" on="0"/>
        <pt x="987" y="774" on="0"/>
        <pt x="1019" y="730" on="1"/>
        <pt x="1029" y="755" on="0"/>
        <pt x="1056" y="788" on="0"/>
        <pt x="1094" y="809" on="0"/>
        <pt x="1146" y="820" on="0"/>
        <pt x="1182" y="824" on="1"/>
        <pt x="1240" y="830" on="1"/>
        <pt x="1269" y="833" on="0"/>
        <pt x="1309" y="859" on="0"/>
        <pt x="1314" y="899" on="1"/>
        <pt x="1409" y="899" on="1"/>
        <pt x="1409" y="887" on="1"/>
        <pt x="1409" y="807" on="0"/>
        <pt x="1327" y="732" on="0"/>
        <pt x="1251" y="724" on="1"/>
        <pt x="1186" y="717" on="1"/>
        <pt x="1141" y="712" on="0"/>
        <pt x="1099" y="684" on="0"/>
        <pt x="1094" y="652" on="1"/>
        <pt x="1092" y="640" on="1"/>
      </contour>
      <contour>
        <pt x="30" y="418" on="1"/>
        <pt x="30" y="460" on="0"/>
        <pt x="61" y="529" on="0"/>
        <pt x="116" y="577" on="0"/>
        <pt x="191" y="604" on="0"/>
        <pt x="235" y="604" on="1"/>
        <pt x="288" y="604" on="0"/>
        <pt x="366" y="571" on="0"/>
        <pt x="417" y="516" on="0"/>
        <pt x="441" y="446" on="0"/>
        <pt x="441" y="409" on="1"/>
        <pt x="441" y="155" on="1"/>
        <pt x="441" y="131" on="0"/>
        <pt x="465" y="104" on="0"/>
        <pt x="497" y="104" on="1"/>
        <pt x="509" y="104" on="1"/>
        <pt x="505" y="-3" on="1"/>
        <pt x="494" y="-5" on="0"/>
        <pt x="478" y="-6" on="0"/>
        <pt x="464" y="-6" on="1"/>
        <pt x="392" y="-6" on="0"/>
        <pt x="319" y="74" on="0"/>
        <pt x="319" y="140" on="1"/>
        <pt x="319" y="257" on="1"/>
        <pt x="305" y="249" on="0"/>
        <pt x="261" y="236" on="0"/>
        <pt x="229" y="236" on="1"/>
        <pt x="187" y="236" on="0"/>
        <pt x="114" y="259" on="0"/>
        <pt x="61" y="305" on="0"/>
        <pt x="30" y="373" on="0"/>
      </contour>
      <contour>
        <pt x="816" y="361" on="1"/>
        <pt x="883" y="361" on="0"/>
        <pt x="956" y="431" on="0"/>
        <pt x="964" y="494" on="1"/>
        <pt x="676" y="494" on="1"/>
        <pt x="674" y="474" on="0"/>
        <pt x="671" y="427" on="0"/>
        <pt x="671" y="409" on="1"/>
        <pt x="671" y="398" on="0"/>
        <pt x="671" y="374" on="0"/>
        <pt x="672" y="361" on="1"/>
      </contour>
      <contour>
        <pt x="927" y="175" on="1"/>
        <pt x="927" y="213" on="0"/>
        <pt x="878" y="263" on="0"/>
        <pt x="835" y="263" on="1"/>
        <pt x="682" y="263" on="1"/>
        <pt x="692" y="182" on="0"/>
        <pt x="770" y="92" on="0"/>
        <pt x="833" y="92" on="1"/>
        <pt x="875" y="92" on="0"/>
        <pt x="927" y="136" on="0"/>
      </contour>
      <contour>
        <pt x="159" y="418" on="1"/>
        <pt x="159" y="376" on="0"/>
        <pt x="206" y="336" on="0"/>
        <pt x="240" y="336" on="1"/>
        <pt x="267" y="336" on="0"/>
        <pt x="304" y="354" on="0"/>
        <pt x="314" y="362" on="1"/>
        <pt x="314" y="417" on="1"/>
        <pt x="314" y="459" on="0"/>
        <pt x="269" y="497" on="0"/>
        <pt x="236" y="497" on="1"/>
        <pt x="204" y="497" on="0"/>
        <pt x="159" y="454" on="0"/>
      </contour>
    </TTGlyph>
    <TTGlyph name="Ek_Type" xMin="100" yMin="-312" xMax="1089" yMax="636">
      <contour>
        <pt x="800" y="531" on="1"/>
        <pt x="800" y="403" on="1"/>
        <pt x="814" y="421" on="0"/>
        <pt x="867" y="447" on="0"/>
        <pt x="902" y="447" on="1"/>
        <pt x="977" y="447" on="0"/>
        <pt x="1062" y="351" on="0"/>
        <pt x="1062" y="266" on="1"/>
        <pt x="1062" y="224" on="0"/>
        <pt x="1037" y="156" on="0"/>
        <pt x="991" y="107" on="0"/>
        <pt x="925" y="81" on="0"/>
        <pt x="885" y="81" on="1"/>
        <pt x="876" y="81" on="0"/>
        <pt x="852" y="84" on="0"/>
        <pt x="841" y="87" on="1"/>
        <pt x="854" y="184" on="1"/>
        <pt x="869" y="184" on="1"/>
        <pt x="927" y="184" on="0"/>
        <pt x="927" y="266" on="1"/>
        <pt x="927" y="301" on="0"/>
        <pt x="894" y="340" on="0"/>
        <pt x="865" y="340" on="1"/>
        <pt x="836" y="340" on="0"/>
        <pt x="807" y="299" on="0"/>
        <pt x="803" y="276" on="1"/>
        <pt x="803" y="0" on="1"/>
        <pt x="672" y="0" on="1"/>
        <pt x="672" y="113" on="1"/>
        <pt x="657" y="95" on="0"/>
        <pt x="603" y="74" on="0"/>
        <pt x="579" y="74" on="1"/>
        <pt x="549" y="74" on="0"/>
        <pt x="489" y="94" on="0"/>
        <pt x="441" y="139" on="0"/>
        <pt x="411" y="211" on="0"/>
        <pt x="411" y="263" on="1"/>
        <pt x="411" y="352" on="0"/>
        <pt x="493" y="447" on="0"/>
        <pt x="568" y="447" on="1"/>
        <pt x="600" y="447" on="0"/>
        <pt x="654" y="428" on="0"/>
        <pt x="672" y="411" on="1"/>
        <pt x="672" y="531" on="1"/>
        <pt x="330" y="531" on="1"/>
        <pt x="330" y="50" on="1"/>
        <pt x="549" y="-40" on="0"/>
        <pt x="818" y="-164" on="0"/>
        <pt x="883" y="-197" on="1"/>
        <pt x="822" y="-312" on="1"/>
        <pt x="778" y="-291" on="0"/>
        <pt x="661" y="-235" on="0"/>
        <pt x="507" y="-163" on="0"/>
        <pt x="314" y="-73" on="0"/>
        <pt x="195" y="-18" on="1"/>
        <pt x="195" y="531" on="1"/>
        <pt x="100" y="531" on="1"/>
        <pt x="100" y="636" on="1"/>
        <pt x="1089" y="636" on="1"/>
        <pt x="1089" y="531" on="1"/>
      </contour>
      <contour>
        <pt x="675" y="309" on="1"/>
        <pt x="665" y="320" on="0"/>
        <pt x="633" y="338" on="0"/>
        <pt x="613" y="338" on="1"/>
        <pt x="584" y="338" on="0"/>
        <pt x="548" y="297" on="0"/>
        <pt x="548" y="262" on="1"/>
        <pt x="548" y="225" on="0"/>
        <pt x="582" y="182" on="0"/>
        <pt x="611" y="182" on="1"/>
        <pt x="667" y="182" on="0"/>
        <pt x="675" y="236" on="1"/>
      </contour>
    </TTGlyph>
    <TTGlyph name="Emacron" xMin="66" yMin="0" xMax="489" yMax="772">
      <contour>
        <pt x="66" y="630" on="1"/>
        <pt x="486" y="630" on="1"/>
        <pt x="486" y="514" on="1"/>
        <pt x="218" y="514" on="1"/>
        <pt x="218" y="385" on="1"/>
        <pt x="460" y="385" on="1"/>
        <pt x="460" y="270" on="1"/>
        <pt x="218" y="270" on="1"/>
        <pt x="218" y="116" on="1"/>
        <pt x="489" y="116" on="1"/>
        <pt x="489" y="0" on="1"/>
        <pt x="66" y="0" on="1"/>
      </contour>
      <contour>
        <pt x="400" y="772" on="1"/>
        <pt x="400" y="690" on="1"/>
        <pt x="140" y="690" on="1"/>
        <pt x="140" y="772" on="1"/>
      </contour>
    </TTGlyph>
    <TTGlyph name="Eng" xMin="66" yMin="-249" xMax="604" yMax="630">
      <contour>
        <pt x="66" y="630" on="1"/>
        <pt x="206" y="630" on="1"/>
        <pt x="344" y="419" on="1"/>
        <pt x="381" y="360" on="0"/>
        <pt x="450" y="235" on="0"/>
        <pt x="469" y="185" on="1"/>
        <pt x="471" y="185" on="1"/>
        <pt x="466" y="245" on="0"/>
        <pt x="464" y="366" on="0"/>
        <pt x="464" y="426" on="1"/>
        <pt x="464" y="630" on="1"/>
        <pt x="604" y="630" on="1"/>
        <pt x="604" y="97" on="1"/>
        <pt x="604" y="37" on="0"/>
        <pt x="586" y="-67" on="0"/>
        <pt x="541" y="-154" on="0"/>
        <pt x="466" y="-224" on="0"/>
        <pt x="409" y="-249" on="1"/>
        <pt x="347" y="-150" on="1"/>
        <pt x="388" y="-124" on="0"/>
        <pt x="447" y="-54" on="0"/>
        <pt x="458" y="-1" on="1"/>
        <pt x="318" y="215" on="1"/>
        <pt x="282" y="268" on="0"/>
        <pt x="222" y="378" on="0"/>
        <pt x="201" y="439" on="1"/>
        <pt x="199" y="439" on="1"/>
        <pt x="204" y="376" on="0"/>
        <pt x="206" y="260" on="0"/>
        <pt x="206" y="200" on="1"/>
        <pt x="206" y="0" on="1"/>
        <pt x="66" y="0" on="1"/>
      </contour>
    </TTGlyph>
    <TTGlyph name="Eogonek" xMin="66" yMin="-206" xMax="549" yMax="630">
      <contour>
        <pt x="66" y="630" on="1"/>
        <pt x="486" y="630" on="1"/>
        <pt x="486" y="514" on="1"/>
        <pt x="218" y="514" on="1"/>
        <pt x="218" y="385" on="1"/>
        <pt x="460" y="385" on="1"/>
        <pt x="460" y="270" on="1"/>
        <pt x="218" y="270" on="1"/>
        <pt x="218" y="116" on="1"/>
        <pt x="489" y="116" on="1"/>
        <pt x="489" y="0" on="1"/>
        <pt x="472" y="-17" on="0"/>
        <pt x="449" y="-55" on="0"/>
        <pt x="449" y="-75" on="1"/>
        <pt x="449" y="-94" on="0"/>
        <pt x="470" y="-116" on="0"/>
        <pt x="490" y="-116" on="1"/>
        <pt x="503" y="-116" on="0"/>
        <pt x="521" y="-111" on="0"/>
        <pt x="529" y="-108" on="1"/>
        <pt x="549" y="-184" on="1"/>
        <pt x="533" y="-194" on="0"/>
        <pt x="488" y="-206" on="0"/>
        <pt x="462" y="-206" on="1"/>
        <pt x="416" y="-206" on="0"/>
        <pt x="355" y="-151" on="0"/>
        <pt x="355" y="-104" on="1"/>
        <pt x="355" y="-69" on="0"/>
        <pt x="380" y="-19" on="0"/>
        <pt x="397" y="-3" on="1"/>
        <pt x="397" y="0" on="1"/>
        <pt x="66" y="0" on="1"/>
      </contour>
    </TTGlyph>
    <TTGlyph name="Esmall" xMin="58" yMin="0" xMax="407" yMax="480">
      <contour>
        <pt x="58" y="480" on="1"/>
        <pt x="405" y="480" on="1"/>
        <pt x="405" y="372" on="1"/>
        <pt x="204" y="372" on="1"/>
        <pt x="204" y="296" on="1"/>
        <pt x="383" y="296" on="1"/>
        <pt x="383" y="189" on="1"/>
        <pt x="204" y="189" on="1"/>
        <pt x="204" y="108" on="1"/>
        <pt x="407" y="108" on="1"/>
        <pt x="407" y="0" on="1"/>
        <pt x="58" y="0" on="1"/>
      </contour>
    </TTGlyph>
    <TTGlyph name="Eth" xMin="20" yMin="0" xMax="662" yMax="630">
      <contour>
        <pt x="331" y="630" on="1"/>
        <pt x="406" y="630" on="0"/>
        <pt x="528" y="592" on="0"/>
        <pt x="615" y="516" on="0"/>
        <pt x="662" y="403" on="0"/>
        <pt x="662" y="328" on="1"/>
        <pt x="662" y="244" on="0"/>
        <pt x="606" y="121" on="0"/>
        <pt x="509" y="40" on="0"/>
        <pt x="379" y="0" on="0"/>
        <pt x="306" y="0" on="1"/>
        <pt x="106" y="0" on="1"/>
        <pt x="106" y="268" on="1"/>
        <pt x="20" y="268" on="1"/>
        <pt x="20" y="370" on="1"/>
        <pt x="106" y="370" on="1"/>
        <pt x="106" y="630" on="1"/>
      </contour>
      <contour>
        <pt x="370" y="370" on="1"/>
        <pt x="370" y="268" on="1"/>
        <pt x="258" y="268" on="1"/>
        <pt x="258" y="116" on="1"/>
        <pt x="297" y="116" on="1"/>
        <pt x="337" y="116" on="0"/>
        <pt x="412" y="136" on="0"/>
        <pt x="468" y="185" on="0"/>
        <pt x="502" y="267" on="0"/>
        <pt x="502" y="328" on="1"/>
        <pt x="502" y="419" on="0"/>
        <pt x="400" y="514" on="0"/>
        <pt x="313" y="514" on="1"/>
        <pt x="258" y="514" on="1"/>
        <pt x="258" y="370" on="1"/>
      </contour>
    </TTGlyph>
    <TTGlyph name="Euro" xMin="5" yMin="-10" xMax="516" yMax="610">
      <contour>
        <pt x="365" y="100" on="1"/>
        <pt x="407" y="100" on="0"/>
        <pt x="466" y="115" on="0"/>
        <pt x="486" y="127" on="1"/>
        <pt x="515" y="24" on="1"/>
        <pt x="495" y="13" on="0"/>
        <pt x="411" y="-10" on="0"/>
        <pt x="350" y="-10" on="1"/>
        <pt x="244" y="-10" on="0"/>
        <pt x="97" y="96" on="0"/>
        <pt x="71" y="198" on="1"/>
        <pt x="5" y="198" on="1"/>
        <pt x="5" y="265" on="1"/>
        <pt x="61" y="265" on="1"/>
        <pt x="60" y="273" on="0"/>
        <pt x="60" y="291" on="0"/>
        <pt x="60" y="300" on="1"/>
        <pt x="60" y="313" on="1"/>
        <pt x="5" y="313" on="1"/>
        <pt x="5" y="380" on="1"/>
        <pt x="66" y="380" on="1"/>
        <pt x="86" y="490" on="0"/>
        <pt x="235" y="610" on="0"/>
        <pt x="351" y="610" on="1"/>
        <pt x="414" y="610" on="0"/>
        <pt x="493" y="586" on="0"/>
        <pt x="516" y="574" on="1"/>
        <pt x="484" y="468" on="1"/>
        <pt x="462" y="481" on="0"/>
        <pt x="401" y="500" on="0"/>
        <pt x="366" y="500" on="1"/>
        <pt x="314" y="500" on="0"/>
        <pt x="235" y="447" on="0"/>
        <pt x="219" y="380" on="1"/>
        <pt x="438" y="380" on="1"/>
        <pt x="438" y="313" on="1"/>
        <pt x="212" y="313" on="1"/>
        <pt x="212" y="301" on="1"/>
        <pt x="212" y="291" on="0"/>
        <pt x="212" y="273" on="0"/>
        <pt x="213" y="265" on="1"/>
        <pt x="438" y="265" on="1"/>
        <pt x="438" y="198" on="1"/>
        <pt x="227" y="198" on="1"/>
        <pt x="246" y="145" on="0"/>
        <pt x="319" y="100" on="0"/>
      </contour>
    </TTGlyph>
    <TTGlyph name="Euro.lat" xMin="5" yMin="-11" xMax="543" yMax="642">
      <contour>
        <pt x="384" y="105" on="1"/>
        <pt x="429" y="105" on="0"/>
        <pt x="491" y="121" on="0"/>
        <pt x="512" y="134" on="1"/>
        <pt x="542" y="25" on="1"/>
        <pt x="522" y="13" on="0"/>
        <pt x="433" y="-11" on="0"/>
        <pt x="368" y="-11" on="1"/>
        <pt x="257" y="-11" on="0"/>
        <pt x="102" y="101" on="0"/>
        <pt x="75" y="208" on="1"/>
        <pt x="5" y="208" on="1"/>
        <pt x="5" y="279" on="1"/>
        <pt x="64" y="279" on="1"/>
        <pt x="63" y="288" on="0"/>
        <pt x="63" y="306" on="0"/>
        <pt x="63" y="316" on="1"/>
        <pt x="63" y="329" on="1"/>
        <pt x="5" y="329" on="1"/>
        <pt x="5" y="400" on="1"/>
        <pt x="70" y="400" on="1"/>
        <pt x="91" y="516" on="0"/>
        <pt x="247" y="642" on="0"/>
        <pt x="370" y="642" on="1"/>
        <pt x="436" y="642" on="0"/>
        <pt x="519" y="617" on="0"/>
        <pt x="543" y="604" on="1"/>
        <pt x="509" y="493" on="1"/>
        <pt x="486" y="506" on="0"/>
        <pt x="423" y="526" on="0"/>
        <pt x="385" y="526" on="1"/>
        <pt x="358" y="526" on="0"/>
        <pt x="309" y="513" on="0"/>
        <pt x="269" y="484" on="0"/>
        <pt x="239" y="436" on="0"/>
        <pt x="231" y="400" on="1"/>
        <pt x="461" y="400" on="1"/>
        <pt x="461" y="329" on="1"/>
        <pt x="223" y="329" on="1"/>
        <pt x="223" y="317" on="1"/>
        <pt x="223" y="306" on="0"/>
        <pt x="223" y="288" on="0"/>
        <pt x="224" y="279" on="1"/>
        <pt x="461" y="279" on="1"/>
        <pt x="461" y="208" on="1"/>
        <pt x="239" y="208" on="1"/>
        <pt x="259" y="153" on="0"/>
        <pt x="336" y="105" on="0"/>
      </contour>
    </TTGlyph>
    <TTGlyph name="F" xMin="66" yMin="0" xMax="476" yMax="630">
      <contour>
        <pt x="476" y="630" on="1"/>
        <pt x="476" y="514" on="1"/>
        <pt x="218" y="514" on="1"/>
        <pt x="218" y="360" on="1"/>
        <pt x="454" y="360" on="1"/>
        <pt x="454" y="245" on="1"/>
        <pt x="218" y="245" on="1"/>
        <pt x="218" y="0" on="1"/>
        <pt x="66" y="0" on="1"/>
        <pt x="66" y="630" on="1"/>
      </contour>
    </TTGlyph>
    <TTGlyph name="Fa.gm" xMin="-24" yMin="-101" xMax="589" yMax="597">
      <contour>
        <pt x="-20" y="597" on="1"/>
        <pt x="589" y="597" on="1"/>
        <pt x="589" y="494" on="1"/>
        <pt x="504" y="494" on="1"/>
        <pt x="504" y="316" on="1"/>
        <pt x="264" y="316" on="1"/>
        <pt x="215" y="316" on="0"/>
        <pt x="164" y="268" on="0"/>
        <pt x="164" y="231" on="1"/>
        <pt x="164" y="205" on="0"/>
        <pt x="183" y="164" on="0"/>
        <pt x="197" y="149" on="1"/>
        <pt x="242" y="205" on="0"/>
        <pt x="340" y="251" on="0"/>
        <pt x="391" y="251" on="1"/>
        <pt x="423" y="251" on="0"/>
        <pt x="478" y="234" on="0"/>
        <pt x="518" y="202" on="0"/>
        <pt x="541" y="157" on="0"/>
        <pt x="541" y="129" on="1"/>
        <pt x="541" y="101" on="0"/>
        <pt x="518" y="48" on="0"/>
        <pt x="468" y="8" on="0"/>
        <pt x="389" y="-17" on="0"/>
        <pt x="333" y="-17" on="1"/>
        <pt x="275" y="-17" on="0"/>
        <pt x="166" y="20" on="0"/>
        <pt x="82" y="87" on="0"/>
        <pt x="31" y="179" on="0"/>
        <pt x="31" y="233" on="1"/>
        <pt x="31" y="325" on="0"/>
        <pt x="140" y="420" on="0"/>
        <pt x="230" y="420" on="1"/>
        <pt x="373" y="420" on="1"/>
        <pt x="373" y="494" on="1"/>
        <pt x="-20" y="494" on="1"/>
      </contour>
      <contour>
        <pt x="381" y="161" on="1"/>
        <pt x="327" y="161" on="0"/>
        <pt x="276" y="90" on="1"/>
        <pt x="299" y="82" on="0"/>
        <pt x="334" y="82" on="1"/>
        <pt x="383" y="82" on="0"/>
        <pt x="417" y="110" on="0"/>
        <pt x="417" y="129" on="1"/>
        <pt x="417" y="143" on="0"/>
        <pt x="395" y="161" on="0"/>
      </contour>
      <contour>
        <pt x="-24" y="-41" on="1"/>
        <pt x="-24" y="-13" on="0"/>
        <pt x="11" y="23" on="0"/>
        <pt x="37" y="23" on="1"/>
        <pt x="64" y="23" on="0"/>
        <pt x="98" y="-15" on="0"/>
        <pt x="98" y="-41" on="1"/>
        <pt x="98" y="-67" on="0"/>
        <pt x="64" y="-101" on="0"/>
        <pt x="37" y="-101" on="1"/>
        <pt x="11" y="-101" on="0"/>
        <pt x="-24" y="-68" on="0"/>
      </contour>
    </TTGlyph>
    <TTGlyph name="FaVirama.gm" xMin="-25" yMin="-325" xMax="609" yMax="597">
      <contour>
        <pt x="-20" y="597" on="1"/>
        <pt x="589" y="597" on="1"/>
        <pt x="589" y="494" on="1"/>
        <pt x="504" y="494" on="1"/>
        <pt x="504" y="316" on="1"/>
        <pt x="264" y="316" on="1"/>
        <pt x="215" y="316" on="0"/>
        <pt x="164" y="268" on="0"/>
        <pt x="164" y="231" on="1"/>
        <pt x="164" y="205" on="0"/>
        <pt x="183" y="164" on="0"/>
        <pt x="197" y="149" on="1"/>
        <pt x="242" y="205" on="0"/>
        <pt x="340" y="251" on="0"/>
        <pt x="391" y="251" on="1"/>
        <pt x="423" y="251" on="0"/>
        <pt x="478" y="234" on="0"/>
        <pt x="518" y="202" on="0"/>
        <pt x="541" y="157" on="0"/>
        <pt x="541" y="129" on="1"/>
        <pt x="541" y="101" on="0"/>
        <pt x="518" y="48" on="0"/>
        <pt x="468" y="8" on="0"/>
        <pt x="389" y="-17" on="0"/>
        <pt x="333" y="-17" on="1"/>
        <pt x="275" y="-17" on="0"/>
        <pt x="166" y="20" on="0"/>
        <pt x="82" y="87" on="0"/>
        <pt x="31" y="179" on="0"/>
        <pt x="31" y="233" on="1"/>
        <pt x="31" y="325" on="0"/>
        <pt x="140" y="420" on="0"/>
        <pt x="230" y="420" on="1"/>
        <pt x="373" y="420" on="1"/>
        <pt x="373" y="494" on="1"/>
        <pt x="-20" y="494" on="1"/>
      </contour>
      <contour>
        <pt x="381" y="161" on="1"/>
        <pt x="327" y="161" on="0"/>
        <pt x="276" y="90" on="1"/>
        <pt x="299" y="82" on="0"/>
        <pt x="334" y="82" on="1"/>
        <pt x="383" y="82" on="0"/>
        <pt x="417" y="110" on="0"/>
        <pt x="417" y="129" on="1"/>
        <pt x="417" y="143" on="0"/>
        <pt x="395" y="161" on="0"/>
      </contour>
      <contour>
        <pt x="-25" y="-36" on="1"/>
        <pt x="-25" y="-8" on="0"/>
        <pt x="10" y="28" on="0"/>
        <pt x="36" y="28" on="1"/>
        <pt x="63" y="28" on="0"/>
        <pt x="97" y="-10" on="0"/>
        <pt x="97" y="-36" on="1"/>
        <pt x="97" y="-62" on="0"/>
        <pt x="63" y="-96" on="0"/>
        <pt x="36" y="-96" on="1"/>
        <pt x="10" y="-96" on="0"/>
        <pt x="-25" y="-63" on="0"/>
      </contour>
      <contour>
        <pt x="609" y="-241" on="1"/>
        <pt x="537" y="-325" on="1"/>
        <pt x="293" y="-153" on="1"/>
        <pt x="375" y="-50" on="1"/>
      </contour>
    </TTGlyph>
    <TTGlyph name="Five.gm" xMin="33" yMin="0" xMax="534" yMax="601">
      <contour>
        <pt x="401" y="121" on="1"/>
        <pt x="380" y="110" on="0"/>
        <pt x="323" y="97" on="0"/>
        <pt x="285" y="97" on="1"/>
        <pt x="204" y="97" on="0"/>
        <pt x="74" y="164" on="0"/>
        <pt x="33" y="239" on="1"/>
        <pt x="60" y="283" on="0"/>
        <pt x="86" y="376" on="0"/>
        <pt x="86" y="418" on="1"/>
        <pt x="86" y="462" on="0"/>
        <pt x="63" y="531" on="0"/>
        <pt x="53" y="554" on="1"/>
        <pt x="163" y="601" on="1"/>
        <pt x="183" y="569" on="0"/>
        <pt x="219" y="469" on="0"/>
        <pt x="219" y="415" on="1"/>
        <pt x="219" y="363" on="0"/>
        <pt x="192" y="283" on="0"/>
        <pt x="175" y="249" on="1"/>
        <pt x="190" y="226" on="0"/>
        <pt x="253" y="202" on="0"/>
        <pt x="291" y="202" on="1"/>
        <pt x="356" y="202" on="0"/>
        <pt x="401" y="235" on="1"/>
        <pt x="401" y="597" on="1"/>
        <pt x="534" y="597" on="1"/>
        <pt x="534" y="0" on="1"/>
        <pt x="401" y="0" on="1"/>
      </contour>
    </TTGlyph>
    <TTGlyph name="Four.gm" xMin="50" yMin="-12" xMax="541" yMax="604">
      <contour>
        <pt x="298" y="347" on="1"/>
        <pt x="321" y="350" on="0"/>
        <pt x="364" y="365" on="0"/>
        <pt x="397" y="388" on="0"/>
        <pt x="417" y="418" on="0"/>
        <pt x="417" y="437" on="1"/>
        <pt x="417" y="453" on="0"/>
        <pt x="406" y="476" on="0"/>
        <pt x="389" y="492" on="0"/>
        <pt x="369" y="503" on="0"/>
        <pt x="359" y="506" on="1"/>
        <pt x="393" y="603" on="1"/>
        <pt x="420" y="598" on="0"/>
        <pt x="473" y="572" on="0"/>
        <pt x="515" y="532" on="0"/>
        <pt x="541" y="476" on="0"/>
        <pt x="541" y="440" on="1"/>
        <pt x="541" y="411" on="0"/>
        <pt x="523" y="365" on="0"/>
        <pt x="494" y="331" on="0"/>
        <pt x="461" y="307" on="0"/>
        <pt x="446" y="300" on="1"/>
        <pt x="487" y="277" on="0"/>
        <pt x="534" y="208" on="0"/>
        <pt x="534" y="161" on="1"/>
        <pt x="534" y="119" on="0"/>
        <pt x="499" y="55" on="0"/>
        <pt x="436" y="11" on="0"/>
        <pt x="349" y="-12" on="0"/>
        <pt x="297" y="-12" on="1"/>
        <pt x="247" y="-12" on="0"/>
        <pt x="160" y="9" on="0"/>
        <pt x="96" y="53" on="0"/>
        <pt x="60" y="119" on="0"/>
        <pt x="60" y="163" on="1"/>
        <pt x="60" y="217" on="0"/>
        <pt x="111" y="283" on="0"/>
        <pt x="149" y="301" on="1"/>
        <pt x="107" y="317" on="0"/>
        <pt x="50" y="386" on="0"/>
        <pt x="50" y="446" on="1"/>
        <pt x="50" y="480" on="0"/>
        <pt x="73" y="534" on="0"/>
        <pt x="112" y="573" on="0"/>
        <pt x="162" y="599" on="0"/>
        <pt x="189" y="604" on="1"/>
        <pt x="226" y="506" on="1"/>
        <pt x="208" y="498" on="0"/>
        <pt x="176" y="468" on="0"/>
        <pt x="176" y="436" on="1"/>
        <pt x="176" y="400" on="0"/>
        <pt x="244" y="354" on="0"/>
      </contour>
      <contour>
        <pt x="297" y="260" on="1"/>
        <pt x="278" y="257" on="0"/>
        <pt x="243" y="242" on="0"/>
        <pt x="215" y="219" on="0"/>
        <pt x="198" y="188" on="0"/>
        <pt x="198" y="170" on="1"/>
        <pt x="198" y="134" on="0"/>
        <pt x="254" y="96" on="0"/>
        <pt x="299" y="96" on="1"/>
        <pt x="344" y="96" on="0"/>
        <pt x="397" y="136" on="0"/>
        <pt x="397" y="172" on="1"/>
        <pt x="397" y="188" on="0"/>
        <pt x="381" y="218" on="0"/>
        <pt x="354" y="242" on="0"/>
        <pt x="318" y="257" on="0"/>
      </contour>
    </TTGlyph>
    <TTGlyph name="Fsmall" xMin="58" yMin="0" xMax="396" yMax="480">
      <contour>
        <pt x="396" y="480" on="1"/>
        <pt x="396" y="372" on="1"/>
        <pt x="206" y="372" on="1"/>
        <pt x="206" y="275" on="1"/>
        <pt x="378" y="275" on="1"/>
        <pt x="378" y="167" on="1"/>
        <pt x="206" y="167" on="1"/>
        <pt x="206" y="0" on="1"/>
        <pt x="58" y="0" on="1"/>
        <pt x="58" y="480" on="1"/>
      </contour>
    </TTGlyph>
    <TTGlyph name="G" xMin="38" yMin="-11" xMax="588" yMax="642">
      <contour>
        <pt x="377" y="642" on="1"/>
        <pt x="437" y="642" on="0"/>
        <pt x="530" y="622" on="0"/>
        <pt x="566" y="605" on="1"/>
        <pt x="535" y="505" on="1"/>
        <pt x="501" y="522" on="0"/>
        <pt x="426" y="537" on="0"/>
        <pt x="391" y="537" on="1"/>
        <pt x="351" y="537" on="0"/>
        <pt x="281" y="511" on="0"/>
        <pt x="228" y="456" on="0"/>
        <pt x="198" y="372" on="0"/>
        <pt x="198" y="314" on="1"/>
        <pt x="198" y="208" on="0"/>
        <pt x="291" y="95" on="0"/>
        <pt x="378" y="95" on="1"/>
        <pt x="399" y="95" on="0"/>
        <pt x="433" y="99" on="0"/>
        <pt x="442" y="103" on="1"/>
        <pt x="442" y="240" on="1"/>
        <pt x="343" y="240" on="1"/>
        <pt x="343" y="352" on="1"/>
        <pt x="588" y="352" on="1"/>
        <pt x="588" y="28" on="1"/>
        <pt x="549" y="11" on="0"/>
        <pt x="443" y="-11" on="0"/>
        <pt x="377" y="-11" on="1"/>
        <pt x="305" y="-11" on="0"/>
        <pt x="182" y="31" on="0"/>
        <pt x="90" y="114" on="0"/>
        <pt x="38" y="235" on="0"/>
        <pt x="38" y="314" on="1"/>
        <pt x="38" y="393" on="0"/>
        <pt x="90" y="516" on="0"/>
        <pt x="182" y="599" on="0"/>
        <pt x="305" y="642" on="0"/>
      </contour>
    </TTGlyph>
    <TTGlyph name="Ga.gm" xMin="-20" yMin="-12" xMax="812" yMax="597">
      <contour>
        <pt x="-20" y="597" on="1"/>
        <pt x="812" y="597" on="1"/>
        <pt x="812" y="494" on="1"/>
        <pt x="727" y="494" on="1"/>
        <pt x="727" y="0" on="1"/>
        <pt x="594" y="0" on="1"/>
        <pt x="594" y="494" on="1"/>
        <pt x="474" y="494" on="1"/>
        <pt x="474" y="150" on="1"/>
        <pt x="474" y="112" on="0"/>
        <pt x="445" y="52" on="0"/>
        <pt x="393" y="10" on="0"/>
        <pt x="320" y="-12" on="0"/>
        <pt x="276" y="-12" on="1"/>
        <pt x="225" y="-12" on="0"/>
        <pt x="135" y="21" on="0"/>
        <pt x="67" y="81" on="0"/>
        <pt x="28" y="166" on="0"/>
        <pt x="28" y="219" on="1"/>
        <pt x="28" y="266" on="0"/>
        <pt x="58" y="329" on="0"/>
        <pt x="109" y="368" on="0"/>
        <pt x="178" y="385" on="0"/>
        <pt x="217" y="385" on="1"/>
        <pt x="341" y="385" on="1"/>
        <pt x="341" y="494" on="1"/>
        <pt x="-20" y="494" on="1"/>
      </contour>
      <contour>
        <pt x="276" y="92" on="1"/>
        <pt x="306" y="92" on="0"/>
        <pt x="341" y="123" on="0"/>
        <pt x="341" y="154" on="1"/>
        <pt x="341" y="281" on="1"/>
        <pt x="228" y="281" on="1"/>
        <pt x="161" y="281" on="0"/>
        <pt x="161" y="217" on="1"/>
        <pt x="161" y="188" on="0"/>
        <pt x="182" y="141" on="0"/>
        <pt x="215" y="109" on="0"/>
        <pt x="256" y="92" on="0"/>
      </contour>
    </TTGlyph>
    <TTGlyph name="GaVirama.gm" xMin="-20" yMin="-325" xMax="906" yMax="597">
      <contour>
        <pt x="-20" y="597" on="1"/>
        <pt x="812" y="597" on="1"/>
        <pt x="812" y="494" on="1"/>
        <pt x="727" y="494" on="1"/>
        <pt x="727" y="0" on="1"/>
        <pt x="594" y="0" on="1"/>
        <pt x="594" y="494" on="1"/>
        <pt x="474" y="494" on="1"/>
        <pt x="474" y="150" on="1"/>
        <pt x="474" y="112" on="0"/>
        <pt x="445" y="52" on="0"/>
        <pt x="393" y="10" on="0"/>
        <pt x="320" y="-12" on="0"/>
        <pt x="276" y="-12" on="1"/>
        <pt x="225" y="-12" on="0"/>
        <pt x="135" y="21" on="0"/>
        <pt x="67" y="81" on="0"/>
        <pt x="28" y="166" on="0"/>
        <pt x="28" y="219" on="1"/>
        <pt x="28" y="266" on="0"/>
        <pt x="58" y="329" on="0"/>
        <pt x="109" y="368" on="0"/>
        <pt x="178" y="385" on="0"/>
        <pt x="217" y="385" on="1"/>
        <pt x="341" y="385" on="1"/>
        <pt x="341" y="494" on="1"/>
        <pt x="-20" y="494" on="1"/>
      </contour>
      <contour>
        <pt x="276" y="92" on="1"/>
        <pt x="306" y="92" on="0"/>
        <pt x="341" y="123" on="0"/>
        <pt x="341" y="154" on="1"/>
        <pt x="341" y="281" on="1"/>
        <pt x="228" y="281" on="1"/>
        <pt x="161" y="281" on="0"/>
        <pt x="161" y="217" on="1"/>
        <pt x="161" y="188" on="0"/>
        <pt x="182" y="141" on="0"/>
        <pt x="215" y="109" on="0"/>
        <pt x="256" y="92" on="0"/>
      </contour>
      <contour>
        <pt x="906" y="-241" on="1"/>
        <pt x="834" y="-325" on="1"/>
        <pt x="590" y="-153" on="1"/>
        <pt x="672" y="-50" on="1"/>
      </contour>
    </TTGlyph>
    <TTGlyph name="Gbreve" xMin="38" yMin="-11" xMax="588" yMax="814">
      <contour>
        <pt x="377" y="642" on="1"/>
        <pt x="437" y="642" on="0"/>
        <pt x="530" y="622" on="0"/>
        <pt x="566" y="605" on="1"/>
        <pt x="535" y="505" on="1"/>
        <pt x="501" y="522" on="0"/>
        <pt x="426" y="537" on="0"/>
        <pt x="391" y="537" on="1"/>
        <pt x="351" y="537" on="0"/>
        <pt x="281" y="511" on="0"/>
        <pt x="228" y="456" on="0"/>
        <pt x="198" y="372" on="0"/>
        <pt x="198" y="314" on="1"/>
        <pt x="198" y="208" on="0"/>
        <pt x="291" y="95" on="0"/>
        <pt x="378" y="95" on="1"/>
        <pt x="399" y="95" on="0"/>
        <pt x="433" y="99" on="0"/>
        <pt x="442" y="103" on="1"/>
        <pt x="442" y="240" on="1"/>
        <pt x="343" y="240" on="1"/>
        <pt x="343" y="352" on="1"/>
        <pt x="588" y="352" on="1"/>
        <pt x="588" y="28" on="1"/>
        <pt x="549" y="11" on="0"/>
        <pt x="443" y="-11" on="0"/>
        <pt x="377" y="-11" on="1"/>
        <pt x="305" y="-11" on="0"/>
        <pt x="182" y="31" on="0"/>
        <pt x="90" y="114" on="0"/>
        <pt x="38" y="235" on="0"/>
        <pt x="38" y="314" on="1"/>
        <pt x="38" y="393" on="0"/>
        <pt x="90" y="516" on="0"/>
        <pt x="182" y="599" on="0"/>
        <pt x="305" y="642" on="0"/>
      </contour>
      <contour>
        <pt x="324" y="814" on="1"/>
        <pt x="325" y="791" on="0"/>
        <pt x="350" y="764" on="0"/>
        <pt x="377" y="764" on="1"/>
        <pt x="426" y="764" on="0"/>
        <pt x="428" y="814" on="1"/>
        <pt x="510" y="814" on="1"/>
        <pt x="510" y="753" on="0"/>
        <pt x="441" y="685" on="0"/>
        <pt x="376" y="685" on="1"/>
        <pt x="340" y="685" on="0"/>
        <pt x="289" y="706" on="0"/>
        <pt x="256" y="741" on="0"/>
        <pt x="241" y="788" on="0"/>
        <pt x="241" y="814" on="1"/>
      </contour>
    </TTGlyph>
    <TTGlyph name="Gcircumflex" xMin="38" yMin="-11" xMax="588" yMax="814">
      <contour>
        <pt x="377" y="642" on="1"/>
        <pt x="437" y="642" on="0"/>
        <pt x="530" y="622" on="0"/>
        <pt x="566" y="605" on="1"/>
        <pt x="535" y="505" on="1"/>
        <pt x="501" y="522" on="0"/>
        <pt x="426" y="537" on="0"/>
        <pt x="391" y="537" on="1"/>
        <pt x="351" y="537" on="0"/>
        <pt x="281" y="511" on="0"/>
        <pt x="228" y="456" on="0"/>
        <pt x="198" y="372" on="0"/>
        <pt x="198" y="314" on="1"/>
        <pt x="198" y="208" on="0"/>
        <pt x="291" y="95" on="0"/>
        <pt x="378" y="95" on="1"/>
        <pt x="399" y="95" on="0"/>
        <pt x="433" y="99" on="0"/>
        <pt x="442" y="103" on="1"/>
        <pt x="442" y="240" on="1"/>
        <pt x="343" y="240" on="1"/>
        <pt x="343" y="352" on="1"/>
        <pt x="588" y="352" on="1"/>
        <pt x="588" y="28" on="1"/>
        <pt x="549" y="11" on="0"/>
        <pt x="443" y="-11" on="0"/>
        <pt x="377" y="-11" on="1"/>
        <pt x="305" y="-11" on="0"/>
        <pt x="182" y="31" on="0"/>
        <pt x="90" y="114" on="0"/>
        <pt x="38" y="235" on="0"/>
        <pt x="38" y="314" on="1"/>
        <pt x="38" y="393" on="0"/>
        <pt x="90" y="516" on="0"/>
        <pt x="182" y="599" on="0"/>
        <pt x="305" y="642" on="0"/>
      </contour>
      <contour>
        <pt x="293" y="814" on="1"/>
        <pt x="402" y="814" on="1"/>
        <pt x="517" y="690" on="1"/>
        <pt x="407" y="690" on="1"/>
        <pt x="347" y="754" on="1"/>
        <pt x="287" y="690" on="1"/>
        <pt x="181" y="690" on="1"/>
      </contour>
    </TTGlyph>
    <TTGlyph name="Gcommaaccent" xMin="38" yMin="-340" xMax="588" yMax="642">
      <contour>
        <pt x="377" y="642" on="1"/>
        <pt x="437" y="642" on="0"/>
        <pt x="530" y="622" on="0"/>
        <pt x="566" y="605" on="1"/>
        <pt x="535" y="505" on="1"/>
        <pt x="501" y="522" on="0"/>
        <pt x="426" y="537" on="0"/>
        <pt x="391" y="537" on="1"/>
        <pt x="351" y="537" on="0"/>
        <pt x="281" y="511" on="0"/>
        <pt x="228" y="456" on="0"/>
        <pt x="198" y="372" on="0"/>
        <pt x="198" y="314" on="1"/>
        <pt x="198" y="208" on="0"/>
        <pt x="291" y="95" on="0"/>
        <pt x="378" y="95" on="1"/>
        <pt x="399" y="95" on="0"/>
        <pt x="433" y="99" on="0"/>
        <pt x="442" y="103" on="1"/>
        <pt x="442" y="240" on="1"/>
        <pt x="343" y="240" on="1"/>
        <pt x="343" y="352" on="1"/>
        <pt x="588" y="352" on="1"/>
        <pt x="588" y="28" on="1"/>
        <pt x="549" y="11" on="0"/>
        <pt x="443" y="-11" on="0"/>
        <pt x="377" y="-11" on="1"/>
        <pt x="305" y="-11" on="0"/>
        <pt x="182" y="31" on="0"/>
        <pt x="90" y="114" on="0"/>
        <pt x="38" y="235" on="0"/>
        <pt x="38" y="314" on="1"/>
        <pt x="38" y="393" on="0"/>
        <pt x="90" y="516" on="0"/>
        <pt x="182" y="599" on="0"/>
        <pt x="305" y="642" on="0"/>
      </contour>
      <contour>
        <pt x="369" y="-203" on="1"/>
        <pt x="341" y="-198" on="0"/>
        <pt x="307" y="-161" on="0"/>
        <pt x="307" y="-133" on="1"/>
        <pt x="307" y="-106" on="0"/>
        <pt x="344" y="-64" on="0"/>
        <pt x="378" y="-64" on="1"/>
        <pt x="391" y="-64" on="0"/>
        <pt x="420" y="-75" on="0"/>
        <pt x="444" y="-99" on="0"/>
        <pt x="460" y="-138" on="0"/>
        <pt x="460" y="-166" on="1"/>
        <pt x="460" y="-195" on="0"/>
        <pt x="440" y="-249" on="0"/>
        <pt x="409" y="-294" on="0"/>
        <pt x="368" y="-330" on="0"/>
        <pt x="347" y="-340" on="1"/>
        <pt x="314" y="-296" on="1"/>
        <pt x="340" y="-282" on="0"/>
        <pt x="381" y="-235" on="0"/>
        <pt x="386" y="-206" on="1"/>
      </contour>
    </TTGlyph>
    <TTGlyph name="Gdotaccent" xMin="38" yMin="-11" xMax="588" yMax="814">
      <contour>
        <pt x="377" y="642" on="1"/>
        <pt x="437" y="642" on="0"/>
        <pt x="530" y="622" on="0"/>
        <pt x="566" y="605" on="1"/>
        <pt x="535" y="505" on="1"/>
        <pt x="501" y="522" on="0"/>
        <pt x="426" y="537" on="0"/>
        <pt x="391" y="537" on="1"/>
        <pt x="351" y="537" on="0"/>
        <pt x="281" y="511" on="0"/>
        <pt x="228" y="456" on="0"/>
        <pt x="198" y="372" on="0"/>
        <pt x="198" y="314" on="1"/>
        <pt x="198" y="208" on="0"/>
        <pt x="291" y="95" on="0"/>
        <pt x="378" y="95" on="1"/>
        <pt x="399" y="95" on="0"/>
        <pt x="433" y="99" on="0"/>
        <pt x="442" y="103" on="1"/>
        <pt x="442" y="240" on="1"/>
        <pt x="343" y="240" on="1"/>
        <pt x="343" y="352" on="1"/>
        <pt x="588" y="352" on="1"/>
        <pt x="588" y="28" on="1"/>
        <pt x="549" y="11" on="0"/>
        <pt x="443" y="-11" on="0"/>
        <pt x="377" y="-11" on="1"/>
        <pt x="305" y="-11" on="0"/>
        <pt x="182" y="31" on="0"/>
        <pt x="90" y="114" on="0"/>
        <pt x="38" y="235" on="0"/>
        <pt x="38" y="314" on="1"/>
        <pt x="38" y="393" on="0"/>
        <pt x="90" y="516" on="0"/>
        <pt x="182" y="599" on="0"/>
        <pt x="305" y="642" on="0"/>
      </contour>
      <contour>
        <pt x="309" y="748" on="1"/>
        <pt x="309" y="776" on="0"/>
        <pt x="348" y="814" on="0"/>
        <pt x="377" y="814" on="1"/>
        <pt x="406" y="814" on="0"/>
        <pt x="444" y="776" on="0"/>
        <pt x="444" y="748" on="1"/>
        <pt x="444" y="719" on="0"/>
        <pt x="406" y="679" on="0"/>
        <pt x="377" y="679" on="1"/>
        <pt x="348" y="679" on="0"/>
        <pt x="309" y="719" on="0"/>
      </contour>
    </TTGlyph>
    <TTGlyph name="Gha.gm" xMin="-30" yMin="0" xMax="802" yMax="603">
      <contour>
        <pt x="173" y="597" on="1"/>
        <pt x="190" y="564" on="0"/>
        <pt x="223" y="459" on="0"/>
        <pt x="223" y="400" on="1"/>
        <pt x="223" y="358" on="0"/>
        <pt x="200" y="271" on="0"/>
        <pt x="179" y="239" on="1"/>
        <pt x="187" y="220" on="0"/>
        <pt x="225" y="192" on="0"/>
        <pt x="253" y="192" on="1"/>
        <pt x="282" y="192" on="0"/>
        <pt x="329" y="217" on="0"/>
        <pt x="332" y="243" on="1"/>
        <pt x="327" y="587" on="1"/>
        <pt x="338" y="593" on="0"/>
        <pt x="379" y="603" on="0"/>
        <pt x="399" y="603" on="1"/>
        <pt x="426" y="603" on="0"/>
        <pt x="467" y="569" on="0"/>
        <pt x="467" y="534" on="1"/>
        <pt x="467" y="528" on="0"/>
        <pt x="466" y="491" on="0"/>
        <pt x="465" y="439" on="0"/>
        <pt x="463" y="379" on="0"/>
        <pt x="461" y="319" on="0"/>
        <pt x="459" y="265" on="0"/>
        <pt x="459" y="246" on="1"/>
        <pt x="461" y="224" on="0"/>
        <pt x="501" y="197" on="0"/>
        <pt x="526" y="197" on="1"/>
        <pt x="550" y="197" on="0"/>
        <pt x="579" y="213" on="0"/>
        <pt x="584" y="221" on="1"/>
        <pt x="584" y="597" on="1"/>
        <pt x="802" y="597" on="1"/>
        <pt x="802" y="494" on="1"/>
        <pt x="717" y="494" on="1"/>
        <pt x="717" y="0" on="1"/>
        <pt x="584" y="0" on="1"/>
        <pt x="584" y="109" on="1"/>
        <pt x="573" y="102" on="0"/>
        <pt x="543" y="93" on="0"/>
        <pt x="522" y="93" on="1"/>
        <pt x="487" y="93" on="0"/>
        <pt x="423" y="121" on="0"/>
        <pt x="401" y="153" on="1"/>
        <pt x="378" y="122" on="0"/>
        <pt x="299" y="88" on="0"/>
        <pt x="245" y="88" on="1"/>
        <pt x="164" y="88" on="0"/>
        <pt x="63" y="167" on="0"/>
        <pt x="37" y="229" on="1"/>
        <pt x="90" y="314" on="0"/>
        <pt x="90" y="409" on="1"/>
        <pt x="90" y="435" on="0"/>
        <pt x="85" y="474" on="0"/>
        <pt x="78" y="494" on="1"/>
        <pt x="-30" y="494" on="1"/>
        <pt x="-30" y="597" on="1"/>
        <pt x="173" y="597" on="1"/>
      </contour>
    </TTGlyph>
    <TTGlyph name="GhaVirama.gm" xMin="-30" yMin="-325" xMax="895" yMax="603">
      <contour>
        <pt x="173" y="597" on="1"/>
        <pt x="190" y="564" on="0"/>
        <pt x="223" y="459" on="0"/>
        <pt x="223" y="400" on="1"/>
        <pt x="223" y="358" on="0"/>
        <pt x="200" y="271" on="0"/>
        <pt x="179" y="239" on="1"/>
        <pt x="187" y="220" on="0"/>
        <pt x="225" y="192" on="0"/>
        <pt x="253" y="192" on="1"/>
        <pt x="282" y="192" on="0"/>
        <pt x="329" y="217" on="0"/>
        <pt x="332" y="243" on="1"/>
        <pt x="327" y="587" on="1"/>
        <pt x="338" y="593" on="0"/>
        <pt x="379" y="603" on="0"/>
        <pt x="399" y="603" on="1"/>
        <pt x="426" y="603" on="0"/>
        <pt x="467" y="569" on="0"/>
        <pt x="467" y="534" on="1"/>
        <pt x="467" y="528" on="0"/>
        <pt x="466" y="491" on="0"/>
        <pt x="465" y="439" on="0"/>
        <pt x="463" y="379" on="0"/>
        <pt x="461" y="319" on="0"/>
        <pt x="459" y="265" on="0"/>
        <pt x="459" y="246" on="1"/>
        <pt x="461" y="224" on="0"/>
        <pt x="501" y="197" on="0"/>
        <pt x="526" y="197" on="1"/>
        <pt x="550" y="197" on="0"/>
        <pt x="579" y="213" on="0"/>
        <pt x="584" y="221" on="1"/>
        <pt x="584" y="597" on="1"/>
        <pt x="802" y="597" on="1"/>
        <pt x="802" y="494" on="1"/>
        <pt x="717" y="494" on="1"/>
        <pt x="717" y="0" on="1"/>
        <pt x="584" y="0" on="1"/>
        <pt x="584" y="109" on="1"/>
        <pt x="573" y="102" on="0"/>
        <pt x="543" y="93" on="0"/>
        <pt x="522" y="93" on="1"/>
        <pt x="487" y="93" on="0"/>
        <pt x="423" y="121" on="0"/>
        <pt x="401" y="153" on="1"/>
        <pt x="378" y="122" on="0"/>
        <pt x="299" y="88" on="0"/>
        <pt x="245" y="88" on="1"/>
        <pt x="164" y="88" on="0"/>
        <pt x="63" y="167" on="0"/>
        <pt x="37" y="229" on="1"/>
        <pt x="90" y="314" on="0"/>
        <pt x="90" y="409" on="1"/>
        <pt x="90" y="435" on="0"/>
        <pt x="85" y="474" on="0"/>
        <pt x="78" y="494" on="1"/>
        <pt x="-30" y="494" on="1"/>
        <pt x="-30" y="597" on="1"/>
      </contour>
      <contour>
        <pt x="895" y="-241" on="1"/>
        <pt x="823" y="-325" on="1"/>
        <pt x="579" y="-153" on="1"/>
        <pt x="661" y="-50" on="1"/>
      </contour>
    </TTGlyph>
    <TTGlyph name="Ghha.gm" xMin="-35" yMin="-101" xMax="812" yMax="597">
      <contour>
        <pt x="-35" y="597" on="1"/>
        <pt x="812" y="597" on="1"/>
        <pt x="812" y="494" on="1"/>
        <pt x="727" y="494" on="1"/>
        <pt x="727" y="0" on="1"/>
        <pt x="594" y="0" on="1"/>
        <pt x="594" y="494" on="1"/>
        <pt x="474" y="494" on="1"/>
        <pt x="474" y="150" on="1"/>
        <pt x="474" y="112" on="0"/>
        <pt x="445" y="52" on="0"/>
        <pt x="393" y="10" on="0"/>
        <pt x="320" y="-12" on="0"/>
        <pt x="276" y="-12" on="1"/>
        <pt x="225" y="-12" on="0"/>
        <pt x="135" y="21" on="0"/>
        <pt x="67" y="81" on="0"/>
        <pt x="28" y="166" on="0"/>
        <pt x="28" y="219" on="1"/>
        <pt x="28" y="266" on="0"/>
        <pt x="58" y="329" on="0"/>
        <pt x="109" y="368" on="0"/>
        <pt x="178" y="385" on="0"/>
        <pt x="217" y="385" on="1"/>
        <pt x="341" y="385" on="1"/>
        <pt x="341" y="494" on="1"/>
        <pt x="-35" y="494" on="1"/>
      </contour>
      <contour>
        <pt x="276" y="92" on="1"/>
        <pt x="306" y="92" on="0"/>
        <pt x="341" y="123" on="0"/>
        <pt x="341" y="154" on="1"/>
        <pt x="341" y="281" on="1"/>
        <pt x="228" y="281" on="1"/>
        <pt x="161" y="281" on="0"/>
        <pt x="161" y="217" on="1"/>
        <pt x="161" y="188" on="0"/>
        <pt x="182" y="141" on="0"/>
        <pt x="215" y="109" on="0"/>
        <pt x="256" y="92" on="0"/>
      </contour>
      <contour>
        <pt x="-19" y="-41" on="1"/>
        <pt x="-19" y="-13" on="0"/>
        <pt x="16" y="23" on="0"/>
        <pt x="42" y="23" on="1"/>
        <pt x="69" y="23" on="0"/>
        <pt x="103" y="-15" on="0"/>
        <pt x="103" y="-41" on="1"/>
        <pt x="103" y="-67" on="0"/>
        <pt x="69" y="-101" on="0"/>
        <pt x="42" y="-101" on="1"/>
        <pt x="16" y="-101" on="0"/>
        <pt x="-19" y="-68" on="0"/>
      </contour>
    </TTGlyph>
    <TTGlyph name="GhhaVirama.gm" xMin="-35" yMin="-325" xMax="905" yMax="597">
      <contour>
        <pt x="-35" y="597" on="1"/>
        <pt x="812" y="597" on="1"/>
        <pt x="812" y="494" on="1"/>
        <pt x="727" y="494" on="1"/>
        <pt x="727" y="0" on="1"/>
        <pt x="594" y="0" on="1"/>
        <pt x="594" y="494" on="1"/>
        <pt x="474" y="494" on="1"/>
        <pt x="474" y="150" on="1"/>
        <pt x="474" y="112" on="0"/>
        <pt x="445" y="52" on="0"/>
        <pt x="393" y="10" on="0"/>
        <pt x="320" y="-12" on="0"/>
        <pt x="276" y="-12" on="1"/>
        <pt x="225" y="-12" on="0"/>
        <pt x="135" y="21" on="0"/>
        <pt x="67" y="81" on="0"/>
        <pt x="28" y="166" on="0"/>
        <pt x="28" y="219" on="1"/>
        <pt x="28" y="266" on="0"/>
        <pt x="58" y="329" on="0"/>
        <pt x="109" y="368" on="0"/>
        <pt x="178" y="385" on="0"/>
        <pt x="217" y="385" on="1"/>
        <pt x="341" y="385" on="1"/>
        <pt x="341" y="494" on="1"/>
        <pt x="-35" y="494" on="1"/>
      </contour>
      <contour>
        <pt x="905" y="-241" on="1"/>
        <pt x="833" y="-325" on="1"/>
        <pt x="589" y="-153" on="1"/>
        <pt x="671" y="-50" on="1"/>
      </contour>
      <contour>
        <pt x="276" y="92" on="1"/>
        <pt x="306" y="92" on="0"/>
        <pt x="341" y="123" on="0"/>
        <pt x="341" y="154" on="1"/>
        <pt x="341" y="281" on="1"/>
        <pt x="228" y="281" on="1"/>
        <pt x="161" y="281" on="0"/>
        <pt x="161" y="217" on="1"/>
        <pt x="161" y="188" on="0"/>
        <pt x="182" y="141" on="0"/>
        <pt x="215" y="109" on="0"/>
        <pt x="256" y="92" on="0"/>
      </contour>
      <contour>
        <pt x="-19" y="-41" on="1"/>
        <pt x="-19" y="-13" on="0"/>
        <pt x="16" y="23" on="0"/>
        <pt x="42" y="23" on="1"/>
        <pt x="69" y="23" on="0"/>
        <pt x="103" y="-15" on="0"/>
        <pt x="103" y="-41" on="1"/>
        <pt x="103" y="-67" on="0"/>
        <pt x="69" y="-101" on="0"/>
        <pt x="42" y="-101" on="1"/>
        <pt x="16" y="-101" on="0"/>
        <pt x="-19" y="-68" on="0"/>
      </contour>
    </TTGlyph>
    <TTGlyph name="Gsmall" xMin="39" yMin="-11" xMax="474" yMax="491">
      <contour>
        <pt x="306" y="97" on="1"/>
        <pt x="315" y="97" on="0"/>
        <pt x="336" y="100" on="0"/>
        <pt x="341" y="103" on="1"/>
        <pt x="341" y="170" on="1"/>
        <pt x="273" y="170" on="1"/>
        <pt x="273" y="275" on="1"/>
        <pt x="474" y="275" on="1"/>
        <pt x="474" y="17" on="1"/>
        <pt x="439" y="3" on="0"/>
        <pt x="347" y="-11" on="0"/>
        <pt x="299" y="-11" on="1"/>
        <pt x="244" y="-11" on="0"/>
        <pt x="149" y="20" on="0"/>
        <pt x="79" y="81" on="0"/>
        <pt x="39" y="173" on="0"/>
        <pt x="39" y="234" on="1"/>
        <pt x="39" y="292" on="0"/>
        <pt x="77" y="387" on="0"/>
        <pt x="146" y="455" on="0"/>
        <pt x="243" y="491" on="0"/>
        <pt x="301" y="491" on="1"/>
        <pt x="343" y="491" on="0"/>
        <pt x="422" y="476" on="0"/>
        <pt x="460" y="457" on="1"/>
        <pt x="432" y="357" on="1"/>
        <pt x="407" y="370" on="0"/>
        <pt x="349" y="384" on="0"/>
        <pt x="320" y="384" on="1"/>
        <pt x="255" y="384" on="0"/>
        <pt x="189" y="306" on="0"/>
        <pt x="189" y="237" on="1"/>
        <pt x="189" y="198" on="0"/>
        <pt x="209" y="144" on="0"/>
        <pt x="241" y="111" on="0"/>
        <pt x="283" y="97" on="0"/>
      </contour>
    </TTGlyph>
    <TTGlyph name="H" xMin="66" yMin="0" xMax="589" yMax="630">
      <contour>
        <pt x="66" y="0" on="1"/>
        <pt x="66" y="630" on="1"/>
        <pt x="218" y="630" on="1"/>
        <pt x="218" y="385" on="1"/>
        <pt x="437" y="385" on="1"/>
        <pt x="437" y="630" on="1"/>
        <pt x="589" y="630" on="1"/>
        <pt x="589" y="0" on="1"/>
        <pt x="437" y="0" on="1"/>
        <pt x="437" y="267" on="1"/>
        <pt x="218" y="267" on="1"/>
        <pt x="218" y="0" on="1"/>
      </contour>
    </TTGlyph>
    <TTGlyph name="Ha.gm" xMin="-20" yMin="-12" xMax="590" yMax="597">
      <contour>
        <pt x="-20" y="597" on="1"/>
        <pt x="590" y="597" on="1"/>
        <pt x="590" y="494" on="1"/>
        <pt x="511" y="494" on="1"/>
        <pt x="511" y="169" on="1"/>
        <pt x="511" y="121" on="0"/>
        <pt x="480" y="53" on="0"/>
        <pt x="424" y="9" on="0"/>
        <pt x="344" y="-12" on="0"/>
        <pt x="295" y="-12" on="1"/>
        <pt x="241" y="-12" on="0"/>
        <pt x="144" y="24" on="0"/>
        <pt x="71" y="87" on="0"/>
        <pt x="29" y="172" on="0"/>
        <pt x="29" y="221" on="1"/>
        <pt x="29" y="299" on="0"/>
        <pt x="118" y="375" on="0"/>
        <pt x="189" y="375" on="1"/>
        <pt x="293" y="375" on="1"/>
        <pt x="293" y="271" on="1"/>
        <pt x="221" y="271" on="1"/>
        <pt x="187" y="271" on="0"/>
        <pt x="161" y="241" on="0"/>
        <pt x="161" y="218" on="1"/>
        <pt x="161" y="192" on="0"/>
        <pt x="185" y="146" on="0"/>
        <pt x="223" y="112" on="0"/>
        <pt x="271" y="92" on="0"/>
        <pt x="296" y="92" on="1"/>
        <pt x="339" y="92" on="0"/>
        <pt x="378" y="130" on="0"/>
        <pt x="378" y="175" on="1"/>
        <pt x="378" y="494" on="1"/>
        <pt x="-20" y="494" on="1"/>
      </contour>
    </TTGlyph>
    <TTGlyph name="HaVirama.gm" xMin="-20" yMin="-325" xMax="612" yMax="597">
      <contour>
        <pt x="-20" y="597" on="1"/>
        <pt x="590" y="597" on="1"/>
        <pt x="590" y="494" on="1"/>
        <pt x="511" y="494" on="1"/>
        <pt x="511" y="169" on="1"/>
        <pt x="511" y="121" on="0"/>
        <pt x="480" y="53" on="0"/>
        <pt x="424" y="9" on="0"/>
        <pt x="344" y="-12" on="0"/>
        <pt x="295" y="-12" on="1"/>
        <pt x="241" y="-12" on="0"/>
        <pt x="144" y="24" on="0"/>
        <pt x="71" y="87" on="0"/>
        <pt x="29" y="172" on="0"/>
        <pt x="29" y="221" on="1"/>
        <pt x="29" y="299" on="0"/>
        <pt x="118" y="375" on="0"/>
        <pt x="189" y="375" on="1"/>
        <pt x="293" y="375" on="1"/>
        <pt x="293" y="271" on="1"/>
        <pt x="221" y="271" on="1"/>
        <pt x="187" y="271" on="0"/>
        <pt x="161" y="241" on="0"/>
        <pt x="161" y="218" on="1"/>
        <pt x="161" y="192" on="0"/>
        <pt x="185" y="146" on="0"/>
        <pt x="223" y="112" on="0"/>
        <pt x="271" y="92" on="0"/>
        <pt x="296" y="92" on="1"/>
        <pt x="339" y="92" on="0"/>
        <pt x="378" y="130" on="0"/>
        <pt x="378" y="175" on="1"/>
        <pt x="378" y="494" on="1"/>
        <pt x="-20" y="494" on="1"/>
      </contour>
      <contour>
        <pt x="612" y="-241" on="1"/>
        <pt x="540" y="-325" on="1"/>
        <pt x="296" y="-153" on="1"/>
        <pt x="378" y="-50" on="1"/>
      </contour>
    </TTGlyph>
    <TTGlyph name="Hbar" xMin="20" yMin="0" xMax="663" yMax="630">
      <contour>
        <pt x="80" y="0" on="1"/>
        <pt x="80" y="468" on="1"/>
        <pt x="20" y="468" on="1"/>
        <pt x="20" y="560" on="1"/>
        <pt x="80" y="560" on="1"/>
        <pt x="80" y="630" on="1"/>
        <pt x="232" y="630" on="1"/>
        <pt x="232" y="560" on="1"/>
        <pt x="451" y="560" on="1"/>
        <pt x="451" y="630" on="1"/>
        <pt x="603" y="630" on="1"/>
        <pt x="603" y="560" on="1"/>
        <pt x="663" y="560" on="1"/>
        <pt x="663" y="468" on="1"/>
        <pt x="603" y="468" on="1"/>
        <pt x="603" y="0" on="1"/>
        <pt x="451" y="0" on="1"/>
        <pt x="451" y="267" on="1"/>
        <pt x="232" y="267" on="1"/>
        <pt x="232" y="0" on="1"/>
      </contour>
      <contour>
        <pt x="451" y="385" on="1"/>
        <pt x="451" y="468" on="1"/>
        <pt x="232" y="468" on="1"/>
        <pt x="232" y="385" on="1"/>
      </contour>
    </TTGlyph>
    <TTGlyph name="Hcircumflex" xMin="66" yMin="0" xMax="589" yMax="814">
      <contour>
        <pt x="66" y="0" on="1"/>
        <pt x="66" y="630" on="1"/>
        <pt x="218" y="630" on="1"/>
        <pt x="218" y="385" on="1"/>
        <pt x="437" y="385" on="1"/>
        <pt x="437" y="630" on="1"/>
        <pt x="589" y="630" on="1"/>
        <pt x="589" y="0" on="1"/>
        <pt x="437" y="0" on="1"/>
        <pt x="437" y="267" on="1"/>
        <pt x="218" y="267" on="1"/>
        <pt x="218" y="0" on="1"/>
      </contour>
      <contour>
        <pt x="277" y="814" on="1"/>
        <pt x="386" y="814" on="1"/>
        <pt x="501" y="690" on="1"/>
        <pt x="391" y="690" on="1"/>
        <pt x="331" y="754" on="1"/>
        <pt x="271" y="690" on="1"/>
        <pt x="165" y="690" on="1"/>
      </contour>
    </TTGlyph>
    <TTGlyph name="Hsmall" xMin="58" yMin="0" xMax="509" yMax="480">
      <contour>
        <pt x="58" y="0" on="1"/>
        <pt x="58" y="480" on="1"/>
        <pt x="203" y="480" on="1"/>
        <pt x="203" y="303" on="1"/>
        <pt x="363" y="303" on="1"/>
        <pt x="363" y="480" on="1"/>
        <pt x="509" y="480" on="1"/>
        <pt x="509" y="0" on="1"/>
        <pt x="363" y="0" on="1"/>
        <pt x="363" y="196" on="1"/>
        <pt x="203" y="196" on="1"/>
        <pt x="203" y="0" on="1"/>
      </contour>
    </TTGlyph>
    <TTGlyph name="I" xMin="66" yMin="0" xMax="218" yMax="630">
      <contour>
        <pt x="218" y="630" on="1"/>
        <pt x="218" y="0" on="1"/>
        <pt x="66" y="0" on="1"/>
        <pt x="66" y="630" on="1"/>
      </contour>
    </TTGlyph>
    <TTGlyph name="IJ" xMin="66" yMin="-175" xMax="501" yMax="630">
      <contour>
        <pt x="218" y="630" on="1"/>
        <pt x="218" y="0" on="1"/>
        <pt x="66" y="0" on="1"/>
        <pt x="66" y="630" on="1"/>
      </contour>
      <contour>
        <pt x="501" y="630" on="1"/>
        <pt x="501" y="115" on="1"/>
        <pt x="501" y="74" on="0"/>
        <pt x="496" y="9" on="0"/>
        <pt x="483" y="-44" on="0"/>
        <pt x="460" y="-88" on="0"/>
        <pt x="443" y="-107" on="1"/>
        <pt x="408" y="-145" on="0"/>
        <pt x="307" y="-175" on="0"/>
        <pt x="249" y="-175" on="1"/>
        <pt x="249" y="-60" on="1"/>
        <pt x="274" y="-60" on="0"/>
        <pt x="309" y="-45" on="0"/>
        <pt x="320" y="-35" on="1"/>
        <pt x="338" y="-20" on="0"/>
        <pt x="349" y="30" on="0"/>
        <pt x="349" y="62" on="1"/>
        <pt x="349" y="630" on="1"/>
      </contour>
    </TTGlyph>
    <TTGlyph name="Iacute" xMin="66" yMin="0" xMax="324" yMax="814">
      <contour>
        <pt x="218" y="630" on="1"/>
        <pt x="218" y="0" on="1"/>
        <pt x="66" y="0" on="1"/>
        <pt x="66" y="630" on="1"/>
      </contour>
      <contour>
        <pt x="208" y="690" on="1"/>
        <pt x="86" y="690" on="1"/>
        <pt x="166" y="814" on="1"/>
        <pt x="324" y="814" on="1"/>
      </contour>
    </TTGlyph>
    <TTGlyph name="Ibreve" xMin="7" yMin="0" xMax="276" yMax="814">
      <contour>
        <pt x="218" y="630" on="1"/>
        <pt x="218" y="0" on="1"/>
        <pt x="66" y="0" on="1"/>
        <pt x="66" y="630" on="1"/>
      </contour>
      <contour>
        <pt x="90" y="814" on="1"/>
        <pt x="91" y="791" on="0"/>
        <pt x="116" y="764" on="0"/>
        <pt x="143" y="764" on="1"/>
        <pt x="192" y="764" on="0"/>
        <pt x="194" y="814" on="1"/>
        <pt x="276" y="814" on="1"/>
        <pt x="276" y="753" on="0"/>
        <pt x="207" y="685" on="0"/>
        <pt x="142" y="685" on="1"/>
        <pt x="106" y="685" on="0"/>
        <pt x="55" y="706" on="0"/>
        <pt x="22" y="741" on="0"/>
        <pt x="7" y="788" on="0"/>
        <pt x="7" y="814" on="1"/>
      </contour>
    </TTGlyph>
    <TTGlyph name="Icircumflex" xMin="-22" yMin="0" xMax="314" yMax="814">
      <contour>
        <pt x="218" y="630" on="1"/>
        <pt x="218" y="0" on="1"/>
        <pt x="66" y="0" on="1"/>
        <pt x="66" y="630" on="1"/>
      </contour>
      <contour>
        <pt x="90" y="814" on="1"/>
        <pt x="199" y="814" on="1"/>
        <pt x="314" y="690" on="1"/>
        <pt x="204" y="690" on="1"/>
        <pt x="144" y="754" on="1"/>
        <pt x="84" y="690" on="1"/>
        <pt x="-22" y="690" on="1"/>
      </contour>
    </TTGlyph>
    <TTGlyph name="Idieresis" xMin="-29" yMin="0" xMax="311" yMax="814">
      <contour>
        <pt x="218" y="630" on="1"/>
        <pt x="218" y="0" on="1"/>
        <pt x="66" y="0" on="1"/>
        <pt x="66" y="630" on="1"/>
      </contour>
      <contour>
        <pt x="-29" y="748" on="1"/>
        <pt x="-29" y="776" on="0"/>
        <pt x="10" y="814" on="0"/>
        <pt x="39" y="814" on="1"/>
        <pt x="68" y="814" on="0"/>
        <pt x="106" y="776" on="0"/>
        <pt x="106" y="748" on="1"/>
        <pt x="106" y="719" on="0"/>
        <pt x="68" y="679" on="0"/>
        <pt x="39" y="679" on="1"/>
        <pt x="10" y="679" on="0"/>
        <pt x="-29" y="719" on="0"/>
      </contour>
      <contour>
        <pt x="176" y="748" on="1"/>
        <pt x="176" y="776" on="0"/>
        <pt x="215" y="814" on="0"/>
        <pt x="244" y="814" on="1"/>
        <pt x="273" y="814" on="0"/>
        <pt x="311" y="776" on="0"/>
        <pt x="311" y="748" on="1"/>
        <pt x="311" y="719" on="0"/>
        <pt x="273" y="679" on="0"/>
        <pt x="244" y="679" on="1"/>
        <pt x="215" y="679" on="0"/>
        <pt x="176" y="719" on="0"/>
      </contour>
    </TTGlyph>
    <TTGlyph name="Idotaccent" xMin="66" yMin="0" xMax="218" yMax="814">
      <contour>
        <pt x="218" y="630" on="1"/>
        <pt x="218" y="0" on="1"/>
        <pt x="66" y="0" on="1"/>
        <pt x="66" y="630" on="1"/>
      </contour>
      <contour>
        <pt x="74" y="748" on="1"/>
        <pt x="74" y="776" on="0"/>
        <pt x="113" y="814" on="0"/>
        <pt x="142" y="814" on="1"/>
        <pt x="171" y="814" on="0"/>
        <pt x="209" y="776" on="0"/>
        <pt x="209" y="748" on="1"/>
        <pt x="209" y="719" on="0"/>
        <pt x="171" y="679" on="0"/>
        <pt x="142" y="679" on="1"/>
        <pt x="113" y="679" on="0"/>
        <pt x="74" y="719" on="0"/>
      </contour>
    </TTGlyph>
    <TTGlyph name="Igrave" xMin="-40" yMin="0" xMax="218" yMax="814">
      <contour>
        <pt x="218" y="630" on="1"/>
        <pt x="218" y="0" on="1"/>
        <pt x="66" y="0" on="1"/>
        <pt x="66" y="630" on="1"/>
      </contour>
      <contour>
        <pt x="-40" y="814" on="1"/>
        <pt x="118" y="814" on="1"/>
        <pt x="198" y="690" on="1"/>
        <pt x="76" y="690" on="1"/>
      </contour>
    </TTGlyph>
    <TTGlyph name="Imacron" xMin="12" yMin="0" xMax="272" yMax="772">
      <contour>
        <pt x="218" y="630" on="1"/>
        <pt x="218" y="0" on="1"/>
        <pt x="66" y="0" on="1"/>
        <pt x="66" y="630" on="1"/>
      </contour>
      <contour>
        <pt x="272" y="772" on="1"/>
        <pt x="272" y="690" on="1"/>
        <pt x="12" y="690" on="1"/>
        <pt x="12" y="772" on="1"/>
      </contour>
    </TTGlyph>
    <TTGlyph name="Iogonek" xMin="27" yMin="-206" xMax="221" yMax="630">
      <contour>
        <pt x="218" y="630" on="1"/>
        <pt x="218" y="0" on="1"/>
        <pt x="161" y="0" on="1"/>
        <pt x="144" y="-17" on="0"/>
        <pt x="121" y="-55" on="0"/>
        <pt x="121" y="-75" on="1"/>
        <pt x="121" y="-94" on="0"/>
        <pt x="142" y="-116" on="0"/>
        <pt x="162" y="-116" on="1"/>
        <pt x="175" y="-116" on="0"/>
        <pt x="193" y="-111" on="0"/>
        <pt x="201" y="-108" on="1"/>
        <pt x="221" y="-184" on="1"/>
        <pt x="205" y="-194" on="0"/>
        <pt x="160" y="-206" on="0"/>
        <pt x="134" y="-206" on="1"/>
        <pt x="88" y="-206" on="0"/>
        <pt x="27" y="-151" on="0"/>
        <pt x="27" y="-104" on="1"/>
        <pt x="27" y="-66" on="0"/>
        <pt x="53" y="-17" on="0"/>
        <pt x="66" y="0" on="1"/>
        <pt x="66" y="630" on="1"/>
      </contour>
    </TTGlyph>
    <TTGlyph name="Iri.gm" xMin="-30" yMin="-12" xMax="606" yMax="597">
      <contour>
        <pt x="-30" y="597" on="1"/>
        <pt x="606" y="597" on="1"/>
        <pt x="606" y="494" on="1"/>
        <pt x="523" y="494" on="1"/>
        <pt x="523" y="255" on="1"/>
        <pt x="319" y="255" on="1"/>
        <pt x="266" y="255" on="0"/>
        <pt x="186" y="224" on="0"/>
        <pt x="160" y="180" on="1"/>
        <pt x="186" y="138" on="0"/>
        <pt x="290" y="92" on="0"/>
        <pt x="356" y="92" on="1"/>
        <pt x="381" y="92" on="0"/>
        <pt x="428" y="101" on="0"/>
        <pt x="468" y="113" on="0"/>
        <pt x="498" y="127" on="0"/>
        <pt x="507" y="133" on="1"/>
        <pt x="557" y="47" on="1"/>
        <pt x="543" y="35" on="0"/>
        <pt x="501" y="14" on="0"/>
        <pt x="448" y="-2" on="0"/>
        <pt x="385" y="-12" on="0"/>
        <pt x="352" y="-12" on="1"/>
        <pt x="287" y="-12" on="0"/>
        <pt x="182" y="17" on="0"/>
        <pt x="100" y="68" on="0"/>
        <pt x="42" y="135" on="0"/>
        <pt x="25" y="174" on="1"/>
        <pt x="48" y="232" on="0"/>
        <pt x="120" y="301" on="0"/>
        <pt x="155" y="318" on="1"/>
        <pt x="113" y="344" on="0"/>
        <pt x="62" y="436" on="0"/>
        <pt x="57" y="494" on="1"/>
        <pt x="-30" y="494" on="1"/>
      </contour>
      <contour>
        <pt x="189" y="494" on="1"/>
        <pt x="191" y="466" on="0"/>
        <pt x="213" y="417" on="0"/>
        <pt x="247" y="380" on="0"/>
        <pt x="291" y="359" on="0"/>
        <pt x="316" y="359" on="1"/>
        <pt x="391" y="359" on="1"/>
        <pt x="391" y="494" on="1"/>
      </contour>
    </TTGlyph>
    <TTGlyph name="Ismall" xMin="58" yMin="0" xMax="206" yMax="480">
      <contour>
        <pt x="206" y="480" on="1"/>
        <pt x="206" y="0" on="1"/>
        <pt x="58" y="0" on="1"/>
        <pt x="58" y="480" on="1"/>
      </contour>
    </TTGlyph>
    <TTGlyph name="Itilde" xMin="-10" yMin="0" xMax="293" yMax="814">
      <contour>
        <pt x="218" y="630" on="1"/>
        <pt x="218" y="0" on="1"/>
        <pt x="66" y="0" on="1"/>
        <pt x="66" y="630" on="1"/>
      </contour>
      <contour>
        <pt x="-10" y="690" on="1"/>
        <pt x="-10" y="715" on="0"/>
        <pt x="2" y="759" on="0"/>
        <pt x="26" y="792" on="0"/>
        <pt x="60" y="811" on="0"/>
        <pt x="82" y="811" on="1"/>
        <pt x="100" y="811" on="0"/>
        <pt x="129" y="801" on="0"/>
        <pt x="155" y="788" on="0"/>
        <pt x="179" y="778" on="0"/>
        <pt x="193" y="778" on="1"/>
        <pt x="207" y="778" on="0"/>
        <pt x="222" y="797" on="0"/>
        <pt x="223" y="814" on="1"/>
        <pt x="293" y="814" on="1"/>
        <pt x="293" y="759" on="0"/>
        <pt x="245" y="695" on="0"/>
        <pt x="205" y="695" on="1"/>
        <pt x="186" y="695" on="0"/>
        <pt x="153" y="705" on="0"/>
        <pt x="124" y="717" on="0"/>
        <pt x="99" y="727" on="0"/>
        <pt x="89" y="727" on="1"/>
        <pt x="73" y="727" on="0"/>
        <pt x="61" y="705" on="0"/>
        <pt x="60" y="690" on="1"/>
      </contour>
    </TTGlyph>
    <TTGlyph name="J" xMin="-20" yMin="-175" xMax="232" yMax="630">
      <contour>
        <pt x="232" y="630" on="1"/>
        <pt x="232" y="115" on="1"/>
        <pt x="232" y="74" on="0"/>
        <pt x="227" y="9" on="0"/>
        <pt x="214" y="-44" on="0"/>
        <pt x="191" y="-88" on="0"/>
        <pt x="174" y="-107" on="1"/>
        <pt x="139" y="-145" on="0"/>
        <pt x="38" y="-175" on="0"/>
        <pt x="-20" y="-175" on="1"/>
        <pt x="-20" y="-60" on="1"/>
        <pt x="5" y="-60" on="0"/>
        <pt x="40" y="-45" on="0"/>
        <pt x="51" y="-35" on="1"/>
        <pt x="69" y="-20" on="0"/>
        <pt x="80" y="30" on="0"/>
        <pt x="80" y="62" on="1"/>
        <pt x="80" y="630" on="1"/>
      </contour>
    </TTGlyph>
    <TTGlyph name="Ja.gm" xMin="-20" yMin="0" xMax="646" yMax="597">
      <contour>
        <pt x="-20" y="597" on="1"/>
        <pt x="646" y="597" on="1"/>
        <pt x="646" y="494" on="1"/>
        <pt x="561" y="494" on="1"/>
        <pt x="561" y="0" on="1"/>
        <pt x="428" y="0" on="1"/>
        <pt x="428" y="232" on="1"/>
        <pt x="231" y="232" on="1"/>
        <pt x="231" y="0" on="1"/>
        <pt x="98" y="0" on="1"/>
        <pt x="98" y="227" on="1"/>
        <pt x="87" y="229" on="0"/>
        <pt x="62" y="239" on="0"/>
        <pt x="42" y="258" on="0"/>
        <pt x="29" y="286" on="0"/>
        <pt x="29" y="305" on="1"/>
        <pt x="29" y="331" on="0"/>
        <pt x="51" y="373" on="0"/>
        <pt x="87" y="403" on="0"/>
        <pt x="135" y="419" on="0"/>
        <pt x="161" y="419" on="1"/>
        <pt x="186" y="419" on="0"/>
        <pt x="221" y="407" on="0"/>
        <pt x="231" y="399" on="1"/>
        <pt x="231" y="336" on="1"/>
        <pt x="428" y="336" on="1"/>
        <pt x="428" y="494" on="1"/>
        <pt x="-20" y="494" on="1"/>
      </contour>
    </TTGlyph>
    <TTGlyph name="JaVirama.gm" xMin="-30" yMin="-325" xMax="734" yMax="597">
      <contour>
        <pt x="-30" y="597" on="1"/>
        <pt x="636" y="597" on="1"/>
        <pt x="636" y="494" on="1"/>
        <pt x="551" y="494" on="1"/>
        <pt x="551" y="0" on="1"/>
        <pt x="418" y="0" on="1"/>
        <pt x="418" y="232" on="1"/>
        <pt x="221" y="232" on="1"/>
        <pt x="221" y="0" on="1"/>
        <pt x="88" y="0" on="1"/>
        <pt x="88" y="227" on="1"/>
        <pt x="77" y="229" on="0"/>
        <pt x="52" y="239" on="0"/>
        <pt x="32" y="258" on="0"/>
        <pt x="19" y="286" on="0"/>
        <pt x="19" y="305" on="1"/>
        <pt x="19" y="331" on="0"/>
        <pt x="41" y="373" on="0"/>
        <pt x="77" y="403" on="0"/>
        <pt x="125" y="419" on="0"/>
        <pt x="151" y="419" on="1"/>
        <pt x="176" y="419" on="0"/>
        <pt x="211" y="407" on="0"/>
        <pt x="221" y="399" on="1"/>
        <pt x="221" y="336" on="1"/>
        <pt x="418" y="336" on="1"/>
        <pt x="418" y="494" on="1"/>
        <pt x="-30" y="494" on="1"/>
      </contour>
      <contour>
        <pt x="734" y="-241" on="1"/>
        <pt x="662" y="-325" on="1"/>
        <pt x="418" y="-153" on="1"/>
        <pt x="500" y="-50" on="1"/>
      </contour>
    </TTGlyph>
    <TTGlyph name="Jcircumflex" xMin="-20" yMin="-175" xMax="326" yMax="814">
      <contour>
        <pt x="232" y="630" on="1"/>
        <pt x="232" y="115" on="1"/>
        <pt x="232" y="74" on="0"/>
        <pt x="227" y="9" on="0"/>
        <pt x="214" y="-44" on="0"/>
        <pt x="191" y="-88" on="0"/>
        <pt x="174" y="-107" on="1"/>
        <pt x="139" y="-145" on="0"/>
        <pt x="38" y="-175" on="0"/>
        <pt x="-20" y="-175" on="1"/>
        <pt x="-20" y="-60" on="1"/>
        <pt x="5" y="-60" on="0"/>
        <pt x="40" y="-45" on="0"/>
        <pt x="51" y="-35" on="1"/>
        <pt x="69" y="-20" on="0"/>
        <pt x="80" y="30" on="0"/>
        <pt x="80" y="62" on="1"/>
        <pt x="80" y="630" on="1"/>
      </contour>
      <contour>
        <pt x="102" y="814" on="1"/>
        <pt x="211" y="814" on="1"/>
        <pt x="326" y="690" on="1"/>
        <pt x="216" y="690" on="1"/>
        <pt x="156" y="754" on="1"/>
        <pt x="96" y="690" on="1"/>
        <pt x="-10" y="690" on="1"/>
      </contour>
    </TTGlyph>
    <TTGlyph name="Jha.gm" xMin="-40" yMin="-128" xMax="603" yMax="597">
      <contour>
        <pt x="403" y="198" on="1"/>
        <pt x="403" y="242" on="0"/>
        <pt x="334" y="293" on="0"/>
        <pt x="267" y="293" on="1"/>
        <pt x="214" y="293" on="0"/>
        <pt x="110" y="273" on="0"/>
        <pt x="73" y="263" on="1"/>
        <pt x="47" y="360" on="1"/>
        <pt x="64" y="365" on="0"/>
        <pt x="102" y="373" on="0"/>
        <pt x="122" y="376" on="1"/>
        <pt x="102" y="393" on="0"/>
        <pt x="62" y="453" on="0"/>
        <pt x="52" y="494" on="1"/>
        <pt x="-40" y="494" on="1"/>
        <pt x="-40" y="597" on="1"/>
        <pt x="603" y="597" on="1"/>
        <pt x="603" y="494" on="1"/>
        <pt x="528" y="494" on="1"/>
        <pt x="518" y="444" on="0"/>
        <pt x="464" y="371" on="0"/>
        <pt x="431" y="348" on="1"/>
        <pt x="481" y="328" on="0"/>
        <pt x="536" y="245" on="0"/>
        <pt x="536" y="194" on="1"/>
        <pt x="536" y="151" on="0"/>
        <pt x="502" y="85" on="0"/>
        <pt x="441" y="38" on="0"/>
        <pt x="356" y="12" on="0"/>
        <pt x="304" y="9" on="1"/>
        <pt x="359" y="-86" on="1"/>
        <pt x="251" y="-128" on="1"/>
        <pt x="192" y="7" on="1"/>
        <pt x="163" y="10" on="0"/>
        <pt x="115" y="29" on="0"/>
        <pt x="79" y="59" on="0"/>
        <pt x="59" y="97" on="0"/>
        <pt x="59" y="118" on="1"/>
        <pt x="59" y="157" on="0"/>
        <pt x="110" y="199" on="0"/>
        <pt x="140" y="199" on="1"/>
        <pt x="151" y="199" on="0"/>
        <pt x="161" y="199" on="0"/>
        <pt x="169" y="197" on="1"/>
        <pt x="236" y="110" on="1"/>
        <pt x="241" y="109" on="0"/>
        <pt x="254" y="109" on="0"/>
        <pt x="259" y="109" on="1"/>
        <pt x="271" y="109" on="1"/>
        <pt x="337" y="110" on="0"/>
        <pt x="403" y="161" on="0"/>
      </contour>
      <contour>
        <pt x="181" y="494" on="1"/>
        <pt x="187" y="469" on="0"/>
        <pt x="209" y="430" on="0"/>
        <pt x="239" y="404" on="0"/>
        <pt x="273" y="391" on="0"/>
        <pt x="290" y="391" on="1"/>
        <pt x="323" y="391" on="0"/>
        <pt x="380" y="443" on="0"/>
        <pt x="392" y="494" on="1"/>
      </contour>
    </TTGlyph>
    <TTGlyph name="JhaVirama.gm" xMin="-40" yMin="-325" xMax="656" yMax="597">
      <contour>
        <pt x="403" y="198" on="1"/>
        <pt x="403" y="242" on="0"/>
        <pt x="334" y="293" on="0"/>
        <pt x="267" y="293" on="1"/>
        <pt x="214" y="293" on="0"/>
        <pt x="110" y="273" on="0"/>
        <pt x="73" y="263" on="1"/>
        <pt x="47" y="360" on="1"/>
        <pt x="64" y="365" on="0"/>
        <pt x="102" y="373" on="0"/>
        <pt x="122" y="376" on="1"/>
        <pt x="102" y="393" on="0"/>
        <pt x="62" y="453" on="0"/>
        <pt x="52" y="494" on="1"/>
        <pt x="-40" y="494" on="1"/>
        <pt x="-40" y="597" on="1"/>
        <pt x="603" y="597" on="1"/>
        <pt x="603" y="494" on="1"/>
        <pt x="528" y="494" on="1"/>
        <pt x="518" y="444" on="0"/>
        <pt x="464" y="371" on="0"/>
        <pt x="431" y="348" on="1"/>
        <pt x="481" y="328" on="0"/>
        <pt x="536" y="245" on="0"/>
        <pt x="536" y="194" on="1"/>
        <pt x="536" y="151" on="0"/>
        <pt x="502" y="85" on="0"/>
        <pt x="441" y="38" on="0"/>
        <pt x="356" y="12" on="0"/>
        <pt x="304" y="9" on="1"/>
        <pt x="359" y="-86" on="1"/>
        <pt x="251" y="-128" on="1"/>
        <pt x="192" y="7" on="1"/>
        <pt x="163" y="10" on="0"/>
        <pt x="115" y="29" on="0"/>
        <pt x="79" y="59" on="0"/>
        <pt x="59" y="97" on="0"/>
        <pt x="59" y="118" on="1"/>
        <pt x="59" y="157" on="0"/>
        <pt x="110" y="199" on="0"/>
        <pt x="140" y="199" on="1"/>
        <pt x="151" y="199" on="0"/>
        <pt x="161" y="199" on="0"/>
        <pt x="169" y="197" on="1"/>
        <pt x="236" y="110" on="1"/>
        <pt x="241" y="109" on="0"/>
        <pt x="254" y="109" on="0"/>
        <pt x="259" y="109" on="1"/>
        <pt x="271" y="109" on="1"/>
        <pt x="337" y="110" on="0"/>
        <pt x="403" y="161" on="0"/>
      </contour>
      <contour>
        <pt x="181" y="494" on="1"/>
        <pt x="187" y="469" on="0"/>
        <pt x="209" y="430" on="0"/>
        <pt x="239" y="404" on="0"/>
        <pt x="273" y="391" on="0"/>
        <pt x="290" y="391" on="1"/>
        <pt x="323" y="391" on="0"/>
        <pt x="380" y="443" on="0"/>
        <pt x="392" y="494" on="1"/>
      </contour>
      <contour>
        <pt x="656" y="-241" on="1"/>
        <pt x="584" y="-325" on="1"/>
        <pt x="340" y="-153" on="1"/>
        <pt x="422" y="-50" on="1"/>
      </contour>
    </TTGlyph>
    <TTGlyph name="Jsmall" xMin="-15" yMin="-183" xMax="205" yMax="480">
      <contour>
        <pt x="205" y="480" on="1"/>
        <pt x="205" y="73" on="1"/>
        <pt x="205" y="16" on="0"/>
        <pt x="191" y="-73" on="0"/>
        <pt x="166" y="-111" on="1"/>
        <pt x="137" y="-155" on="0"/>
        <pt x="45" y="-183" on="0"/>
        <pt x="-15" y="-183" on="1"/>
        <pt x="-15" y="-71" on="1"/>
        <pt x="1" y="-71" on="0"/>
        <pt x="36" y="-59" on="0"/>
        <pt x="46" y="-39" on="1"/>
        <pt x="54" y="-25" on="0"/>
        <pt x="57" y="21" on="0"/>
        <pt x="57" y="44" on="1"/>
        <pt x="57" y="480" on="1"/>
      </contour>
    </TTGlyph>
    <TTGlyph name="K" xMin="66" yMin="0" xMax="627" yMax="630">
      <contour>
        <pt x="66" y="0" on="1"/>
        <pt x="66" y="630" on="1"/>
        <pt x="218" y="630" on="1"/>
        <pt x="218" y="372" on="1"/>
        <pt x="418" y="630" on="1"/>
        <pt x="607" y="630" on="1"/>
        <pt x="380" y="357" on="1"/>
        <pt x="627" y="0" on="1"/>
        <pt x="441" y="0" on="1"/>
        <pt x="269" y="263" on="1"/>
        <pt x="218" y="208" on="1"/>
        <pt x="218" y="0" on="1"/>
      </contour>
    </TTGlyph>
    <TTGlyph name="Ka.gm" xMin="-30" yMin="0" xMax="640" yMax="597">
      <contour>
        <pt x="-30" y="597" on="1"/>
        <pt x="640" y="597" on="1"/>
        <pt x="640" y="494" on="1"/>
        <pt x="567" y="494" on="1"/>
        <pt x="565" y="417" on="0"/>
        <pt x="531" y="288" on="0"/>
        <pt x="496" y="233" on="1"/>
        <pt x="524" y="190" on="0"/>
        <pt x="567" y="67" on="0"/>
        <pt x="572" y="0" on="1"/>
        <pt x="439" y="0" on="1"/>
        <pt x="433" y="36" on="0"/>
        <pt x="421" y="114" on="0"/>
        <pt x="409" y="146" on="1"/>
        <pt x="378" y="116" on="0"/>
        <pt x="286" y="80" on="0"/>
        <pt x="231" y="80" on="1"/>
        <pt x="184" y="80" on="0"/>
        <pt x="109" y="104" on="0"/>
        <pt x="55" y="149" on="0"/>
        <pt x="26" y="213" on="0"/>
        <pt x="26" y="252" on="1"/>
        <pt x="26" y="291" on="0"/>
        <pt x="55" y="354" on="0"/>
        <pt x="109" y="399" on="0"/>
        <pt x="186" y="423" on="0"/>
        <pt x="233" y="423" on="1"/>
        <pt x="290" y="423" on="0"/>
        <pt x="380" y="377" on="0"/>
        <pt x="410" y="345" on="1"/>
        <pt x="421" y="374" on="0"/>
        <pt x="432" y="446" on="0"/>
        <pt x="434" y="494" on="1"/>
        <pt x="-30" y="494" on="1"/>
      </contour>
      <contour>
        <pt x="241" y="184" on="1"/>
        <pt x="281" y="184" on="0"/>
        <pt x="348" y="222" on="0"/>
        <pt x="369" y="251" on="1"/>
        <pt x="342" y="283" on="0"/>
        <pt x="274" y="319" on="0"/>
        <pt x="239" y="319" on="1"/>
        <pt x="197" y="319" on="0"/>
        <pt x="159" y="280" on="0"/>
        <pt x="159" y="252" on="1"/>
        <pt x="159" y="220" on="0"/>
        <pt x="206" y="184" on="0"/>
      </contour>
    </TTGlyph>
    <TTGlyph name="KaVirama.gm" xMin="-30" yMin="-325" xMax="798" yMax="597">
      <contour>
        <pt x="-30" y="597" on="1"/>
        <pt x="640" y="597" on="1"/>
        <pt x="640" y="494" on="1"/>
        <pt x="567" y="494" on="1"/>
        <pt x="565" y="417" on="0"/>
        <pt x="531" y="288" on="0"/>
        <pt x="496" y="233" on="1"/>
        <pt x="524" y="190" on="0"/>
        <pt x="567" y="67" on="0"/>
        <pt x="572" y="0" on="1"/>
        <pt x="439" y="0" on="1"/>
        <pt x="433" y="36" on="0"/>
        <pt x="421" y="114" on="0"/>
        <pt x="409" y="146" on="1"/>
        <pt x="378" y="116" on="0"/>
        <pt x="286" y="80" on="0"/>
        <pt x="231" y="80" on="1"/>
        <pt x="184" y="80" on="0"/>
        <pt x="109" y="104" on="0"/>
        <pt x="55" y="149" on="0"/>
        <pt x="26" y="213" on="0"/>
        <pt x="26" y="252" on="1"/>
        <pt x="26" y="291" on="0"/>
        <pt x="55" y="354" on="0"/>
        <pt x="109" y="399" on="0"/>
        <pt x="186" y="423" on="0"/>
        <pt x="233" y="423" on="1"/>
        <pt x="290" y="423" on="0"/>
        <pt x="380" y="377" on="0"/>
        <pt x="410" y="345" on="1"/>
        <pt x="421" y="374" on="0"/>
        <pt x="432" y="446" on="0"/>
        <pt x="434" y="494" on="1"/>
        <pt x="-30" y="494" on="1"/>
      </contour>
      <contour>
        <pt x="241" y="184" on="1"/>
        <pt x="281" y="184" on="0"/>
        <pt x="348" y="222" on="0"/>
        <pt x="369" y="251" on="1"/>
        <pt x="342" y="283" on="0"/>
        <pt x="274" y="319" on="0"/>
        <pt x="239" y="319" on="1"/>
        <pt x="197" y="319" on="0"/>
        <pt x="159" y="280" on="0"/>
        <pt x="159" y="252" on="1"/>
        <pt x="159" y="220" on="0"/>
        <pt x="206" y="184" on="0"/>
      </contour>
      <contour>
        <pt x="798" y="-241" on="1"/>
        <pt x="726" y="-325" on="1"/>
        <pt x="482" y="-153" on="1"/>
        <pt x="564" y="-50" on="1"/>
      </contour>
    </TTGlyph>
    <TTGlyph name="KaViramaRa.gm" xMin="-30" yMin="-275" xMax="762" yMax="597">
      <contour>
        <pt x="-30" y="597" on="1"/>
        <pt x="640" y="597" on="1"/>
        <pt x="640" y="494" on="1"/>
        <pt x="567" y="494" on="1"/>
        <pt x="562" y="340" on="0"/>
        <pt x="496" y="232" on="1"/>
        <pt x="522" y="187" on="0"/>
        <pt x="560" y="51" on="0"/>
        <pt x="560" y="-43" on="1"/>
        <pt x="560" y="-120" on="1"/>
        <pt x="762" y="-184" on="1"/>
        <pt x="728" y="-275" on="1"/>
        <pt x="530" y="-190" on="1"/>
        <pt x="514" y="-198" on="0"/>
        <pt x="473" y="-208" on="0"/>
        <pt x="447" y="-208" on="1"/>
        <pt x="369" y="-208" on="0"/>
        <pt x="286" y="-149" on="0"/>
        <pt x="286" y="-107" on="1"/>
        <pt x="286" y="-81" on="0"/>
        <pt x="310" y="-51" on="0"/>
        <pt x="319" y="-44" on="1"/>
        <pt x="427" y="-80" on="1"/>
        <pt x="427" y="-43" on="1"/>
        <pt x="427" y="26" on="0"/>
        <pt x="418" y="113" on="0"/>
        <pt x="408" y="145" on="1"/>
        <pt x="377" y="116" on="0"/>
        <pt x="286" y="80" on="0"/>
        <pt x="231" y="80" on="1"/>
        <pt x="184" y="80" on="0"/>
        <pt x="109" y="104" on="0"/>
        <pt x="55" y="149" on="0"/>
        <pt x="26" y="213" on="0"/>
        <pt x="26" y="252" on="1"/>
        <pt x="26" y="291" on="0"/>
        <pt x="55" y="354" on="0"/>
        <pt x="109" y="399" on="0"/>
        <pt x="186" y="423" on="0"/>
        <pt x="233" y="423" on="1"/>
        <pt x="287" y="423" on="0"/>
        <pt x="380" y="377" on="0"/>
        <pt x="410" y="345" on="1"/>
        <pt x="421" y="374" on="0"/>
        <pt x="432" y="446" on="0"/>
        <pt x="434" y="494" on="1"/>
        <pt x="-30" y="494" on="1"/>
      </contour>
      <contour>
        <pt x="241" y="184" on="1"/>
        <pt x="281" y="184" on="0"/>
        <pt x="348" y="222" on="0"/>
        <pt x="369" y="251" on="1"/>
        <pt x="342" y="283" on="0"/>
        <pt x="274" y="319" on="0"/>
        <pt x="239" y="319" on="1"/>
        <pt x="197" y="319" on="0"/>
        <pt x="159" y="280" on="0"/>
        <pt x="159" y="252" on="1"/>
        <pt x="159" y="220" on="0"/>
        <pt x="206" y="184" on="0"/>
      </contour>
    </TTGlyph>
    <TTGlyph name="Kcommaaccent" xMin="66" yMin="-340" xMax="627" yMax="630">
      <contour>
        <pt x="66" y="0" on="1"/>
        <pt x="66" y="630" on="1"/>
        <pt x="218" y="630" on="1"/>
        <pt x="218" y="372" on="1"/>
        <pt x="418" y="630" on="1"/>
        <pt x="607" y="630" on="1"/>
        <pt x="380" y="357" on="1"/>
        <pt x="627" y="0" on="1"/>
        <pt x="441" y="0" on="1"/>
        <pt x="269" y="263" on="1"/>
        <pt x="218" y="208" on="1"/>
        <pt x="218" y="0" on="1"/>
      </contour>
      <contour>
        <pt x="307" y="-203" on="1"/>
        <pt x="279" y="-198" on="0"/>
        <pt x="245" y="-161" on="0"/>
        <pt x="245" y="-133" on="1"/>
        <pt x="245" y="-106" on="0"/>
        <pt x="282" y="-64" on="0"/>
        <pt x="316" y="-64" on="1"/>
        <pt x="329" y="-64" on="0"/>
        <pt x="358" y="-75" on="0"/>
        <pt x="382" y="-99" on="0"/>
        <pt x="398" y="-138" on="0"/>
        <pt x="398" y="-166" on="1"/>
        <pt x="398" y="-195" on="0"/>
        <pt x="378" y="-249" on="0"/>
        <pt x="347" y="-294" on="0"/>
        <pt x="306" y="-330" on="0"/>
        <pt x="285" y="-340" on="1"/>
        <pt x="252" y="-296" on="1"/>
        <pt x="278" y="-282" on="0"/>
        <pt x="319" y="-235" on="0"/>
        <pt x="324" y="-206" on="1"/>
      </contour>
    </TTGlyph>
    <TTGlyph name="Kha.gm" xMin="-30" yMin="0" xMax="635" yMax="597">
      <contour>
        <pt x="164" y="597" on="1"/>
        <pt x="170" y="587" on="0"/>
        <pt x="189" y="553" on="0"/>
        <pt x="207" y="507" on="0"/>
        <pt x="221" y="452" on="0"/>
        <pt x="223" y="422" on="1"/>
        <pt x="417" y="422" on="1"/>
        <pt x="417" y="597" on="1"/>
        <pt x="635" y="597" on="1"/>
        <pt x="635" y="494" on="1"/>
        <pt x="550" y="494" on="1"/>
        <pt x="550" y="0" on="1"/>
        <pt x="417" y="0" on="1"/>
        <pt x="417" y="109" on="1"/>
        <pt x="396" y="99" on="0"/>
        <pt x="340" y="87" on="0"/>
        <pt x="303" y="87" on="1"/>
        <pt x="220" y="87" on="0"/>
        <pt x="80" y="155" on="0"/>
        <pt x="38" y="229" on="1"/>
        <pt x="65" y="273" on="0"/>
        <pt x="91" y="365" on="0"/>
        <pt x="91" y="410" on="1"/>
        <pt x="91" y="438" on="0"/>
        <pt x="84" y="478" on="0"/>
        <pt x="78" y="494" on="1"/>
        <pt x="-30" y="494" on="1"/>
        <pt x="-30" y="597" on="1"/>
      </contour>
      <contour>
        <pt x="309" y="192" on="1"/>
        <pt x="344" y="192" on="0"/>
        <pt x="397" y="208" on="0"/>
        <pt x="417" y="221" on="1"/>
        <pt x="417" y="329" on="1"/>
        <pt x="215" y="329" on="1"/>
        <pt x="205" y="282" on="0"/>
        <pt x="180" y="239" on="1"/>
        <pt x="197" y="216" on="0"/>
        <pt x="268" y="192" on="0"/>
      </contour>
    </TTGlyph>
    <TTGlyph name="KhaVirama.gm" xMin="-30" yMin="-325" xMax="728" yMax="597">
      <contour>
        <pt x="164" y="597" on="1"/>
        <pt x="170" y="587" on="0"/>
        <pt x="189" y="553" on="0"/>
        <pt x="207" y="507" on="0"/>
        <pt x="221" y="452" on="0"/>
        <pt x="223" y="422" on="1"/>
        <pt x="417" y="422" on="1"/>
        <pt x="417" y="597" on="1"/>
        <pt x="635" y="597" on="1"/>
        <pt x="635" y="494" on="1"/>
        <pt x="550" y="494" on="1"/>
        <pt x="550" y="0" on="1"/>
        <pt x="417" y="0" on="1"/>
        <pt x="417" y="109" on="1"/>
        <pt x="396" y="99" on="0"/>
        <pt x="340" y="87" on="0"/>
        <pt x="303" y="87" on="1"/>
        <pt x="220" y="87" on="0"/>
        <pt x="80" y="155" on="0"/>
        <pt x="38" y="229" on="1"/>
        <pt x="65" y="273" on="0"/>
        <pt x="91" y="365" on="0"/>
        <pt x="91" y="410" on="1"/>
        <pt x="91" y="438" on="0"/>
        <pt x="84" y="478" on="0"/>
        <pt x="78" y="494" on="1"/>
        <pt x="-30" y="494" on="1"/>
        <pt x="-30" y="597" on="1"/>
      </contour>
      <contour>
        <pt x="309" y="192" on="1"/>
        <pt x="344" y="192" on="0"/>
        <pt x="397" y="208" on="0"/>
        <pt x="417" y="221" on="1"/>
        <pt x="417" y="329" on="1"/>
        <pt x="215" y="329" on="1"/>
        <pt x="205" y="282" on="0"/>
        <pt x="180" y="239" on="1"/>
        <pt x="197" y="216" on="0"/>
        <pt x="268" y="192" on="0"/>
      </contour>
      <contour>
        <pt x="728" y="-241" on="1"/>
        <pt x="656" y="-325" on="1"/>
        <pt x="412" y="-153" on="1"/>
        <pt x="494" y="-50" on="1"/>
      </contour>
    </TTGlyph>
    <TTGlyph name="Khanda.gm" xMin="84" yMin="-39" xMax="711" yMax="696">
      <contour>
        <pt x="361" y="-1" on="1"/>
        <pt x="361" y="18" on="0"/>
        <pt x="376" y="30" on="1"/>
        <pt x="376" y="82" on="1"/>
        <pt x="360" y="74" on="0"/>
        <pt x="332" y="59" on="0"/>
        <pt x="321" y="54" on="1"/>
        <pt x="323" y="52" on="0"/>
        <pt x="327" y="42" on="0"/>
        <pt x="327" y="38" on="1"/>
        <pt x="327" y="24" on="0"/>
        <pt x="308" y="7" on="0"/>
        <pt x="293" y="7" on="1"/>
        <pt x="278" y="7" on="0"/>
        <pt x="259" y="26" on="0"/>
        <pt x="259" y="40" on="1"/>
        <pt x="259" y="62" on="0"/>
        <pt x="284" y="75" on="1"/>
        <pt x="301" y="83" on="0"/>
        <pt x="337" y="101" on="0"/>
        <pt x="358" y="110" on="1"/>
        <pt x="336" y="121" on="0"/>
        <pt x="289" y="148" on="0"/>
        <pt x="269" y="160" on="1"/>
        <pt x="220" y="96" on="1"/>
        <pt x="196" y="129" on="0"/>
        <pt x="148" y="195" on="0"/>
        <pt x="109" y="266" on="0"/>
        <pt x="84" y="344" on="0"/>
        <pt x="84" y="389" on="1"/>
        <pt x="84" y="445" on="0"/>
        <pt x="140" y="542" on="0"/>
        <pt x="199" y="579" on="1"/>
        <pt x="188" y="565" on="0"/>
        <pt x="170" y="538" on="0"/>
        <pt x="157" y="505" on="0"/>
        <pt x="149" y="463" on="0"/>
        <pt x="149" y="435" on="1"/>
        <pt x="149" y="396" on="0"/>
        <pt x="172" y="321" on="0"/>
        <pt x="225" y="249" on="0"/>
        <pt x="313" y="178" on="0"/>
        <pt x="378" y="143" on="1"/>
        <pt x="378" y="194" on="1"/>
        <pt x="348" y="210" on="0"/>
        <pt x="327" y="226" on="1"/>
        <pt x="334" y="242" on="0"/>
        <pt x="338" y="259" on="1"/>
        <pt x="312" y="266" on="0"/>
        <pt x="266" y="296" on="0"/>
        <pt x="231" y="339" on="0"/>
        <pt x="210" y="396" on="0"/>
        <pt x="210" y="431" on="1"/>
        <pt x="210" y="494" on="0"/>
        <pt x="283" y="575" on="0"/>
        <pt x="334" y="592" on="1"/>
        <pt x="331" y="601" on="0"/>
        <pt x="324" y="616" on="0"/>
        <pt x="321" y="623" on="1"/>
        <pt x="347" y="636" on="0"/>
        <pt x="387" y="679" on="0"/>
        <pt x="399" y="696" on="1"/>
        <pt x="411" y="679" on="0"/>
        <pt x="451" y="636" on="0"/>
        <pt x="477" y="623" on="1"/>
        <pt x="473" y="616" on="0"/>
        <pt x="467" y="600" on="0"/>
        <pt x="463" y="591" on="1"/>
        <pt x="515" y="574" on="0"/>
        <pt x="585" y="491" on="0"/>
        <pt x="585" y="431" on="1"/>
        <pt x="585" y="397" on="0"/>
        <pt x="564" y="341" on="0"/>
        <pt x="530" y="299" on="0"/>
        <pt x="483" y="269" on="0"/>
        <pt x="458" y="261" on="1"/>
        <pt x="461" y="251" on="0"/>
        <pt x="468" y="234" on="0"/>
        <pt x="471" y="226" on="1"/>
        <pt x="460" y="218" on="0"/>
        <pt x="429" y="199" on="0"/>
        <pt x="415" y="191" on="1"/>
        <pt x="415" y="142" on="1"/>
        <pt x="481" y="177" on="0"/>
        <pt x="570" y="248" on="0"/>
        <pt x="623" y="321" on="0"/>
        <pt x="646" y="396" on="0"/>
        <pt x="646" y="435" on="1"/>
        <pt x="646" y="463" on="0"/>
        <pt x="638" y="505" on="0"/>
        <pt x="625" y="538" on="0"/>
        <pt x="606" y="565" on="0"/>
        <pt x="596" y="579" on="1"/>
        <pt x="655" y="542" on="0"/>
        <pt x="711" y="445" on="0"/>
        <pt x="711" y="389" on="1"/>
        <pt x="711" y="344" on="0"/>
        <pt x="686" y="266" on="0"/>
        <pt x="647" y="195" on="0"/>
        <pt x="599" y="129" on="0"/>
        <pt x="575" y="96" on="1"/>
        <pt x="526" y="160" on="1"/>
        <pt x="506" y="148" on="0"/>
        <pt x="458" y="121" on="0"/>
        <pt x="436" y="110" on="1"/>
        <pt x="509" y="75" on="1"/>
        <pt x="534" y="62" on="0"/>
        <pt x="534" y="40" on="1"/>
        <pt x="534" y="26" on="0"/>
        <pt x="515" y="7" on="0"/>
        <pt x="500" y="7" on="1"/>
        <pt x="485" y="7" on="0"/>
        <pt x="466" y="24" on="0"/>
        <pt x="466" y="38" on="1"/>
        <pt x="466" y="42" on="0"/>
        <pt x="469" y="52" on="0"/>
        <pt x="471" y="54" on="1"/>
        <pt x="460" y="59" on="0"/>
        <pt x="432" y="74" on="0"/>
        <pt x="416" y="82" on="1"/>
        <pt x="416" y="33" on="1"/>
        <pt x="436" y="21" on="0"/>
        <pt x="436" y="-1" on="1"/>
        <pt x="436" y="-17" on="0"/>
        <pt x="414" y="-39" on="0"/>
        <pt x="399" y="-39" on="1"/>
        <pt x="383" y="-39" on="0"/>
        <pt x="361" y="-17" on="0"/>
      </contour>
      <contour>
        <pt x="274" y="431" on="1"/>
        <pt x="274" y="385" on="0"/>
        <pt x="316" y="325" on="0"/>
        <pt x="351" y="312" on="1"/>
        <pt x="356" y="339" on="0"/>
        <pt x="363" y="400" on="0"/>
        <pt x="363" y="432" on="1"/>
        <pt x="363" y="456" on="0"/>
        <pt x="355" y="513" on="0"/>
        <pt x="348" y="540" on="1"/>
        <pt x="316" y="528" on="0"/>
        <pt x="274" y="472" on="0"/>
      </contour>
      <contour>
        <pt x="522" y="431" on="1"/>
        <pt x="522" y="470" on="0"/>
        <pt x="480" y="526" on="0"/>
        <pt x="448" y="539" on="1"/>
        <pt x="442" y="512" on="0"/>
        <pt x="435" y="456" on="0"/>
        <pt x="435" y="432" on="1"/>
        <pt x="435" y="400" on="0"/>
        <pt x="441" y="339" on="0"/>
        <pt x="446" y="312" on="1"/>
        <pt x="481" y="324" on="0"/>
        <pt x="522" y="384" on="0"/>
      </contour>
    </TTGlyph>
    <TTGlyph name="Khha.gm" xMin="-30" yMin="-34" xMax="635" yMax="597">
      <contour>
        <pt x="164" y="597" on="1"/>
        <pt x="170" y="587" on="0"/>
        <pt x="189" y="553" on="0"/>
        <pt x="207" y="507" on="0"/>
        <pt x="221" y="452" on="0"/>
        <pt x="223" y="422" on="1"/>
        <pt x="417" y="422" on="1"/>
        <pt x="417" y="597" on="1"/>
        <pt x="635" y="597" on="1"/>
        <pt x="635" y="494" on="1"/>
        <pt x="550" y="494" on="1"/>
        <pt x="550" y="0" on="1"/>
        <pt x="417" y="0" on="1"/>
        <pt x="417" y="109" on="1"/>
        <pt x="396" y="99" on="0"/>
        <pt x="340" y="87" on="0"/>
        <pt x="303" y="87" on="1"/>
        <pt x="220" y="87" on="0"/>
        <pt x="80" y="155" on="0"/>
        <pt x="38" y="229" on="1"/>
        <pt x="65" y="273" on="0"/>
        <pt x="91" y="365" on="0"/>
        <pt x="91" y="410" on="1"/>
        <pt x="91" y="438" on="0"/>
        <pt x="84" y="478" on="0"/>
        <pt x="78" y="494" on="1"/>
        <pt x="-30" y="494" on="1"/>
        <pt x="-30" y="597" on="1"/>
      </contour>
      <contour>
        <pt x="309" y="192" on="1"/>
        <pt x="344" y="192" on="0"/>
        <pt x="397" y="208" on="0"/>
        <pt x="417" y="221" on="1"/>
        <pt x="417" y="329" on="1"/>
        <pt x="215" y="329" on="1"/>
        <pt x="205" y="282" on="0"/>
        <pt x="180" y="239" on="1"/>
        <pt x="197" y="216" on="0"/>
        <pt x="268" y="192" on="0"/>
      </contour>
      <contour>
        <pt x="29" y="26" on="1"/>
        <pt x="29" y="54" on="0"/>
        <pt x="64" y="90" on="0"/>
        <pt x="90" y="90" on="1"/>
        <pt x="117" y="90" on="0"/>
        <pt x="151" y="52" on="0"/>
        <pt x="151" y="26" on="1"/>
        <pt x="151" y="0" on="0"/>
        <pt x="117" y="-34" on="0"/>
        <pt x="90" y="-34" on="1"/>
        <pt x="64" y="-34" on="0"/>
        <pt x="29" y="-1" on="0"/>
      </contour>
    </TTGlyph>
    <TTGlyph name="KhhaVirama.gm" xMin="-30" yMin="-325" xMax="728" yMax="597">
      <contour>
        <pt x="164" y="597" on="1"/>
        <pt x="170" y="587" on="0"/>
        <pt x="189" y="553" on="0"/>
        <pt x="207" y="507" on="0"/>
        <pt x="221" y="452" on="0"/>
        <pt x="223" y="422" on="1"/>
        <pt x="417" y="422" on="1"/>
        <pt x="417" y="597" on="1"/>
        <pt x="635" y="597" on="1"/>
        <pt x="635" y="494" on="1"/>
        <pt x="550" y="494" on="1"/>
        <pt x="550" y="0" on="1"/>
        <pt x="417" y="0" on="1"/>
        <pt x="417" y="109" on="1"/>
        <pt x="396" y="99" on="0"/>
        <pt x="340" y="87" on="0"/>
        <pt x="303" y="87" on="1"/>
        <pt x="220" y="87" on="0"/>
        <pt x="80" y="155" on="0"/>
        <pt x="38" y="229" on="1"/>
        <pt x="65" y="273" on="0"/>
        <pt x="91" y="365" on="0"/>
        <pt x="91" y="410" on="1"/>
        <pt x="91" y="438" on="0"/>
        <pt x="84" y="478" on="0"/>
        <pt x="78" y="494" on="1"/>
        <pt x="-30" y="494" on="1"/>
        <pt x="-30" y="597" on="1"/>
      </contour>
      <contour>
        <pt x="309" y="192" on="1"/>
        <pt x="344" y="192" on="0"/>
        <pt x="397" y="208" on="0"/>
        <pt x="417" y="221" on="1"/>
        <pt x="417" y="329" on="1"/>
        <pt x="215" y="329" on="1"/>
        <pt x="205" y="282" on="0"/>
        <pt x="180" y="239" on="1"/>
        <pt x="197" y="216" on="0"/>
        <pt x="268" y="192" on="0"/>
      </contour>
      <contour>
        <pt x="7" y="24" on="1"/>
        <pt x="7" y="52" on="0"/>
        <pt x="42" y="88" on="0"/>
        <pt x="68" y="88" on="1"/>
        <pt x="95" y="88" on="0"/>
        <pt x="129" y="50" on="0"/>
        <pt x="129" y="24" on="1"/>
        <pt x="129" y="-2" on="0"/>
        <pt x="95" y="-36" on="0"/>
        <pt x="68" y="-36" on="1"/>
        <pt x="42" y="-36" on="0"/>
        <pt x="7" y="-3" on="0"/>
      </contour>
      <contour>
        <pt x="728" y="-241" on="1"/>
        <pt x="656" y="-325" on="1"/>
        <pt x="412" y="-153" on="1"/>
        <pt x="494" y="-50" on="1"/>
      </contour>
    </TTGlyph>
    <TTGlyph name="Ksmall" xMin="58" yMin="0" xMax="535" yMax="480">
      <contour>
        <pt x="58" y="0" on="1"/>
        <pt x="58" y="480" on="1"/>
        <pt x="196" y="480" on="1"/>
        <pt x="196" y="297" on="1"/>
        <pt x="344" y="480" on="1"/>
        <pt x="518" y="480" on="1"/>
        <pt x="330" y="273" on="1"/>
        <pt x="535" y="0" on="1"/>
        <pt x="359" y="0" on="1"/>
        <pt x="234" y="189" on="1"/>
        <pt x="196" y="146" on="1"/>
        <pt x="196" y="0" on="1"/>
      </contour>
    </TTGlyph>
    <TTGlyph name="L" xMin="66" yMin="0" xMax="467" yMax="630">
      <contour>
        <pt x="66" y="630" on="1"/>
        <pt x="218" y="630" on="1"/>
        <pt x="218" y="118" on="1"/>
        <pt x="467" y="118" on="1"/>
        <pt x="467" y="0" on="1"/>
        <pt x="66" y="0" on="1"/>
      </contour>
    </TTGlyph>
    <TTGlyph name="La.gm" xMin="-20" yMin="-14" xMax="734" yMax="597">
      <contour>
        <pt x="-20" y="597" on="1"/>
        <pt x="734" y="597" on="1"/>
        <pt x="734" y="494" on="1"/>
        <pt x="577" y="494" on="1"/>
        <pt x="572" y="468" on="0"/>
        <pt x="557" y="415" on="0"/>
        <pt x="548" y="391" on="1"/>
        <pt x="575" y="378" on="0"/>
        <pt x="624" y="341" on="0"/>
        <pt x="661" y="293" on="0"/>
        <pt x="684" y="232" on="0"/>
        <pt x="684" y="195" on="1"/>
        <pt x="684" y="146" on="0"/>
        <pt x="647" y="71" on="0"/>
        <pt x="585" y="19" on="0"/>
        <pt x="502" y="-11" on="0"/>
        <pt x="456" y="-14" on="1"/>
        <pt x="430" y="89" on="1"/>
        <pt x="481" y="96" on="0"/>
        <pt x="552" y="149" on="0"/>
        <pt x="552" y="199" on="1"/>
        <pt x="552" y="231" on="0"/>
        <pt x="517" y="277" on="0"/>
        <pt x="491" y="291" on="1"/>
        <pt x="468" y="259" on="0"/>
        <pt x="397" y="199" on="0"/>
        <pt x="356" y="178" on="1"/>
        <pt x="316" y="196" on="0"/>
        <pt x="246" y="257" on="0"/>
        <pt x="220" y="290" on="1"/>
        <pt x="194" y="276" on="0"/>
        <pt x="162" y="228" on="0"/>
        <pt x="162" y="199" on="1"/>
        <pt x="162" y="149" on="0"/>
        <pt x="233" y="96" on="0"/>
        <pt x="284" y="89" on="1"/>
        <pt x="258" y="-14" on="1"/>
        <pt x="212" y="-11" on="0"/>
        <pt x="129" y="19" on="0"/>
        <pt x="67" y="71" on="0"/>
        <pt x="30" y="145" on="0"/>
        <pt x="30" y="194" on="1"/>
        <pt x="30" y="231" on="0"/>
        <pt x="52" y="291" on="0"/>
        <pt x="88" y="340" on="0"/>
        <pt x="136" y="377" on="0"/>
        <pt x="162" y="390" on="1"/>
        <pt x="153" y="413" on="0"/>
        <pt x="138" y="466" on="0"/>
        <pt x="134" y="494" on="1"/>
        <pt x="-20" y="494" on="1"/>
      </contour>
      <contour>
        <pt x="356" y="307" on="1"/>
        <pt x="392" y="339" on="0"/>
        <pt x="437" y="431" on="0"/>
        <pt x="442" y="494" on="1"/>
        <pt x="268" y="494" on="1"/>
        <pt x="275" y="431" on="0"/>
        <pt x="320" y="339" on="0"/>
      </contour>
    </TTGlyph>
    <TTGlyph name="LaVirama.gm" xMin="-20" yMin="-325" xMax="734" yMax="597">
      <contour>
        <pt x="-20" y="597" on="1"/>
        <pt x="734" y="597" on="1"/>
        <pt x="734" y="494" on="1"/>
        <pt x="577" y="494" on="1"/>
        <pt x="572" y="468" on="0"/>
        <pt x="557" y="415" on="0"/>
        <pt x="548" y="391" on="1"/>
        <pt x="575" y="378" on="0"/>
        <pt x="624" y="341" on="0"/>
        <pt x="661" y="293" on="0"/>
        <pt x="684" y="232" on="0"/>
        <pt x="684" y="195" on="1"/>
        <pt x="684" y="146" on="0"/>
        <pt x="647" y="71" on="0"/>
        <pt x="585" y="19" on="0"/>
        <pt x="502" y="-11" on="0"/>
        <pt x="456" y="-14" on="1"/>
        <pt x="430" y="89" on="1"/>
        <pt x="481" y="96" on="0"/>
        <pt x="552" y="149" on="0"/>
        <pt x="552" y="199" on="1"/>
        <pt x="552" y="231" on="0"/>
        <pt x="517" y="277" on="0"/>
        <pt x="491" y="291" on="1"/>
        <pt x="468" y="259" on="0"/>
        <pt x="397" y="199" on="0"/>
        <pt x="356" y="178" on="1"/>
        <pt x="316" y="196" on="0"/>
        <pt x="246" y="257" on="0"/>
        <pt x="220" y="290" on="1"/>
        <pt x="194" y="276" on="0"/>
        <pt x="162" y="228" on="0"/>
        <pt x="162" y="199" on="1"/>
        <pt x="162" y="149" on="0"/>
        <pt x="233" y="96" on="0"/>
        <pt x="284" y="89" on="1"/>
        <pt x="258" y="-14" on="1"/>
        <pt x="212" y="-11" on="0"/>
        <pt x="129" y="19" on="0"/>
        <pt x="67" y="71" on="0"/>
        <pt x="30" y="145" on="0"/>
        <pt x="30" y="194" on="1"/>
        <pt x="30" y="231" on="0"/>
        <pt x="52" y="291" on="0"/>
        <pt x="88" y="340" on="0"/>
        <pt x="136" y="377" on="0"/>
        <pt x="162" y="390" on="1"/>
        <pt x="153" y="413" on="0"/>
        <pt x="138" y="466" on="0"/>
        <pt x="134" y="494" on="1"/>
        <pt x="-20" y="494" on="1"/>
      </contour>
      <contour>
        <pt x="356" y="307" on="1"/>
        <pt x="392" y="339" on="0"/>
        <pt x="437" y="431" on="0"/>
        <pt x="442" y="494" on="1"/>
        <pt x="268" y="494" on="1"/>
        <pt x="275" y="431" on="0"/>
        <pt x="320" y="339" on="0"/>
      </contour>
      <contour>
        <pt x="725" y="-241" on="1"/>
        <pt x="653" y="-325" on="1"/>
        <pt x="409" y="-153" on="1"/>
        <pt x="491" y="-50" on="1"/>
      </contour>
    </TTGlyph>
    <TTGlyph name="Lacute" xMin="66" yMin="0" xMax="467" yMax="814">
      <contour>
        <pt x="66" y="630" on="1"/>
        <pt x="218" y="630" on="1"/>
        <pt x="218" y="118" on="1"/>
        <pt x="467" y="118" on="1"/>
        <pt x="467" y="0" on="1"/>
        <pt x="66" y="0" on="1"/>
      </contour>
      <contour>
        <pt x="198" y="690" on="1"/>
        <pt x="76" y="690" on="1"/>
        <pt x="156" y="814" on="1"/>
        <pt x="314" y="814" on="1"/>
      </contour>
    </TTGlyph>
    <TTGlyph name="Lcaron" xMin="66" yMin="0" xMax="467" yMax="742">
      <contour>
        <pt x="66" y="630" on="1"/>
        <pt x="218" y="630" on="1"/>
        <pt x="218" y="118" on="1"/>
        <pt x="467" y="118" on="1"/>
        <pt x="467" y="0" on="1"/>
        <pt x="66" y="0" on="1"/>
      </contour>
      <contour>
        <pt x="329" y="603" on="1"/>
        <pt x="301" y="608" on="0"/>
        <pt x="267" y="645" on="0"/>
        <pt x="267" y="673" on="1"/>
        <pt x="267" y="700" on="0"/>
        <pt x="304" y="742" on="0"/>
        <pt x="338" y="742" on="1"/>
        <pt x="351" y="742" on="0"/>
        <pt x="380" y="731" on="0"/>
        <pt x="404" y="707" on="0"/>
        <pt x="420" y="668" on="0"/>
        <pt x="420" y="640" on="1"/>
        <pt x="420" y="611" on="0"/>
        <pt x="400" y="557" on="0"/>
        <pt x="369" y="512" on="0"/>
        <pt x="328" y="476" on="0"/>
        <pt x="307" y="466" on="1"/>
        <pt x="274" y="510" on="1"/>
        <pt x="300" y="524" on="0"/>
        <pt x="341" y="571" on="0"/>
        <pt x="346" y="600" on="1"/>
      </contour>
    </TTGlyph>
    <TTGlyph name="Lcommaaccent" xMin="66" yMin="-340" xMax="467" yMax="630">
      <contour>
        <pt x="66" y="630" on="1"/>
        <pt x="218" y="630" on="1"/>
        <pt x="218" y="118" on="1"/>
        <pt x="467" y="118" on="1"/>
        <pt x="467" y="0" on="1"/>
        <pt x="66" y="0" on="1"/>
      </contour>
      <contour>
        <pt x="247" y="-203" on="1"/>
        <pt x="219" y="-198" on="0"/>
        <pt x="185" y="-161" on="0"/>
        <pt x="185" y="-133" on="1"/>
        <pt x="185" y="-106" on="0"/>
        <pt x="222" y="-64" on="0"/>
        <pt x="256" y="-64" on="1"/>
        <pt x="269" y="-64" on="0"/>
        <pt x="298" y="-75" on="0"/>
        <pt x="322" y="-99" on="0"/>
        <pt x="338" y="-138" on="0"/>
        <pt x="338" y="-166" on="1"/>
        <pt x="338" y="-195" on="0"/>
        <pt x="318" y="-249" on="0"/>
        <pt x="287" y="-294" on="0"/>
        <pt x="246" y="-330" on="0"/>
        <pt x="225" y="-340" on="1"/>
        <pt x="192" y="-296" on="1"/>
        <pt x="218" y="-282" on="0"/>
        <pt x="259" y="-235" on="0"/>
        <pt x="264" y="-206" on="1"/>
      </contour>
    </TTGlyph>
    <TTGlyph name="Ldot" xMin="66" yMin="0" xMax="467" yMax="630">
      <contour>
        <pt x="66" y="630" on="1"/>
        <pt x="218" y="630" on="1"/>
        <pt x="218" y="118" on="1"/>
        <pt x="467" y="118" on="1"/>
        <pt x="467" y="0" on="1"/>
        <pt x="66" y="0" on="1"/>
      </contour>
      <contour>
        <pt x="268" y="351" on="1"/>
        <pt x="268" y="380" on="0"/>
        <pt x="306" y="421" on="0"/>
        <pt x="335" y="421" on="1"/>
        <pt x="362" y="421" on="0"/>
        <pt x="399" y="380" on="0"/>
        <pt x="399" y="351" on="1"/>
        <pt x="399" y="323" on="0"/>
        <pt x="361" y="281" on="0"/>
        <pt x="335" y="281" on="1"/>
        <pt x="306" y="281" on="0"/>
        <pt x="268" y="323" on="0"/>
      </contour>
    </TTGlyph>
    <TTGlyph name="Lla.gm" xMin="-35" yMin="-91" xMax="736" yMax="597">
      <contour>
        <pt x="-35" y="597" on="1"/>
        <pt x="736" y="597" on="1"/>
        <pt x="736" y="494" on="1"/>
        <pt x="579" y="494" on="1"/>
        <pt x="574" y="468" on="0"/>
        <pt x="559" y="415" on="0"/>
        <pt x="550" y="391" on="1"/>
        <pt x="577" y="378" on="0"/>
        <pt x="626" y="341" on="0"/>
        <pt x="663" y="293" on="0"/>
        <pt x="686" y="232" on="0"/>
        <pt x="686" y="195" on="1"/>
        <pt x="686" y="146" on="0"/>
        <pt x="649" y="71" on="0"/>
        <pt x="587" y="19" on="0"/>
        <pt x="504" y="-11" on="0"/>
        <pt x="458" y="-14" on="1"/>
        <pt x="432" y="89" on="1"/>
        <pt x="483" y="96" on="0"/>
        <pt x="554" y="149" on="0"/>
        <pt x="554" y="199" on="1"/>
        <pt x="554" y="231" on="0"/>
        <pt x="519" y="277" on="0"/>
        <pt x="493" y="291" on="1"/>
        <pt x="470" y="259" on="0"/>
        <pt x="399" y="199" on="0"/>
        <pt x="358" y="178" on="1"/>
        <pt x="318" y="196" on="0"/>
        <pt x="248" y="257" on="0"/>
        <pt x="222" y="290" on="1"/>
        <pt x="196" y="276" on="0"/>
        <pt x="164" y="228" on="0"/>
        <pt x="164" y="199" on="1"/>
        <pt x="164" y="149" on="0"/>
        <pt x="235" y="96" on="0"/>
        <pt x="286" y="89" on="1"/>
        <pt x="260" y="-14" on="1"/>
        <pt x="214" y="-11" on="0"/>
        <pt x="131" y="19" on="0"/>
        <pt x="69" y="71" on="0"/>
        <pt x="32" y="145" on="0"/>
        <pt x="32" y="194" on="1"/>
        <pt x="32" y="231" on="0"/>
        <pt x="54" y="291" on="0"/>
        <pt x="90" y="340" on="0"/>
        <pt x="138" y="377" on="0"/>
        <pt x="164" y="390" on="1"/>
        <pt x="155" y="413" on="0"/>
        <pt x="140" y="466" on="0"/>
        <pt x="136" y="494" on="1"/>
        <pt x="-35" y="494" on="1"/>
      </contour>
      <contour>
        <pt x="358" y="307" on="1"/>
        <pt x="394" y="339" on="0"/>
        <pt x="439" y="431" on="0"/>
        <pt x="444" y="494" on="1"/>
        <pt x="270" y="494" on="1"/>
        <pt x="277" y="431" on="0"/>
        <pt x="322" y="339" on="0"/>
      </contour>
      <contour>
        <pt x="-30" y="-31" on="1"/>
        <pt x="-30" y="-3" on="0"/>
        <pt x="5" y="33" on="0"/>
        <pt x="31" y="33" on="1"/>
        <pt x="58" y="33" on="0"/>
        <pt x="92" y="-5" on="0"/>
        <pt x="92" y="-31" on="1"/>
        <pt x="92" y="-57" on="0"/>
        <pt x="58" y="-91" on="0"/>
        <pt x="31" y="-91" on="1"/>
        <pt x="5" y="-91" on="0"/>
        <pt x="-30" y="-58" on="0"/>
      </contour>
    </TTGlyph>
</ttFont>
